<svg width="48" height="48" viewBox="0 0 48 48" fill="none" xmlns="http://www.w3.org/2000/svg">
<path d="M17.5 0C12.3 0 8 4.2 8 9.4C8 14.6 12.2 20.8 17.5 20.8C22.8 20.8 27 14.6 27 9.4C27.1 4.2 22.8 0 17.5 0ZM17.5 18.8C13.5 18.8 10 13.6 10 9.4C10 5.3 13.4 2 17.5 2C21.6 2 25 5.3 25 9.4C25.1 13.6 21.6 18.8 17.5 18.8Z" fill="url(#paint0_linear_566_2260)"/>
<path d="M0 47C0 47.6 0.4 48 1 48H34.1C34.7 48 35.1 47.6 35.1 47V44.8C35.5 44.8 35.9 44.9 36.3 44.9C42.8 44.9 48 39.6 48 33.2C48 26.8 42.7 21.5 36.3 21.5C34 21.5 31.8 22.2 30 23.4C28.8 22.9 27.6 22.6 26.3 22.6H8.8C4 22.6 0 26.5 0 31.3V47ZM36.3 23.4C41.7 23.4 46 27.8 46 33.1C46 38.4 41.6 42.8 36.3 42.8C30.9 42.8 26.6 38.4 26.6 33.1C26.6 27.8 30.9 23.4 36.3 23.4ZM22.5 24.5C22.3 24.7 21.1 27.7 17.6 27.7C14.1 27.7 12.9 24.7 12.7 24.5H22.5ZM18 29.7L20.8 38.4L17.6 42.3L14.4 38.4L17.2 29.7H17.6C17.6 29.7 17.8 29.7 18 29.7ZM2 31.1C2 27.4 5 24.4 8.8 24.4H10.4C10.4 24.9 10.6 25 11.4 26.3C12.3 27.7 13.6 28.7 15.1 29.2L12.2 38.2C12.1 38.5 12.2 38.9 12.4 39.1L16.7 44.4C16.9 44.6 17.2 44.8 17.5 44.8C17.8 44.8 18.1 44.7 18.3 44.4L22.6 39.1C22.8 38.8 22.9 38.5 22.8 38.2L19.9 29.2C23 28.1 23.9 25.6 24.5 24.9C24.6 24.7 24.6 24.6 24.6 24.4C25.8 24.4 26.7 24.3 28.1 24.7C25.9 26.8 24.5 29.8 24.5 33.1C24.5 38.4 28.1 42.9 33 44.4V46H2V31.1Z" fill="url(#paint1_linear_566_2260)"/>
<path d="M29.0998 34L33.2998 38.2C33.4998 38.4 33.7998 38.5 33.9998 38.5C34.1998 38.5 34.4998 38.4 34.6998 38.2L43.4998 29.4C43.8998 29 43.8998 28.4 43.4998 28C43.0998 27.6 42.4998 27.6 42.0998 28L33.9998 36.0999L30.4998 32.5999C30.0998 32.1999 29.4998 32.1999 29.0998 32.5999C28.6998 32.9999 28.6998 33.6 29.0998 34Z" fill="url(#paint2_linear_566_2260)"/>
<defs>
<linearGradient id="paint0_linear_566_2260" x1="23.7674" y1="24.4833" x2="15.2533" y2="-6.43172" gradientUnits="userSpaceOnUse">
<stop stop-color="#4531C6"/>
<stop offset="0.694206" stop-color="#A2D729"/>
</linearGradient>
<linearGradient id="paint1_linear_566_2260" x1="39.8298" y1="52.6927" x2="34.0554" y2="11.1205" gradientUnits="userSpaceOnUse">
<stop stop-color="#4531C6"/>
<stop offset="0.694206" stop-color="#A2D729"/>
</linearGradient>
<linearGradient id="paint2_linear_566_2260" x1="41.2466" y1="40.4125" x2="38.2177" y2="23.6916" gradientUnits="userSpaceOnUse">
<stop stop-color="#4531C6"/>
<stop offset="0.694206" stop-color="#A2D729"/>
</linearGradient>
</defs>
</svg>
