<svg width="50" height="50" viewBox="0 0 50 50" fill="none" xmlns="http://www.w3.org/2000/svg">
<path d="M35.1 26.8C39.6 19.1 33.9 9.5 25.1 9.5C16.3 9.5 10.6 19 15.2 26.9C15.2 26.9 17.8 30.7 19.1 33.2C19.4 33.9 19.6 34.6 19.6 35.3L19.6 41.7C19.6 42.9 20.4 44 21.4 44.4L21.4 46C21.4 47.7 22.7 49 24.4 49L25.8 49C27.5 49 28.8 47.7 28.8 46L28.8 44.5C29.9 44.1 30.6 43 30.6 41.8L30.6 35.4C30.6 34.7 30.8 34 31.1 33.4C32.4 30.7 35 26.9 35.1 26.8ZM26.8 46C26.8 46.6 26.4 47 25.8 47L24.4 47C23.8 47 23.4 46.6 23.4 46L23.4 44.7L26.8 44.7L26.8 46ZM28.7 41.7C28.7 42.2 28.3 42.7 27.7 42.7L22.5 42.7C22 42.7 21.5 42.3 21.5 41.7L21.5 40.5L25.1 40.5C25.7 40.5 26.1 40.1 26.1 39.5C26.1 38.9 25.7 38.5 25.1 38.5L21.5 38.5L21.5 36.3L28.6 36.3L28.6 41.7L28.7 41.7ZM29.3 32.4C29 33 28.8 33.6 28.7 34.3L21.4 34.3C21.3 33.6 21.1 32.9 20.8 32.3C19.5 29.7 16.9 25.9 16.8 25.8C13.1 19.5 17.7 11.5 25.1 11.5C32.4 11.5 37 19.5 33.4 25.7C33.3 25.9 30.6 29.7 29.3 32.4Z" fill="url(#paint0_linear_566_2247)"/>
<path d="M25.1001 6.2C25.7001 6.2 26.1001 5.8 26.1001 5.2L26.1001 2C26.1001 1.4 25.7001 1 25.1001 1C24.5001 1 24.1001 1.4 24.1001 2L24.1001 5.2C24.1001 5.8 24.6001 6.2 25.1001 6.2Z" fill="url(#paint1_linear_566_2247)"/>
<path d="M37.8 11L40 8.7C40.4 8.3 40.4 7.7 40 7.3C39.6 6.9 39 6.9 38.6 7.3L36.3 9.6C35.9 10 35.9 10.6 36.3 11C36.7 11.4 37.4 11.4 37.8 11Z" fill="url(#paint2_linear_566_2247)"/>
<path d="M41.8999 21.3C41.2999 21.3 40.8999 21.7 40.8999 22.3C40.8999 22.9 41.2999 23.3 41.8999 23.3L45.0999 23.3C45.6999 23.3 46.0999 22.9 46.0999 22.3C46.0999 21.7 45.6999 21.3 45.0999 21.3L41.8999 21.3Z" fill="url(#paint3_linear_566_2247)"/>
<path d="M8.0999 21L4.8999 21C4.2999 21 3.8999 21.4 3.8999 22C3.8999 22.6 4.2999 23 4.8999 23L8.0999 23C8.6999 23 9.0999 22.6 9.0999 22C9.0999 21.5 8.5999 21 8.0999 21Z" fill="url(#paint4_linear_566_2247)"/>
<path d="M13.7998 9.39999L11.4998 7.09999C11.0998 6.69999 10.4998 6.69999 10.0998 7.09999C9.6998 7.49999 9.6998 8.09999 10.0998 8.49999L12.3998 10.8C12.7998 11.2 13.3998 11.2 13.7998 10.8C14.1998 10.4 14.1998 9.79999 13.7998 9.39999Z" fill="url(#paint5_linear_566_2247)"/>
<defs>
<linearGradient id="paint0_linear_566_2247" x1="32.7424" y1="55.9948" x2="9.81856" y2="2.69184" gradientUnits="userSpaceOnUse">
<stop stop-color="#4531C6"/>
<stop offset="0.694206" stop-color="#A2D729"/>
</linearGradient>
<linearGradient id="paint1_linear_566_2247" x1="25.7597" y1="7.12083" x2="21.9505" y2="1.29761" gradientUnits="userSpaceOnUse">
<stop stop-color="#4531C6"/>
<stop offset="0.694206" stop-color="#A2D729"/>
</linearGradient>
<linearGradient id="paint2_linear_566_2247" x1="39.5681" y1="12.0615" x2="37.9412" y2="5.59495" gradientUnits="userSpaceOnUse">
<stop stop-color="#4531C6"/>
<stop offset="0.694206" stop-color="#A2D729"/>
</linearGradient>
<linearGradient id="paint3_linear_566_2247" x1="45.2148" y1="23.6542" x2="44.9082" y2="20.4858" gradientUnits="userSpaceOnUse">
<stop stop-color="#4531C6"/>
<stop offset="0.694206" stop-color="#A2D729"/>
</linearGradient>
<linearGradient id="paint4_linear_566_2247" x1="8.2148" y1="23.3542" x2="7.9082" y2="20.1858" gradientUnits="userSpaceOnUse">
<stop stop-color="#4531C6"/>
<stop offset="0.694206" stop-color="#A2D729"/>
</linearGradient>
<linearGradient id="paint5_linear_566_2247" x1="13.3679" y1="11.8614" x2="11.741" y2="5.39493" gradientUnits="userSpaceOnUse">
<stop stop-color="#4531C6"/>
<stop offset="0.694206" stop-color="#A2D729"/>
</linearGradient>
</defs>
</svg>
