<svg width="50" height="50" viewBox="0 0 50 50" fill="none" xmlns="http://www.w3.org/2000/svg">
<g clip-path="url(#clip0_597_1499)">
<path d="M26.2363 23.7646C25.8545 23.3828 25.2363 23.3828 24.8545 23.7646C24.4736 24.1455 24.4736 24.7637 24.8545 25.1455C25.2363 25.5264 25.8545 25.5264 26.2363 25.1455C26.6172 24.7637 26.6172 24.1455 26.2363 23.7646Z" fill="url(#paint0_linear_597_1499)"/>
<path d="M38.6655 11.3349C36.7573 9.42682 33.6682 9.42672 31.7599 11.3349C29.8567 13.2381 29.8566 16.3358 31.7602 18.2406C33.6641 20.1433 36.7618 20.1441 38.6655 18.2404C40.5735 16.3324 40.5739 13.2432 38.6655 11.3349ZM37.2844 16.8592C36.1425 18.0012 34.2838 18.0012 33.1413 16.8594C31.9992 15.7167 31.9991 13.8579 33.1411 12.716C34.2859 11.5712 36.1394 11.571 37.2844 12.716C38.4293 13.8607 38.4295 15.7143 37.2844 16.8592Z" fill="url(#paint1_linear_597_1499)"/>
<path d="M49.714 0.286044C49.5222 0.0943453 49.2605 -0.00956072 48.9884 0.000693163C48.7676 0.0086033 43.5103 0.219931 37.2608 2.42881C32.253 4.19697 28.0789 6.72851 24.8544 9.95312C24.1318 10.6757 23.4287 11.4419 22.7559 12.2379C19.5677 10.3611 17.0128 10.9496 15.3976 11.814C11.6788 13.8042 9.37695 19.2081 9.37695 23.0733C9.37725 23.4682 9.61523 23.8244 9.98008 23.9755C10.1009 24.0255 10.2278 24.0499 10.3536 24.0499C10.6078 24.0499 10.8575 23.9505 11.0443 23.7638C13.0056 21.8026 15.4246 21.9253 16.2148 22.0292L16.5568 22.3712C15.8838 23.9727 15.3416 25.5653 14.9439 27.1142C14.8004 27.6748 14.8488 28.2679 15.0622 28.8105C14.122 29.2438 13.2148 29.88 12.425 30.6699C9.91123 33.1837 9.40078 39.3101 9.38027 39.5697C9.35781 39.8545 9.46113 40.135 9.66318 40.337C9.84707 40.5208 10.0958 40.6231 10.3536 40.6231C10.3792 40.6231 10.4049 40.6221 10.4306 40.62C10.6901 40.5996 16.8167 40.0892 19.3304 37.5754C20.12 36.7859 20.7561 35.8788 21.1894 34.9388C21.7638 35.1647 22.3551 35.1925 22.8867 35.0563C24.4349 34.6587 26.0273 34.1167 27.6291 33.4436L27.9711 33.7856C28.0749 34.5759 28.1975 36.995 26.2364 38.956C25.9572 39.2353 25.8736 39.6553 26.0248 40.0201C26.1758 40.3851 26.5319 40.623 26.9269 40.623C30.7921 40.623 36.1959 38.3211 38.1862 34.6023C39.0505 32.9874 39.639 30.4325 37.7622 27.2441C38.5579 26.5716 39.3242 25.8685 40.047 25.1457C43.2716 21.9211 45.8031 17.7469 47.5712 12.7395C49.7802 6.48974 49.9914 1.23233 49.9993 1.01163C50.0091 0.740633 49.9057 0.477841 49.714 0.286044ZM11.5603 20.9728C12.167 18.037 13.929 14.8154 16.3196 13.5359C17.9172 12.681 19.6634 12.7648 21.52 13.7811C19.9383 15.8614 18.5632 18.1026 17.417 20.4693C17.4024 20.4603 17.2266 20.2393 16.9001 20.1657C16.7658 20.1353 14.1819 19.5796 11.5603 20.9728ZM17.9494 36.1943C16.6066 37.537 13.4567 38.2452 11.4658 38.5344C11.7551 36.5434 12.4634 33.3936 13.806 32.0509C14.558 31.299 15.4299 30.7289 16.3062 30.4078L19.5926 33.6941C19.2715 34.5705 18.7014 35.4423 17.9494 36.1943ZM22.4015 33.1643C22.1189 33.2367 21.7916 33.1304 21.5482 32.8874C20.2848 31.6241 19.7906 31.1298 19.6355 30.9749C19.3512 30.6905 18.6538 29.9931 17.1135 28.4527C16.8699 28.2086 16.7637 27.8814 16.8358 27.5993C17.1486 26.3811 17.5577 25.1313 18.0552 23.8695L26.1308 31.9452C24.8688 32.4427 23.6192 32.8517 22.4015 33.1643ZM36.4644 33.6807C35.1849 36.0712 31.9634 37.8333 29.0277 38.4399C29.9637 36.6785 30.1701 34.4362 29.8281 33.0765C29.7487 32.7607 29.5426 32.6019 29.5311 32.5832C31.8976 31.4371 34.1387 30.062 36.2192 28.4802C37.2355 30.3371 37.3192 32.0834 36.4644 33.6807ZM38.6662 23.7646C37.7862 24.6445 36.8386 25.4946 35.8498 26.2912C33.4726 28.2052 30.8562 29.8265 28.0648 31.1171L18.8832 21.9357C20.1738 19.1441 21.7951 16.5277 23.709 14.1509C24.5062 13.1613 25.3562 12.2137 26.2358 11.3342C29.1289 8.44101 32.8626 6.13847 37.3365 4.48106L45.5193 12.6639C43.862 17.1376 41.5595 20.8714 38.6662 23.7646ZM46.2219 10.6042L39.3961 3.77842C43.115 2.62334 46.3502 2.19083 47.9651 2.03536C47.8095 3.65049 47.3769 6.88574 46.2219 10.6042Z" fill="url(#paint2_linear_597_1499)"/>
<path d="M23.4737 40.3367C23.0921 39.9553 22.4738 39.9555 22.0925 40.3369L19.3308 43.0996C18.9495 43.481 18.9496 44.0994 19.331 44.4806C19.7125 44.8619 20.3309 44.8619 20.7121 44.4804L23.4739 41.7177C23.8551 41.3363 23.855 40.7179 23.4737 40.3367Z" fill="url(#paint3_linear_597_1499)"/>
<path d="M9.6633 26.5263C9.28205 26.1449 8.66379 26.1449 8.28224 26.5261L5.51956 29.2879C5.13811 29.6691 5.13801 30.2875 5.51926 30.6689C5.90041 31.0502 6.51867 31.0506 6.90031 30.6691L9.663 27.9074C10.0444 27.5261 10.0445 26.9078 9.6633 26.5263Z" fill="url(#paint4_linear_597_1499)"/>
<path d="M16.5685 41.7186C16.1873 41.3373 15.5689 41.3373 15.1874 41.7185L8.57223 48.3328C8.19078 48.7141 8.19078 49.3325 8.57213 49.7138C8.95328 50.0952 9.57174 50.0954 9.95318 49.7139L16.5684 43.0997C16.9498 42.7183 16.9498 42.1 16.5685 41.7186Z" fill="url(#paint5_linear_597_1499)"/>
<path d="M8.756 41.7186C8.37475 41.3373 7.7563 41.3373 7.37495 41.7185L0.759728 48.3328C0.378284 48.7141 0.378284 49.3325 0.759631 49.7138C1.14078 50.0952 1.75924 50.0954 2.14068 49.7139L8.7559 43.0997C9.13735 42.7183 9.13735 42.1 8.756 41.7186Z" fill="url(#paint6_linear_597_1499)"/>
<path d="M8.2813 33.4314C7.90005 33.0502 7.28159 33.0502 6.90024 33.4315L0.285998 40.0468C-0.0953489 40.4282 -0.0953489 41.0465 0.286096 41.4279C0.667443 41.8092 1.2858 41.8092 1.66715 41.4278L8.28139 34.8126C8.66274 34.4311 8.66274 33.8129 8.2813 33.4314Z" fill="url(#paint7_linear_597_1499)"/>
<path d="M30.3791 19.621C29.9976 19.2396 29.3795 19.2396 28.9979 19.621L27.6171 21.0018C27.2357 21.3832 27.2357 22.0015 27.6171 22.383C27.9985 22.7643 28.6168 22.7643 28.9982 22.383L30.3791 21.0021C30.7604 20.6208 30.7604 20.0024 30.3791 19.621Z" fill="url(#paint8_linear_597_1499)"/>
</g>
<defs>
<linearGradient id="paint0_linear_597_1499" x1="26.1895" y1="25.777" x2="25.4507" y2="22.8401" gradientUnits="userSpaceOnUse">
<stop stop-color="#4531C6"/>
<stop offset="0.694206" stop-color="#A2D729"/>
</linearGradient>
<linearGradient id="paint1_linear_597_1499" x1="38.4347" y1="21.3969" x2="34.7404" y2="6.71332" gradientUnits="userSpaceOnUse">
<stop stop-color="#4531C6"/>
<stop offset="0.694206" stop-color="#A2D729"/>
</linearGradient>
<linearGradient id="paint2_linear_597_1499" x1="43.0854" y1="47.8167" x2="27.7155" y2="-13.2739" gradientUnits="userSpaceOnUse">
<stop stop-color="#4531C6"/>
<stop offset="0.694206" stop-color="#A2D729"/>
</linearGradient>
<linearGradient id="paint3_linear_597_1499" x1="22.9572" y1="45.6016" x2="21.1727" y2="38.51" gradientUnits="userSpaceOnUse">
<stop stop-color="#4531C6"/>
<stop offset="0.694206" stop-color="#A2D729"/>
</linearGradient>
<linearGradient id="paint4_linear_597_1499" x1="9.14648" y1="31.7899" x2="7.36295" y2="24.6995" gradientUnits="userSpaceOnUse">
<stop stop-color="#4531C6"/>
<stop offset="0.694206" stop-color="#A2D729"/>
</linearGradient>
<linearGradient id="paint5_linear_597_1499" x1="15.3961" y1="51.5171" x2="12.1549" y2="38.633" gradientUnits="userSpaceOnUse">
<stop stop-color="#4531C6"/>
<stop offset="0.694206" stop-color="#A2D729"/>
</linearGradient>
<linearGradient id="paint6_linear_597_1499" x1="7.58355" y1="51.5171" x2="4.34243" y2="38.633" gradientUnits="userSpaceOnUse">
<stop stop-color="#4531C6"/>
<stop offset="0.694206" stop-color="#A2D729"/>
</linearGradient>
<linearGradient id="paint7_linear_597_1499" x1="7.10911" y1="43.2312" x2="3.8669" y2="30.3459" gradientUnits="userSpaceOnUse">
<stop stop-color="#4531C6"/>
<stop offset="0.694206" stop-color="#A2D729"/>
</linearGradient>
<linearGradient id="paint8_linear_597_1499" x1="30.0976" y1="23.2594" x2="28.8362" y2="18.2455" gradientUnits="userSpaceOnUse">
<stop stop-color="#4531C6"/>
<stop offset="0.694206" stop-color="#A2D729"/>
</linearGradient>
<clipPath id="clip0_597_1499">
<rect width="50" height="50" fill="white"/>
</clipPath>
</defs>
</svg>
