<svg width="50" height="50" viewBox="0 0 50 50" fill="none" xmlns="http://www.w3.org/2000/svg">
<g clip-path="url(#clip0_597_1476)">
<path d="M46.2073 34.4078H45.1457V29.2393C45.1457 28.5387 44.8884 27.8972 44.4635 27.4043C44.8884 26.9119 45.1457 26.2709 45.1457 25.571V20.4023H46.2073C48.2986 20.4023 50 18.7025 50 16.6131C50 14.5236 48.2986 12.8238 46.2073 12.8238H45.1457V7.65527C45.1457 6.10752 43.8855 4.84834 42.3365 4.84834H37.1605V3.78926C37.1605 1.6998 35.4592 0 33.3679 0C31.2766 0 29.5752 1.6998 29.5752 3.78926V4.84844H24.3992C23.6893 4.84844 23.04 5.11299 22.545 5.54912C22.0558 5.13604 21.4236 4.88662 20.7344 4.88662H15.5584V3.82744C15.5584 1.73809 13.857 0.0382813 11.7657 0.0382813C9.67441 0.0382813 7.97295 1.73809 7.97295 3.82744V4.88662H2.79688C1.36992 4.88662 0.170312 5.95361 0.00644531 7.36865C0.00214844 7.40586 0 7.44336 0 7.48086V25.8217C0 25.8592 0.00214844 25.8967 0.00644531 25.934C0.0732422 26.5108 0.311719 27.0298 0.66748 27.4425C0.311816 27.8556 0.0733398 28.3751 0.00644531 28.9524C0.00214844 28.9897 0 29.0272 0 29.0648V47.4058C0 47.4433 0.00214844 47.4809 0.00644531 47.5181C0.17041 48.933 1.36992 50 2.79688 50H20.7343C21.4458 50 22.0963 49.7343 22.5918 49.297C23.0821 49.7111 23.7141 49.9617 24.3991 49.9617H28.9427C29.482 49.9617 29.9192 49.5245 29.9192 48.9852C29.9192 48.4458 29.482 48.0086 28.9427 48.0086H24.3991C23.9375 48.0086 23.5551 47.6362 23.5434 47.177V42.0244H24.605C26.6963 42.0244 28.3977 40.3246 28.3977 38.2352C28.3977 36.1457 26.6963 34.4459 24.605 34.4459H23.5434V29.2773C23.5434 29.2644 23.5433 29.2514 23.5431 29.2385C23.5435 28.7652 23.9272 28.3803 24.3991 28.3803H29.5751V29.4369C29.5751 31.5264 31.2765 33.2262 33.3678 33.2262C35.4591 33.2262 37.1604 31.5264 37.1604 29.4369V28.3803H42.3365C42.8085 28.3803 43.1926 28.7655 43.1926 29.2392V35.3843C43.1926 35.9236 43.6298 36.3608 44.1691 36.3608H46.2073C47.2217 36.3608 48.0469 37.1846 48.0469 38.197C48.0469 39.2094 47.2217 40.0331 46.2073 40.0331H44.1691C43.6298 40.0331 43.1926 40.4703 43.1926 41.0097V47.1548C43.1926 47.6256 42.8086 48.0086 42.3365 48.0086H37.772C37.2326 48.0086 36.7954 48.4458 36.7954 48.9852C36.7954 49.5245 37.2326 49.9617 37.772 49.9617H42.3365C43.8854 49.9617 45.1457 48.7025 45.1457 47.1548V41.9862H46.2073C48.2986 41.9862 50 40.2864 50 38.197C50 36.1075 48.2986 34.4078 46.2073 34.4078ZM1.95312 7.54795C2.02246 7.14111 2.37734 6.83975 2.79688 6.83975H8.94951C9.48887 6.83975 9.92607 6.40254 9.92607 5.86318V3.82744C9.92607 2.81504 10.7513 1.99141 11.7656 1.99141C12.78 1.99141 13.6052 2.81504 13.6052 3.82744V5.86318C13.6052 6.40254 14.0424 6.83975 14.5817 6.83975H20.7343C21.2025 6.83975 21.5841 7.2167 21.5901 7.68232L21.5902 13.8387C21.5902 14.378 22.0274 14.8152 22.5668 14.8152H24.605C25.6193 14.8152 26.4445 15.639 26.4445 16.6514C26.4445 17.6638 25.6193 18.4875 24.605 18.4875H22.5668C22.0274 18.4875 21.5902 18.9247 21.5902 19.4641V25.6092C21.5902 26.0813 21.2062 26.4655 20.7342 26.4655H14.5815C14.0422 26.4655 13.605 26.9027 13.605 27.4421V27.4458V29.4752C13.605 30.4876 12.7798 31.3113 11.7654 31.3113C10.7511 31.3113 9.92588 30.4876 9.92588 29.4752V27.4421C9.92588 26.9027 9.48867 26.4655 8.94932 26.4655H2.79688C2.37754 26.4655 2.02256 26.1631 1.95312 25.7549V7.54795ZM24.6051 36.3992C25.6194 36.3992 26.4446 37.2229 26.4446 38.2354C26.4446 39.2478 25.6194 40.0715 24.6051 40.0715H22.5669C22.0275 40.0715 21.5903 40.5087 21.5903 41.048V47.1932C21.5903 47.664 21.2063 48.047 20.7343 48.047H2.79688C2.37734 48.047 2.02246 47.7456 1.95312 47.3388V29.1317C2.02256 28.7222 2.37754 28.4187 2.79688 28.4187H7.97295V29.4753C7.97295 31.5647 9.67432 33.2645 11.7656 33.2645C13.8569 33.2645 15.5583 31.5647 15.5583 29.4753V28.4187H20.7343C21.2025 28.4187 21.5841 28.798 21.5901 29.2663L21.5902 35.4228C21.5902 35.9621 22.0274 36.3993 22.5668 36.3993H24.6051V36.3992ZM43.1926 19.4258V25.5709C43.1926 26.0431 42.8085 26.4272 42.3365 26.4272H36.184C35.6446 26.4272 35.2074 26.8645 35.2074 27.4038V29.437C35.2074 30.4494 34.3822 31.2731 33.3679 31.2731C32.3535 31.2731 31.5283 30.4494 31.5283 29.437V27.4038C31.5283 26.8645 31.0911 26.4272 30.5518 26.4272H24.3992C23.9377 26.4272 23.5553 26.0538 23.5435 25.5933V20.4405H24.6051C26.6964 20.4405 28.3978 18.7407 28.3978 16.6513C28.3978 14.5618 26.6964 12.862 24.6051 12.862H23.5435V7.69346C23.5435 7.68057 23.5434 7.66768 23.5432 7.65479C23.5435 7.18428 23.9273 6.80156 24.3992 6.80156H30.5518C31.0911 6.80156 31.5283 6.36436 31.5283 5.825V3.78926C31.5283 2.77686 32.3535 1.95312 33.3679 1.95312C34.3822 1.95312 35.2074 2.77686 35.2074 3.78926V5.825C35.2074 6.36436 35.6446 6.80156 36.184 6.80156H42.3365C42.8085 6.80156 43.1926 7.18457 43.1926 7.65537V13.8005C43.1926 14.3398 43.6298 14.7771 44.1691 14.7771H46.2073C47.2217 14.7771 48.0469 15.6008 48.0469 16.6132C48.0469 17.6256 47.2217 18.4493 46.2073 18.4493H44.1691C43.6299 18.4492 43.1926 18.8864 43.1926 19.4258Z" fill="url(#paint0_linear_597_1476)"/>
<path d="M33.3749 49.9619C32.9665 49.9619 32.594 49.6972 32.4565 49.3138C32.3189 48.9302 32.4405 48.4897 32.7554 48.2305C33.0746 47.9679 33.5392 47.9372 33.8902 48.1556C34.2391 48.3727 34.4179 48.7975 34.3276 49.1984C34.2286 49.6383 33.8268 49.9619 33.3749 49.9619Z" fill="url(#paint1_linear_597_1476)"/>
</g>
<defs>
<linearGradient id="paint0_linear_597_1476" x1="41.4894" y1="58.8542" x2="22.5717" y2="-16.3378" gradientUnits="userSpaceOnUse">
<stop stop-color="#4531C6"/>
<stop offset="0.694206" stop-color="#A2D729"/>
</linearGradient>
<linearGradient id="paint1_linear_597_1476" x1="34.0188" y1="50.3075" x2="33.2802" y2="47.373" gradientUnits="userSpaceOnUse">
<stop stop-color="#4531C6"/>
<stop offset="0.694206" stop-color="#A2D729"/>
</linearGradient>
<clipPath id="clip0_597_1476">
<rect width="50" height="50" fill="white"/>
</clipPath>
</defs>
</svg>
