<svg width="50" height="50" viewBox="0 0 50 50" fill="none" xmlns="http://www.w3.org/2000/svg">
<path d="M24.3046 28.3876C24.0841 28.3876 23.8687 28.313 23.6945 28.1736L22.0091 26.8253C21.588 26.4884 21.5197 25.8738 21.8566 25.4526C22.1934 25.0315 22.8082 24.9631 23.2293 25.3001L24.0974 25.9945L26.5353 22.4731C26.8424 22.0298 27.4506 21.9193 27.8941 22.2262C28.3376 22.5332 28.4481 23.1415 28.1411 23.5849L25.1075 27.9668C24.9534 28.1893 24.7138 28.338 24.446 28.3771C24.3988 28.3842 24.3515 28.3876 24.3046 28.3876Z" fill="url(#paint0_linear_597_1485)"/>
<path d="M48.9898 15.6626V15.5528C48.9898 13.0367 47.2898 10.9103 44.9782 10.2615C46.0723 9.17314 46.7505 7.66709 46.7505 6.00566C46.7505 2.69414 44.0563 0 40.7448 0C37.4333 0 34.7391 2.69414 34.7391 6.00566C34.7391 6.59434 34.8242 7.16357 34.9828 7.70156C31.969 5.96143 28.5312 5.0291 24.9998 5.0291C21.4666 5.0291 18.0302 5.96113 15.0168 7.70127C15.1754 7.16338 15.2604 6.59434 15.2604 6.00566C15.2605 2.69414 12.5664 0 9.25479 0C5.94316 0 3.24912 2.69414 3.24912 6.00566C3.24912 7.66709 3.92734 9.17314 5.02139 10.2615C2.70967 10.9103 1.00977 13.0367 1.00977 15.5528V15.6626C1.00977 15.9655 1.15029 16.2513 1.39023 16.4361C2.79229 17.5166 4.36514 18.2826 6.03955 18.7107C5.36855 20.7326 5.02891 22.8436 5.02891 25.0001C5.02891 27.3138 5.41982 29.575 6.1915 31.73C4.43105 32.7782 3.24912 34.7007 3.24912 36.8941C3.24912 38.5557 3.92734 40.0617 5.02148 41.1501C2.70977 41.7987 1.00977 43.9253 1.00977 46.4414V46.5512C1.00977 46.8541 1.15029 47.1398 1.39023 47.3247C3.66182 49.0748 6.38135 50 9.25479 50C12.1282 50 14.8477 49.0748 17.1192 47.3246C17.3592 47.1397 17.4997 46.854 17.4997 46.5511V46.4413C17.4997 45.1236 17.0335 43.9128 16.2573 42.9651C18.9575 44.2851 21.9228 44.9709 24.9997 44.9709C28.0776 44.9709 31.0422 44.2854 33.7416 42.9657C32.9657 43.9133 32.4997 45.1239 32.4997 46.4413V46.5511C32.4997 46.854 32.6402 47.1397 32.8802 47.3246C35.1519 49.0748 37.8714 50 40.7448 50C43.6184 50 46.3378 49.0748 48.6094 47.3246C48.8493 47.1397 48.9898 46.854 48.9898 46.5511V46.4413C48.9898 43.9252 47.2898 41.7986 44.9781 41.15C46.0723 40.0616 46.7505 38.5556 46.7505 36.894C46.7505 34.7007 45.5686 32.7781 43.8081 31.7299C44.5798 29.5749 44.9707 27.3137 44.9707 25C44.9707 22.8452 44.631 20.7331 43.9601 18.7106C45.6345 18.2825 47.2073 17.5165 48.6094 16.436C48.8493 16.2513 48.9898 15.9654 48.9898 15.6626ZM40.7448 1.95312C42.9794 1.95312 44.7974 3.77109 44.7974 6.00566C44.7974 8.24023 42.9794 10.0582 40.7448 10.0582C38.5103 10.0582 36.6922 8.24023 36.6922 6.00566C36.6922 3.77109 38.5103 1.95312 40.7448 1.95312ZM9.25479 1.95312C11.4894 1.95312 13.3073 3.77109 13.3073 6.00566C13.3073 8.24023 11.4894 10.0582 9.25479 10.0582C7.02022 10.0582 5.20225 8.24023 5.20225 6.00566C5.20225 3.77109 7.02031 1.95312 9.25479 1.95312ZM6.5043 12.0113H12.0052C13.8332 12.0113 15.3421 13.4034 15.5274 15.1831C13.6849 16.4771 11.5267 17.1585 9.25479 17.1585C6.98291 17.1585 4.82461 16.4771 2.98203 15.1831C3.16748 13.4034 4.67637 12.0113 6.5043 12.0113ZM9.25479 32.8415C11.4894 32.8415 13.3073 34.6595 13.3073 36.894C13.3073 39.1286 11.4894 40.9466 9.25479 40.9466C7.02022 40.9466 5.20225 39.1286 5.20225 36.894C5.20225 34.6595 7.02031 32.8415 9.25479 32.8415ZM9.25479 48.0469C6.98281 48.0469 4.82461 47.3655 2.98203 46.0716C3.16738 44.2918 4.67637 42.8998 6.5043 42.8998H12.0052C13.8332 42.8998 15.3421 44.2919 15.5274 46.0716C13.685 47.3655 11.5268 48.0469 9.25479 48.0469ZM47.0176 46.0716C45.175 47.3655 43.0167 48.0469 40.7448 48.0469C38.4729 48.0469 36.3147 47.3655 34.4722 46.0716C34.6575 44.2918 36.1665 42.8998 37.9944 42.8998H43.4953C45.3232 42.8998 46.8321 44.2919 47.0176 46.0716ZM40.7448 40.9466C38.5103 40.9466 36.6923 39.1286 36.6923 36.894C36.6923 34.6595 38.5103 32.8415 40.7448 32.8415C42.9794 32.8415 44.7974 34.6595 44.7974 36.894C44.7974 39.1286 42.9793 40.9466 40.7448 40.9466ZM43.0176 25C43.0176 27.0689 42.6716 29.0906 41.9885 31.0179C41.5871 30.933 41.171 30.8884 40.7447 30.8884C37.4332 30.8884 34.7391 33.5825 34.7391 36.894C34.7391 37.904 34.9896 38.8564 35.4319 39.6927C32.3756 41.8703 28.7827 43.0178 24.9998 43.0178C21.2186 43.0178 17.6244 41.87 14.5677 39.6926C15.0099 38.8564 15.2604 37.9039 15.2604 36.894C15.2604 33.5825 12.5663 30.8884 9.25479 30.8884C8.82852 30.8884 8.4125 30.933 8.01104 31.0179C7.32803 29.0906 6.98203 27.0689 6.98203 25C6.98203 22.9557 7.31982 20.9574 7.98691 19.0509C8.40547 19.0913 8.82842 19.1116 9.25479 19.1116C12.1283 19.1116 14.8478 18.1864 17.1192 16.4361C17.3592 16.2513 17.4997 15.9655 17.4997 15.6626V15.5528C17.4997 13.3228 16.1643 11.3987 14.2511 10.5385C17.3465 8.23545 21.1081 6.98223 24.9998 6.98223C28.8896 6.98223 32.653 8.23584 35.7484 10.5384C33.8353 11.3986 32.4998 13.3227 32.4998 15.5527V15.6625C32.4998 15.9654 32.6403 16.2512 32.8803 16.436C35.1518 18.1864 37.8712 19.1115 40.7447 19.1115C41.171 19.1115 41.5939 19.0912 42.0125 19.0508C42.6796 20.9578 43.0176 22.9572 43.0176 25ZM40.7448 17.1585C38.4729 17.1585 36.3147 16.4771 34.4722 15.1831C34.6575 13.4033 36.1665 12.0113 37.9944 12.0113H43.4953C45.3233 12.0113 46.8322 13.4034 47.0176 15.1831C45.175 16.4772 43.0167 17.1585 40.7448 17.1585Z" fill="url(#paint1_linear_597_1485)"/>
<path d="M24.9997 35.2716C19.3359 35.2716 14.728 30.6637 14.728 25C14.728 19.3362 19.3359 14.7283 24.9997 14.7283C28.6962 14.7283 32.124 16.7289 33.9457 19.9494C34.2112 20.4189 34.0459 21.0147 33.5766 21.2802C33.107 21.5458 32.5114 21.3804 32.2457 20.9111C30.77 18.3021 27.9935 16.6814 24.9997 16.6814C20.4128 16.6814 16.6812 20.413 16.6812 25C16.6812 29.5869 20.4128 33.3185 24.9997 33.3185C28.094 33.3185 30.9146 31.617 32.361 28.8781C32.6128 28.401 33.2037 28.2187 33.6806 28.4705C34.1575 28.7223 34.34 29.313 34.0882 29.7901C32.3027 33.1712 28.8202 35.2716 24.9997 35.2716Z" fill="url(#paint2_linear_597_1485)"/>
<path d="M34.295 25.879C33.8809 25.879 33.5044 25.6069 33.3711 25.2159C33.2392 24.8286 33.3702 24.3838 33.6944 24.1328C34.0014 23.8951 34.4293 23.861 34.769 24.0492C35.1254 24.2466 35.3256 24.659 35.2587 25.0614C35.1815 25.5262 34.7663 25.879 34.295 25.879Z" fill="url(#paint3_linear_597_1485)"/>
<defs>
<linearGradient id="paint0_linear_597_1485" x1="27.1791" y1="29.5094" x2="24.8899" y2="19.9263" gradientUnits="userSpaceOnUse">
<stop stop-color="#4531C6"/>
<stop offset="0.694206" stop-color="#A2D729"/>
</linearGradient>
<linearGradient id="paint1_linear_597_1485" x1="40.823" y1="58.8542" x2="21.2093" y2="-15.955" gradientUnits="userSpaceOnUse">
<stop stop-color="#4531C6"/>
<stop offset="0.694206" stop-color="#A2D729"/>
</linearGradient>
<linearGradient id="paint2_linear_597_1485" x1="30.8868" y1="38.9095" x2="22.7418" y2="8.22186" gradientUnits="userSpaceOnUse">
<stop stop-color="#4531C6"/>
<stop offset="0.694206" stop-color="#A2D729"/>
</linearGradient>
<linearGradient id="paint3_linear_597_1485" x1="34.9394" y1="26.2244" x2="34.2015" y2="23.2907" gradientUnits="userSpaceOnUse">
<stop stop-color="#4531C6"/>
<stop offset="0.694206" stop-color="#A2D729"/>
</linearGradient>
</defs>
</svg>
