<svg width="50" height="50" viewBox="0 0 50 50" fill="none" xmlns="http://www.w3.org/2000/svg">
<g clip-path="url(#clip0_597_1373)">
<path d="M37.3662 25.7461C36.9584 25.7461 36.5841 25.4814 36.4468 25.0981C36.313 24.7247 36.4235 24.2961 36.7223 24.0346C37.0341 23.7618 37.4951 23.7178 37.854 23.9236C38.2222 24.1346 38.4135 24.578 38.3164 24.9912C38.214 25.4271 37.8149 25.7461 37.3662 25.7461Z" fill="url(#paint0_linear_597_1373)"/>
<path d="M37.3333 35.9396L35.1073 33.7136C36.173 32.4794 37.006 31.0577 37.5619 29.5093C37.7441 29.0017 37.4804 28.4424 36.9728 28.2602C36.4653 28.0783 35.906 28.3416 35.7236 28.8493C35.1812 30.3605 34.329 31.7305 33.2239 32.8818C32.6222 31.0971 31.1539 29.7074 29.3219 29.2156C30.477 28.0896 31.1953 26.5177 31.1953 24.7811C31.1953 21.3651 28.4163 18.5861 25.0004 18.5861C21.5845 18.5861 18.8055 21.3651 18.8055 24.7811C18.8055 26.5177 19.5238 28.0897 20.6789 29.2156C18.8463 29.7075 17.3776 31.0979 16.7763 32.8835C14.7472 30.776 13.6105 27.983 13.6105 25.0006C13.6105 18.7197 18.7199 13.6098 25.0003 13.6098C29.6638 13.6098 33.8089 16.4026 35.5606 20.7248C35.7631 21.2247 36.3327 21.4657 36.8324 21.2631C37.3322 21.0605 37.5732 20.4911 37.3707 19.9913C36.8171 18.6253 36.0482 17.3725 35.0961 16.2724L37.3177 14.0508C38.0179 14.4898 38.8174 14.7094 39.6169 14.7094C40.7254 14.7094 41.8338 14.2875 42.6776 13.4437C44.3652 11.756 44.3652 9.01006 42.6776 7.32227C40.9901 5.63477 38.244 5.63467 36.5563 7.32227C35.1083 8.77031 34.9027 10.9974 35.9395 12.6667L33.7131 14.8931C33.3416 14.573 32.9511 14.2722 32.5428 13.9919C30.5859 12.6485 28.3333 11.8621 25.9765 11.6918V8.5458C27.8944 8.10186 29.3283 6.3794 29.3283 4.32842C29.3284 1.9418 27.3866 0 25 0C22.6134 0 20.6716 1.9418 20.6716 4.32842C20.6716 6.3794 22.1055 8.10176 24.0234 8.5458V11.6922C21.0808 11.9062 18.3997 13.0788 16.2921 14.8984L14.0604 12.6668C15.0972 10.9975 14.8916 8.77051 13.4437 7.32236C11.756 5.63477 9.00986 5.63496 7.32227 7.32236C5.63467 9.01006 5.63467 11.756 7.32227 13.4438C8.16611 14.2876 9.27451 14.7095 10.383 14.7095C11.1825 14.7095 11.982 14.4898 12.6823 14.0509L14.9102 16.2787C13.0869 18.3854 11.9107 21.067 11.6939 24.0109H8.54277C8.09414 22.0993 6.3749 20.6717 4.32842 20.6717C1.9418 20.6716 0 22.6134 0 25C0 27.3866 1.9418 29.3284 4.32842 29.3284C6.38389 29.3284 8.10928 27.8882 8.54863 25.964H11.6915C11.896 28.8563 13.0188 31.5544 14.8909 33.7153L12.6668 35.9396C10.9975 34.9028 8.77031 35.1084 7.32236 36.5563C5.63477 38.244 5.63477 40.9899 7.32236 42.6777C8.16621 43.5216 9.27461 43.9435 10.3831 43.9435C11.4915 43.9435 12.5999 43.5216 13.4438 42.6777C14.8962 41.2252 15.0985 38.9888 14.0509 37.3178L16.2738 35.0947C16.4637 35.2585 16.6587 35.4178 16.859 35.5723C16.8602 35.5731 16.8613 35.5741 16.8625 35.575C18.954 37.1864 21.4125 38.1219 24.0235 38.3086V41.4542C22.1056 41.8981 20.6717 43.6206 20.6717 45.6716C20.6716 48.0582 22.6134 50 25 50C27.3866 50 29.3284 48.0582 29.3284 45.6716C29.3284 43.6206 27.8944 41.8982 25.9766 41.4542V38.3086C28.5879 38.1221 31.0466 37.1865 33.1384 35.575C33.1393 35.5743 33.1401 35.5736 33.141 35.5729C33.3411 35.4187 33.5362 35.2593 33.7265 35.0948L35.9493 37.3177C34.9016 38.9887 35.104 41.225 36.5564 42.6776C37.4003 43.5215 38.5087 43.9434 39.6171 43.9434C40.7256 43.9434 41.834 43.5215 42.6778 42.6776C44.3654 40.9899 44.3654 38.244 42.6778 36.5563C41.2298 35.1084 39.0026 34.9028 37.3333 35.9396ZM37.9374 8.70342C38.4004 8.24033 39.0087 8.00879 39.6169 8.00879C40.2252 8.00879 40.8335 8.24033 41.2965 8.70342C42.2226 9.62949 42.2226 11.1364 41.2965 12.0625C40.3706 12.9887 38.8635 12.9887 37.9374 12.0625C37.0113 11.1364 37.0113 9.62949 37.9374 8.70342ZM22.6247 4.32842C22.6247 3.01865 23.6902 1.95312 25 1.95312C26.3098 1.95312 27.3753 3.01865 27.3753 4.32842C27.3753 5.63818 26.3098 6.70371 25 6.70371C23.6902 6.70371 22.6247 5.63818 22.6247 4.32842ZM8.70342 12.0626C7.77734 11.1365 7.77734 9.62959 8.70342 8.70352C9.16641 8.24043 9.77471 8.00889 10.383 8.00889C10.9913 8.00889 11.5995 8.24043 12.0625 8.70352C12.9886 9.62959 12.9886 11.1365 12.0625 12.0626C11.1364 12.989 9.6293 12.9888 8.70342 12.0626ZM4.32842 27.3753C3.01865 27.3753 1.95312 26.3098 1.95312 25C1.95312 23.6902 3.01865 22.6247 4.32842 22.6247C5.63818 22.6247 6.70371 23.6902 6.70371 25C6.70371 26.3098 5.63818 27.3753 4.32842 27.3753ZM25.0004 20.5393C27.3393 20.5393 29.2422 22.4421 29.2422 24.7811C29.2422 27.12 27.3394 29.0229 25.0004 29.0229C22.6614 29.0229 20.7586 27.12 20.7586 24.7811C20.7586 22.4421 22.6615 20.5393 25.0004 20.5393ZM12.0626 41.2966C11.1365 42.2229 9.62939 42.2228 8.70352 41.2966C7.77744 40.3705 7.77744 38.8636 8.70352 37.9375C9.1665 37.4744 9.7748 37.2429 10.3831 37.2429C10.9914 37.2429 11.5996 37.4744 12.0626 37.9375C12.9887 38.8636 12.9887 40.3705 12.0626 41.2966ZM27.3753 45.6716C27.3753 46.9813 26.3098 48.0469 25 48.0469C23.6902 48.0469 22.6247 46.9813 22.6247 45.6716C22.6247 44.3618 23.6902 43.2963 25 43.2963C26.3098 43.2963 27.3753 44.3618 27.3753 45.6716ZM25.0004 36.3902C22.6281 36.3902 20.375 35.6767 18.4529 34.3216C18.6372 32.4461 20.2233 30.976 22.1464 30.976H27.8542C29.7772 30.976 31.3636 32.4461 31.5478 34.3216C29.6258 35.6767 27.3727 36.3902 25.0004 36.3902ZM41.2966 41.2966C40.3707 42.2228 38.8636 42.2228 37.9375 41.2966C37.0114 40.3705 37.0114 38.8636 37.9375 37.9375C38.4005 37.4744 39.0088 37.2429 39.617 37.2429C40.2253 37.2429 40.8336 37.4744 41.2966 37.9375C42.2227 38.8636 42.2227 40.3705 41.2966 41.2966Z" fill="url(#paint1_linear_597_1373)"/>
<path d="M45.6717 29.3285C43.2851 29.3285 41.3433 27.3867 41.3433 25C41.3433 22.6134 43.2851 20.6716 45.6717 20.6716C48.0583 20.6716 50.0001 22.6134 50.0001 25C50.0001 27.3867 48.0583 29.3285 45.6717 29.3285ZM45.6717 22.6248C44.3619 22.6248 43.2964 23.6903 43.2964 25C43.2964 26.3098 44.3619 27.3753 45.6717 27.3753C46.9814 27.3753 48.047 26.3098 48.047 25C48.047 23.6903 46.9814 22.6248 45.6717 22.6248Z" fill="url(#paint2_linear_597_1373)"/>
</g>
<defs>
<linearGradient id="paint0_linear_597_1373" x1="38.0094" y1="26.0917" x2="37.2711" y2="23.1574" gradientUnits="userSpaceOnUse">
<stop stop-color="#4531C6"/>
<stop offset="0.694206" stop-color="#A2D729"/>
</linearGradient>
<linearGradient id="paint1_linear_597_1373" x1="36.4638" y1="58.8542" x2="15.3099" y2="-15.0417" gradientUnits="userSpaceOnUse">
<stop stop-color="#4531C6"/>
<stop offset="0.694206" stop-color="#A2D729"/>
</linearGradient>
<linearGradient id="paint2_linear_597_1373" x1="48.5266" y1="30.8614" x2="45.2513" y2="17.843" gradientUnits="userSpaceOnUse">
<stop stop-color="#4531C6"/>
<stop offset="0.694206" stop-color="#A2D729"/>
</linearGradient>
<clipPath id="clip0_597_1373">
<rect width="50" height="50" fill="white"/>
</clipPath>
</defs>
</svg>
