<svg width="60" height="60" viewBox="0 0 60 60" fill="none" xmlns="http://www.w3.org/2000/svg">
<g clip-path="url(#clip0_2001_350)">
<path d="M54.5855 10.3605C46.1702 8.03063 38.0969 4.60647 30.5726 0.175736C30.3783 0.0610057 30.1567 0.000488281 29.931 0.000488281C29.7053 0.000488281 29.4838 0.0610057 29.2894 0.175736C21.779 4.63569 13.701 8.06153 5.27419 10.3605C5.00744 10.4337 4.77212 10.5925 4.60443 10.8125C4.43674 11.0325 4.34597 11.3015 4.34607 11.5781V24.4687C4.34607 37.7543 10.4726 46.5445 15.6125 51.58C21.1449 57.0023 27.5902 60 29.9304 60C32.2707 60 38.7195 57.0011 44.2484 51.58C49.3883 46.541 55.5136 37.7519 55.5136 24.4734V11.5781C55.5137 11.3015 55.423 11.0325 55.2553 10.8125C55.0876 10.5925 54.8523 10.4337 54.5855 10.3605ZM52.9906 24.4734C52.9906 36.8765 47.2765 45.0796 42.4824 49.7765C37.0414 55.1074 31.2242 57.4757 29.9304 57.4757C28.6367 57.4757 22.8195 55.1085 17.3785 49.7765C12.5844 45.0796 6.87029 36.8777 6.87029 24.4734V12.539C14.9403 10.2535 22.6886 6.95584 29.9304 2.72456C37.187 6.92657 44.9315 10.2227 52.9906 12.539V24.4734Z" fill="#F18822"/>
<path d="M18.7437 12.395C18.6829 12.2404 18.5922 12.0992 18.4768 11.9797C18.3614 11.8603 18.2235 11.7647 18.0711 11.6986C17.9187 11.6325 17.7547 11.5972 17.5886 11.5946C17.4225 11.5921 17.2575 11.6223 17.1031 11.6836C14.8484 12.5719 12.5328 13.3899 10.2253 14.1141C9.96878 14.1945 9.7446 14.3547 9.58545 14.5714C9.4263 14.7881 9.34051 15.0499 9.34058 15.3188V20.1915C9.34058 20.5262 9.47355 20.8472 9.71024 21.0839C9.94693 21.3206 10.268 21.4536 10.6027 21.4536C10.9374 21.4536 11.2584 21.3206 11.4951 21.0839C11.7318 20.8472 11.8648 20.5262 11.8648 20.1915V16.2399C13.9367 15.5696 16.0062 14.8336 18.0289 14.0309C18.1832 13.9705 18.3242 13.8802 18.4437 13.7653C18.5632 13.6503 18.6588 13.513 18.7252 13.361C18.7916 13.2091 18.8274 13.0456 18.8306 12.8798C18.8337 12.7141 18.8042 12.5493 18.7437 12.395Z" fill="#F18822"/>
<path d="M21.1414 12.6339C21.3156 12.634 21.4879 12.5981 21.6476 12.5284L21.671 12.5179C21.8227 12.4509 21.9597 12.3547 22.0742 12.2349C22.1887 12.115 22.2785 11.9737 22.3384 11.8191C22.3983 11.6646 22.4271 11.4997 22.4233 11.334C22.4195 11.1682 22.3831 11.0049 22.3162 10.8532C22.2492 10.7015 22.1531 10.5646 22.0332 10.4501C21.9133 10.3356 21.772 10.2458 21.6174 10.1859C21.4629 10.126 21.298 10.0971 21.1323 10.1009C20.9665 10.1047 20.8032 10.1411 20.6515 10.2081L20.6316 10.2175C20.3669 10.3345 20.1505 10.5389 20.0186 10.7965C19.8867 11.0541 19.8473 11.3491 19.9071 11.6323C19.9668 11.9154 20.122 12.1695 20.3467 12.3518C20.5714 12.5341 20.852 12.6337 21.1414 12.6339Z" fill="#F18822"/>
<path d="M44.968 40.6967C44.8292 40.6061 44.6739 40.5436 44.5109 40.513C44.348 40.4823 44.1806 40.4841 44.0184 40.5181C43.8561 40.5522 43.7021 40.6179 43.5653 40.7115C43.4284 40.8051 43.3113 40.9247 43.2207 41.0635C42.1556 42.685 40.9392 44.202 39.5879 45.594C38.4638 46.7571 37.2537 47.834 35.968 48.8155C35.7018 49.0184 35.5271 49.3188 35.4824 49.6506C35.4377 49.9823 35.5266 50.3182 35.7295 50.5844C35.9325 50.8506 36.2329 51.0253 36.5646 51.07C36.8963 51.1148 37.2323 51.0259 37.4985 50.8229C38.8875 49.763 40.1947 48.5999 41.409 47.3436C42.8696 45.8366 44.1841 44.1944 45.3348 42.4393C45.5164 42.1594 45.5798 41.8189 45.5111 41.4923C45.4424 41.1657 45.2471 40.8797 44.968 40.6967Z" fill="#F18822"/>
<path d="M33.0429 50.7937L32.9703 50.8359C32.8194 50.9146 32.686 51.023 32.5781 51.1546C32.4702 51.2862 32.3901 51.4382 32.3424 51.6016C32.2948 51.765 32.2807 51.9363 32.301 52.1052C32.3212 52.2742 32.3755 52.4373 32.4604 52.5847C32.5453 52.7322 32.6592 52.8609 32.7951 52.9633C32.9311 53.0656 33.0863 53.1394 33.2515 53.1802C33.4167 53.221 33.5884 53.2279 33.7564 53.2007C33.9243 53.1734 34.0851 53.1124 34.2289 53.0215L34.3121 52.9723C34.4551 52.8885 34.5802 52.7773 34.6803 52.6452C34.7804 52.513 34.8535 52.3624 34.8954 52.202C34.9373 52.0416 34.9472 51.8745 34.9245 51.7103C34.9018 51.5461 34.847 51.388 34.7632 51.2449C34.6794 51.1019 34.5683 50.9767 34.4361 50.8766C34.304 50.7766 34.1534 50.7035 33.993 50.6616C33.8326 50.6197 33.6655 50.6098 33.5013 50.6325C33.3371 50.6551 33.1789 50.7099 33.0359 50.7937H33.0429Z" fill="#F18822"/>
<path d="M21.3277 27.4218C20.558 26.6521 19.5141 26.2197 18.4255 26.2197C17.337 26.2197 16.2931 26.6521 15.5234 27.4218C14.7537 28.1915 14.3213 29.2355 14.3213 30.324C14.3213 31.4125 14.7537 32.4564 15.5234 33.2261L22.9789 40.6804C23.3598 41.0619 23.8122 41.3645 24.3102 41.5709C24.8081 41.7774 25.3419 41.8837 25.881 41.8837C26.4201 41.8837 26.9539 41.7774 27.4519 41.5709C27.9498 41.3645 28.4022 41.0619 28.7832 40.6804L44.3386 25.1226C45.1083 24.3529 45.5407 23.309 45.5407 22.2205C45.5407 21.132 45.1083 20.088 44.3386 19.3183C43.5689 18.5486 42.525 18.1162 41.4365 18.1162C40.348 18.1162 39.304 18.5486 38.5343 19.3183L25.8781 31.9746L21.3277 27.4218ZM40.3226 21.1031C40.4662 20.9434 40.6408 20.8147 40.8359 20.7248C41.0309 20.635 41.2421 20.5858 41.4568 20.5803C41.6715 20.5748 41.885 20.6131 42.0843 20.693C42.2837 20.7728 42.4646 20.8924 42.6162 21.0445C42.7678 21.1966 42.8867 21.378 42.9658 21.5777C43.0449 21.7773 43.0824 21.991 43.0762 22.2056C43.0699 22.4202 43.0199 22.6313 42.9293 22.826C42.8387 23.0207 42.7094 23.1948 42.5492 23.3379L26.9949 38.8957C26.6985 39.1919 26.2965 39.3582 25.8775 39.3582C25.4585 39.3582 25.0565 39.1919 24.7601 38.8957L17.3082 31.4437C17.0118 31.1474 16.8453 30.7454 16.8453 30.3263C16.8453 29.9072 17.0118 29.5053 17.3082 29.2089C17.6045 28.9126 18.0064 28.7461 18.4255 28.7461C18.8446 28.7461 19.2466 28.9126 19.5429 29.2089L24.9851 34.6523C25.2218 34.889 25.5428 35.0219 25.8775 35.0219C26.2122 35.0219 26.5332 34.889 26.7699 34.6523L40.3226 21.1031Z" fill="#F18822"/>
</g>
<defs>
<clipPath id="clip0_2001_350">
<rect width="60" height="60" fill="white"/>
</clipPath>
</defs>
</svg>
