<svg width="24" height="24" viewBox="0 0 24 24" fill="none" xmlns="http://www.w3.org/2000/svg">
<g clip-path="url(#clip0_566_3460)">
<path d="M5.22962 11.4272L8.22509 12.5452L9.38452 16.274C9.45871 16.5128 9.75073 16.6011 9.94456 16.4426L11.6143 15.0815C11.7893 14.9388 12.0386 14.9317 12.2215 15.0645L15.2331 17.251C15.4404 17.4017 15.7342 17.288 15.7862 17.0375L17.9923 6.42551C18.0492 6.15181 17.7802 5.9235 17.5196 6.02428L5.22611 10.7667C4.92273 10.8837 4.92537 11.3133 5.22962 11.4272ZM9.19766 11.9501L15.0519 8.34449C15.1571 8.27988 15.2654 8.42215 15.175 8.50595L10.3436 12.997C10.1738 13.1551 10.0642 13.3667 10.0332 13.5963L9.8686 14.816C9.8468 14.9788 9.61804 14.995 9.57311 14.8373L8.94013 12.6133C8.86764 12.3596 8.97328 12.0887 9.19766 11.9501Z" fill="url(#paint0_linear_566_3460)"/>
<path d="M12 24C5.38306 24 0 18.6169 0 12C0 5.38305 5.38306 0 12 0C18.6169 0 24 5.38305 24 12C24 18.6169 18.6166 24 12 24ZM12 0.92328C5.89208 0.92328 0.922948 5.8924 0.922948 12.0003C0.922948 18.1083 5.89208 23.0774 12 23.0774C18.1079 23.0774 23.0771 18.1083 23.0771 12.0003C23.0767 5.8924 18.1079 0.92328 12 0.92328Z" fill="url(#paint1_linear_566_3460)"/>
</g>
<defs>
<linearGradient id="paint0_linear_566_3460" x1="10.3236" y1="0.881792" x2="11.7302" y2="18.5497" gradientUnits="userSpaceOnUse">
<stop stop-color="#80FF00"/>
<stop offset="1" stop-color="#67891A"/>
</linearGradient>
<linearGradient id="paint1_linear_566_3460" x1="9.8281" y1="-10.8526" x2="13.2469" y2="26.5351" gradientUnits="userSpaceOnUse">
<stop stop-color="#80FF00"/>
<stop offset="1" stop-color="#67891A"/>
</linearGradient>
<clipPath id="clip0_566_3460">
<rect width="24" height="24" fill="white"/>
</clipPath>
</defs>
</svg>
