<svg width="60" height="60" viewBox="0 0 60 60" fill="none" xmlns="http://www.w3.org/2000/svg">
<path d="M0 60L4.2196 44.5938C1.61278 40.0743 0.243507 34.9474 0.249805 29.73C0.256676 13.3367 13.5974 0 29.9911 0C37.9465 0.00404215 45.4135 3.09992 51.0293 8.71972C56.645 14.3395 59.7348 21.8094 59.732 29.7538C59.7247 46.1459 46.382 59.485 29.9907 59.485H29.9778C25.0007 59.483 20.1101 58.2344 15.766 55.8657L0 60Z" fill="#EEEEEE"/>
<path d="M30.0001 5.02235C16.3647 5.02235 5.27587 16.1071 5.27102 29.732C5.26431 34.3845 6.57446 38.9439 9.05002 42.8831L9.63816 43.8181L7.14051 52.9363L16.4965 50.4832L17.3999 51.0183C21.1942 53.2702 25.5448 54.461 29.9815 54.4635H29.9908C43.6156 54.4635 54.7044 43.3775 54.7097 29.7518C54.72 26.5042 54.086 23.2868 52.8443 20.2858C51.6027 17.2849 49.7782 14.5601 47.4763 12.2691C45.1872 9.9656 42.4639 8.13902 39.4641 6.89511C36.4643 5.6512 33.2475 5.01466 30.0001 5.02235Z" fill="url(#paint0_linear_3_65)"/>
<path fill-rule="evenodd" clip-rule="evenodd" d="M22.5577 17.3008C22.0007 16.0635 21.4146 16.0384 20.8855 16.017L19.461 15.9996C18.9654 15.9996 18.1602 16.1855 17.4795 16.9293C16.7988 17.6731 14.8784 19.4706 14.8784 23.1267C14.8784 26.7828 17.5414 30.3157 17.9125 30.812C18.2835 31.3084 23.0533 39.0503 30.6068 42.029C36.8839 44.5044 38.1612 44.0121 39.5242 43.8884C40.8872 43.7647 43.9208 42.0908 44.5397 40.3556C45.1585 38.6203 45.1589 37.1336 44.9734 36.8227C44.7879 36.5119 44.2923 36.3272 43.5486 35.9553C42.8048 35.5834 39.1519 33.7859 38.4708 33.5377C37.7897 33.2895 37.2945 33.1662 36.7986 33.9099C36.3026 34.6537 34.8802 36.3267 34.4464 36.8227C34.0127 37.3187 33.5798 37.3809 32.8361 37.0095C32.0923 36.638 29.6994 35.853 26.8601 33.3214C24.6511 31.3517 23.16 28.9191 22.7258 28.1758C22.2917 27.4324 22.6798 27.0298 23.0524 26.6595C23.3859 26.3265 23.7954 25.7917 24.1677 25.358C24.54 24.9243 24.6624 24.6142 24.9098 24.1191C25.1572 23.6239 25.0339 23.189 24.848 22.8175C24.662 22.446 23.2182 18.7705 22.5577 17.3008Z" fill="white"/>
<defs>
<linearGradient id="paint0_linear_3_65" x1="29.4871" y1="7.98928" x2="29.7377" y2="50.2398" gradientUnits="userSpaceOnUse">
<stop stop-color="#57D163"/>
<stop offset="1" stop-color="#23B33A"/>
</linearGradient>
</defs>
</svg>
