<svg width="60" height="60" viewBox="0 0 60 60" fill="none" xmlns="http://www.w3.org/2000/svg">
<g clip-path="url(#clip0_15_362)">
<path d="M50.3124 7.94995C50.2874 7.91245 50.2499 7.87495 50.2249 7.84995C47.7249 5.56245 44.8499 3.71245 41.7249 2.38745L41.5499 2.31245C41.1874 2.16245 40.8124 2.01245 40.4374 1.87495L40.0999 1.74995C39.7749 1.63745 39.4499 1.52495 39.1249 1.41245C38.9749 1.36245 38.8249 1.31245 38.6624 1.27495C38.3749 1.18745 38.0749 1.09995 37.7874 1.02495C37.5999 0.974951 37.4249 0.924951 37.2374 0.887451C36.9624 0.824951 36.6874 0.762451 36.4124 0.699951C36.2124 0.662451 36.0124 0.612451 35.7999 0.574951C35.5374 0.524951 35.2624 0.474951 34.9999 0.437451C34.7874 0.399951 34.5749 0.362451 34.3624 0.337451C34.0874 0.299951 33.8124 0.262451 33.5374 0.237451C33.3249 0.212451 33.1249 0.187451 32.9124 0.162451C32.6124 0.137451 32.2874 0.112451 31.9874 0.087451C31.8124 0.074951 31.6374 0.0624511 31.4624 0.0499511C30.9749 0.0249511 30.4874 0.0124512 29.9874 0.0124512C29.4874 0.0124512 28.9999 0.0249511 28.5124 0.0499511C28.3374 0.0624511 28.1624 0.074951 27.9874 0.087451C27.6749 0.112451 27.3749 0.124951 27.0624 0.162451C26.8499 0.187451 26.6499 0.212451 26.4374 0.237451C26.1624 0.274951 25.8874 0.299951 25.6124 0.337451C25.3999 0.362451 25.1874 0.399951 24.9749 0.437451C24.7124 0.487451 24.4374 0.524951 24.1749 0.574951C23.9749 0.612451 23.7624 0.662451 23.5624 0.699951C23.2874 0.762451 23.0124 0.824951 22.7374 0.887451C22.5499 0.937451 22.3749 0.987451 22.1874 1.02495C21.8874 1.09995 21.5999 1.18745 21.3124 1.27495C21.1624 1.32495 20.9999 1.37495 20.8499 1.41245C20.5249 1.51245 20.1999 1.62495 19.8749 1.74995L19.5374 1.87495C19.1624 2.01245 18.7874 2.16245 18.4249 2.31245L18.2499 2.38745C15.1249 3.71245 12.2499 5.56245 9.74993 7.84995C9.71243 7.88745 9.68743 7.91245 9.66243 7.94995C-2.51257 19.1375 -3.32507 38.075 7.86243 50.2625C8.43743 50.8875 9.03743 51.4875 9.66243 52.0625C9.68743 52.1 9.72493 52.1375 9.74993 52.1625C12.2499 54.45 15.1249 56.3 18.2499 57.6125L18.4249 57.6875C18.7874 57.8375 19.1624 57.9875 19.5374 58.125L19.8749 58.25C20.1999 58.3625 20.5249 58.475 20.8499 58.5875C20.9999 58.6375 21.1499 58.6874 21.3124 58.7249C21.5999 58.8124 21.8999 58.8999 22.1874 58.9749C22.3749 59.0249 22.5499 59.075 22.7374 59.1125C23.0124 59.175 23.2874 59.2375 23.5624 59.3C23.7624 59.35 23.9624 59.3875 24.1749 59.425C24.4374 59.475 24.7124 59.525 24.9749 59.5625C25.1874 59.6 25.3999 59.6374 25.6124 59.6624C25.8874 59.6999 26.1624 59.7375 26.4374 59.7625C26.6499 59.7875 26.8499 59.8125 27.0624 59.8375C27.3749 59.8625 27.6749 59.8874 27.9874 59.9124C28.1624 59.9249 28.3374 59.9375 28.5124 59.95C28.9999 59.975 29.4874 59.9875 29.9874 59.9875C30.4874 59.9875 30.9749 59.975 31.4624 59.95C31.6374 59.9375 31.8124 59.9249 31.9874 59.9124C32.2999 59.8874 32.5999 59.875 32.9124 59.8375C33.1249 59.8125 33.3249 59.7875 33.5374 59.7625C33.8124 59.725 34.0874 59.6999 34.3624 59.6624C34.5749 59.6374 34.7874 59.6 34.9999 59.5625C35.2624 59.5125 35.5374 59.475 35.7999 59.425C35.9999 59.3875 36.2124 59.3375 36.4124 59.3C36.6874 59.2375 36.9624 59.175 37.2374 59.1125C37.4249 59.0625 37.5999 59.0124 37.7874 58.9749C38.0874 58.8999 38.3749 58.8124 38.6624 58.7249C38.8124 58.6749 38.9749 58.625 39.1249 58.5875C39.4499 58.4875 39.7749 58.375 40.0999 58.25L40.4374 58.125C40.8124 57.9875 41.1874 57.8375 41.5499 57.6875L41.7249 57.6125C44.8499 56.2875 47.7249 54.4375 50.2249 52.15C50.2624 52.1125 50.2874 52.0875 50.3124 52.05C62.4874 40.8625 63.2999 21.925 52.1124 9.73745C51.5249 9.11245 50.9249 8.51245 50.3124 7.94995ZM50.9874 29C50.8249 22.1125 49.0374 15.8125 46.1499 10.85C47.2624 10.5125 48.3124 10.15 49.2999 9.74995C54.5999 14.7875 57.7124 21.7 57.9749 29H50.9874ZM47.1624 52.1C46.8499 52.35 46.5249 52.5875 46.1999 52.825C45.8999 53.0375 45.5999 53.25 45.2874 53.45C44.8999 53.7 44.4999 53.95 44.1124 54.1875C43.8874 54.3125 43.6749 54.45 43.4499 54.575C42.9249 54.8625 42.3999 55.125 41.8749 55.375C41.6749 55.4625 41.4874 55.5625 41.2874 55.6375C41.0624 55.7375 40.8249 55.825 40.5874 55.9125C42.2999 54.4625 43.7999 52.7875 45.0499 50.925C45.9499 51.175 46.8249 51.4375 47.6499 51.7375C47.4749 51.85 47.3124 51.975 47.1624 52.1ZM18.1374 55.35C17.5999 55.1 17.0749 54.8375 16.5624 54.55C16.3374 54.425 16.1249 54.3 15.8999 54.1625C15.4999 53.925 15.1124 53.6875 14.7249 53.425C14.4124 53.225 14.1124 53.0125 13.8124 52.8C13.4874 52.5625 13.1624 52.325 12.8499 52.075C12.6999 51.95 12.5374 51.8375 12.3874 51.7125C13.2124 51.4125 14.0874 51.15 14.9874 50.9C16.2374 52.7625 17.7374 54.4375 19.4499 55.8875C19.2124 55.7875 18.9874 55.7125 18.7499 55.6125C18.5374 55.5375 18.3374 55.45 18.1374 55.35ZM28.9999 57.95H28.9499C24.3374 57.575 20.1749 54.775 17.0124 50.4C20.6624 49.5625 24.7749 49.0875 29.0124 49.0125L28.9999 57.95ZM31.0499 57.95H30.9999V49.0125C35.2374 49.075 39.3499 49.5625 42.9999 50.4C39.8374 54.775 35.6624 57.575 31.0499 57.95ZM29.9999 47C24.9124 47 20.0624 47.575 15.8249 48.625C12.8249 43.675 10.9999 37.15 10.9999 30C10.9999 22.85 12.8249 16.3375 15.8249 11.375C20.0624 12.425 24.9124 13 29.9999 13C35.0874 13 39.9374 12.425 44.1749 11.375C47.1749 16.325 48.9999 22.85 48.9999 30C48.9999 37.15 47.1749 43.6625 44.1749 48.625C39.9374 47.5625 35.0874 47 29.9999 47ZM12.8374 7.89995C13.1499 7.64995 13.4749 7.41245 13.7999 7.17495C14.0999 6.96245 14.3999 6.74995 14.7124 6.54995C15.0999 6.29995 15.4874 6.06245 15.8874 5.82495C16.1124 5.69995 16.3249 5.56245 16.5499 5.43745C17.0749 5.14995 17.5999 4.88745 18.1249 4.63745C18.3249 4.54995 18.5124 4.46245 18.7124 4.37495C18.9374 4.27495 19.1749 4.18745 19.4124 4.09995C17.6999 5.54995 16.1999 7.22495 14.9499 9.08745C14.0499 8.83745 13.1749 8.56245 12.3499 8.27495C12.5249 8.13745 12.6874 8.01245 12.8374 7.89995ZM41.8624 4.63745C42.3999 4.88745 42.9249 5.14995 43.4374 5.43745C43.6624 5.56245 43.8749 5.68745 44.0999 5.82495C44.4999 6.06245 44.8874 6.29995 45.2749 6.54995C45.5874 6.74995 45.8874 6.96245 46.1874 7.17495C46.5124 7.41245 46.8374 7.64995 47.1499 7.89995C47.2999 8.02495 47.4624 8.13745 47.6124 8.26245C46.7999 8.56245 45.9124 8.82495 45.0124 9.07495C43.7624 7.21245 42.2624 5.53745 40.5499 4.08745C40.7874 4.18745 41.0124 4.26245 41.2499 4.36245C41.4624 4.46245 41.6624 4.54995 41.8624 4.63745ZM30.9999 2.03745H31.0499C35.6624 2.41245 39.8249 5.21245 42.9874 9.58745C39.3374 10.425 35.2249 10.9 30.9874 10.975L30.9999 2.03745ZM28.9499 2.03745H28.9999V10.975C24.7624 10.9125 20.6499 10.425 16.9999 9.58745C20.1624 5.22495 24.3374 2.41245 28.9499 2.03745ZM10.6999 9.74995C11.6999 10.15 12.7499 10.5125 13.8499 10.85C10.9624 15.8125 9.17493 22.1125 9.01243 29H2.01243C2.27493 21.6875 5.39993 14.775 10.6999 9.74995ZM2.02493 31H9.01243C9.17493 37.8875 10.9624 44.1875 13.8499 49.15C12.7374 49.4875 11.6874 49.85 10.6999 50.25C5.39993 45.2125 2.28743 38.3 2.02493 31ZM49.2999 50.25C48.2999 49.85 47.2499 49.4875 46.1499 49.15C49.0374 44.1875 50.8249 37.8875 50.9874 31H57.9749C57.7124 38.3 54.5999 45.2125 49.2999 50.25Z" fill="#F18822"/>
<path d="M39.025 44.1251C39.0125 44.1251 39 44.1251 38.9875 44.1251H21.0125C20.7375 44.1376 20.475 44.0376 20.275 43.8626C20.0625 43.6751 19.9375 43.4251 19.925 43.1376C19.925 43.1001 19.925 43.0626 19.925 43.0376V16.9626C19.9 16.4001 20.3375 15.9126 20.9125 15.8751C20.95 15.8751 20.9875 15.8751 21.0125 15.8751H38.9875C39.2625 15.8626 39.525 15.9626 39.725 16.1376C39.9375 16.3251 40.0625 16.5751 40.075 16.8626C40.075 16.9001 40.075 16.9376 40.075 16.9626V43.0376C40.0875 43.3126 39.9875 43.5751 39.8125 43.7751C39.625 43.9876 39.375 44.1126 39.0875 44.1251C39.075 44.1251 39.05 44.1251 39.025 44.1251ZM21.175 42.8751H38.825V17.1251H21.175V42.8751Z" fill="#F18822"/>
<path d="M35.425 32.8749C35.4125 32.8749 35.4 32.8749 35.3875 32.8749H33.6125C33.3375 32.8874 33.075 32.7874 32.875 32.6124C32.6625 32.4249 32.5375 32.1749 32.525 31.8874C32.525 31.8499 32.525 31.8124 32.525 31.7874V30.0124C32.5125 29.7374 32.6125 29.4749 32.7875 29.2749C32.975 29.0624 33.225 28.9374 33.5125 28.9249C33.55 28.9249 33.5875 28.9249 33.6125 28.9249H35.3875C35.6625 28.9124 35.925 29.0124 36.125 29.1874C36.3375 29.3749 36.4625 29.6249 36.475 29.9124C36.475 29.9499 36.475 29.9874 36.475 30.0124V31.7874C36.4875 32.0624 36.3875 32.3249 36.2125 32.5249C36.025 32.7374 35.775 32.8624 35.4875 32.8749C35.475 32.8749 35.45 32.8749 35.425 32.8749ZM33.775 31.6249H35.225V30.1749H33.775V31.6249Z" fill="#F18822"/>
</g>
<defs>
<clipPath id="clip0_15_362">
<rect width="60" height="60" fill="white"/>
</clipPath>
</defs>
</svg>
