<svg width="60" height="60" viewBox="0 0 60 60" fill="none" xmlns="http://www.w3.org/2000/svg">
<g clip-path="url(#clip0_2001_447)">
<path d="M21.5729 3.88232H19.5503V10.2358H21.5729V3.88232Z" fill="#F18822"/>
<path d="M21.5729 11.647H19.5503V14.4703H21.5729V11.647Z" fill="#F18822"/>
<path d="M28.9886 60.0012H27.9773C22.3264 60.0075 16.8065 58.2201 12.1455 54.8748C7.48454 51.5295 3.90151 46.7834 1.86901 41.2626C-0.163488 35.7418 -0.549978 29.7056 0.760517 23.9501C2.07101 18.1947 5.01693 12.9903 9.20972 9.0235L0.592921 0H25.6183V26.203L16.8503 17.0224C14.9469 18.7018 13.4173 20.7969 12.3689 23.1607C11.3204 25.5245 10.7786 28.0999 10.7812 30.7061C10.7812 40.6315 18.4933 48.7065 27.9726 48.7065H28.9839L28.9886 60.0012ZM5.47495 2.11783L12.1875 9.14743L11.3402 9.88977C7.31572 13.4077 4.4041 18.1202 2.98931 23.4059C1.57451 28.6915 1.72298 34.302 3.41514 39.4975C5.1073 44.693 8.26367 49.2295 12.468 52.5087C16.6724 55.788 21.7272 57.6559 26.966 57.8662V50.7986C16.8398 50.2452 8.76323 41.4462 8.76323 30.7086C8.76323 24.4361 11.5113 18.6249 16.3042 14.7635L17.0074 14.1966L23.5945 21.0937V2.11783H5.47495Z" fill="#F18822"/>
<path d="M21.5729 3.88232H19.5503V10.2358H21.5729V3.88232Z" fill="#F18822"/>
<path d="M21.5729 11.647H19.5503V14.4703H21.5729V11.647Z" fill="#F18822"/>
<path d="M40.4494 49.7642H38.4268V56.1177H40.4494V49.7642Z" fill="#F18822"/>
<path d="M40.4494 45.5298H38.4268V48.3532H40.4494V45.5298Z" fill="#F18822"/>
<path d="M59.4069 60.0012H34.3815V33.797L43.1495 42.9776C45.053 41.2982 46.5826 39.2031 47.631 36.8393C48.6794 34.4755 49.2213 31.9001 49.2187 29.2939C49.2187 19.3685 41.5019 11.2886 32.0226 11.2886H31.0112V1.49418e-05H32.0226C37.6732 -0.00596233 43.1928 1.78154 47.8535 5.12678C52.5142 8.47202 56.097 13.2179 58.1295 18.7384C60.1619 24.2589 60.5485 30.2949 59.2383 36.0501C57.928 41.8054 54.9825 47.0096 50.7901 50.9765L59.4069 60.0012ZM36.4042 57.8822H54.5249L47.8124 50.8526L48.6608 50.1102C52.6853 46.5923 55.5969 41.8798 57.0117 36.5941C58.4265 31.3085 58.278 25.698 56.5859 20.5025C54.8937 15.307 51.7374 10.7705 47.533 7.49128C43.3287 4.21206 38.2738 2.34413 33.0351 2.1338V9.20266C43.1612 9.75604 51.2378 18.555 51.2378 29.2926C51.2378 35.5652 48.4897 41.3763 43.6968 45.2377L42.9937 45.8046L36.4042 38.9088V57.8822Z" fill="#F18822"/>
<path d="M40.4494 49.7642H38.4268V56.1177H40.4494V49.7642Z" fill="#F18822"/>
<path d="M40.4494 45.5298H38.4268V48.3532H40.4494V45.5298Z" fill="#F18822"/>
</g>
<defs>
<clipPath id="clip0_2001_447">
<rect width="60" height="60" fill="white"/>
</clipPath>
</defs>
</svg>
