<svg width="60" height="60" viewBox="0 0 60 60" fill="none" xmlns="http://www.w3.org/2000/svg">
<path d="M30.0001 8.88623C18.7471 8.88623 9.59694 17.3619 9.59694 27.7783C9.59219 31.6176 10.8539 35.3666 13.2134 38.5237C15.5728 41.6808 18.9173 44.0954 22.7993 45.4443V55.5565C22.7999 55.8514 22.9267 56.134 23.1519 56.3425C23.377 56.5511 23.6823 56.6684 24.0008 56.669H25.2022V58.8876C25.2013 59.034 25.2318 59.179 25.2918 59.3143C25.3519 59.4497 25.4403 59.5727 25.5521 59.6761C25.6638 59.7796 25.7966 59.8615 25.9428 59.9171C26.089 59.9727 26.2456 60.0009 26.4037 60.0001H33.5976C33.7556 60.0009 33.9123 59.9727 34.0585 59.9171C34.2046 59.8615 34.3374 59.7796 34.4492 59.6761C34.5609 59.5727 34.6494 59.4497 34.7095 59.3143C34.7695 59.179 34.8 59.034 34.7991 58.8876V56.669H36.0005C36.319 56.6684 36.6242 56.5511 36.8494 56.3425C37.0746 56.134 37.2014 55.8514 37.202 55.5565V45.4443C41.0838 44.0952 44.4281 41.6806 46.7873 38.5235C49.1465 35.3664 50.4081 31.6175 50.4032 27.7783C50.4032 17.3587 41.2496 8.88623 30.0001 8.88623ZM33.5976 54.444C33.2801 54.4452 32.976 54.563 32.7522 54.7716C32.5284 54.9802 32.4032 55.2625 32.4041 55.5565V57.7815H27.5972V55.5565C27.5981 55.2625 27.4729 54.9802 27.2491 54.7716C27.0253 54.563 26.7212 54.4452 26.4037 54.444H25.2022V48.889H34.7991V54.4451L33.5976 54.444ZM35.6254 43.6035C35.3853 43.6757 35.1761 43.8164 35.0277 44.0054C34.8792 44.1945 34.7992 44.4222 34.7991 44.6559V46.6693H25.2022V44.657C25.2021 44.4233 25.1221 44.1956 24.9736 44.0065C24.8252 43.8174 24.6159 43.6767 24.3759 43.6045C20.7739 42.5124 17.6371 40.3935 15.4143 37.551C13.1914 34.7084 11.9963 31.2878 11.9998 27.7783C11.9998 18.588 20.0702 11.1112 30.0001 11.1112C39.93 11.1112 48.0003 18.5838 48.0003 27.7783C48.0042 31.2878 46.8093 34.7086 44.5867 37.5514C42.364 40.3941 39.2274 42.5132 35.6254 43.6056V43.6035Z" fill="#F18822"/>
<path d="M30 6.66854C30.3185 6.66798 30.6237 6.5506 30.8489 6.34209C31.0741 6.13358 31.2009 5.85094 31.2015 5.55606V1.11248C31.2015 0.817429 31.0749 0.534466 30.8496 0.325836C30.6243 0.117207 30.3187 0 30 0C29.6814 0 29.3758 0.117207 29.1505 0.325836C28.9252 0.534466 28.7986 0.817429 28.7986 1.11248V5.55606C28.7992 5.85094 28.926 6.13358 29.1511 6.34209C29.3763 6.5506 29.6816 6.66798 30 6.66854Z" fill="#F18822"/>
<path d="M58.7986 26.6658H54.0008C53.6821 26.6658 53.3765 26.783 53.1512 26.9916C52.9259 27.2002 52.7993 27.4832 52.7993 27.7782C52.7993 28.0733 52.9259 28.3563 53.1512 28.5649C53.3765 28.7735 53.6821 28.8907 54.0008 28.8907H58.7998C59.1184 28.8907 59.424 28.7735 59.6493 28.5649C59.8746 28.3563 60.0012 28.0733 60.0012 27.7782C60.0012 27.4832 59.8746 27.2002 59.6493 26.9916C59.424 26.783 59.1184 26.6658 58.7998 26.6658H58.7986Z" fill="#F18822"/>
<path d="M6.00045 26.6658H1.20145C0.882809 26.6658 0.577215 26.783 0.351898 26.9916C0.126581 27.2002 0 27.4832 0 27.7782C0 28.0733 0.126581 28.3563 0.351898 28.5649C0.577215 28.7735 0.882809 28.8907 1.20145 28.8907H6.00045C6.3191 28.8907 6.6247 28.7735 6.85001 28.5649C7.07533 28.3563 7.20191 28.0733 7.20191 27.7782C7.20191 27.4832 7.07533 27.2002 6.85001 26.9916C6.6247 26.783 6.3191 26.6658 6.00045 26.6658Z" fill="#F18822"/>
<path d="M49.5189 8.13779L46.1259 11.2795C46.0147 11.3824 45.9265 11.5047 45.8663 11.6392C45.8061 11.7737 45.7751 11.9179 45.7751 12.0636C45.7751 12.2092 45.8061 12.3534 45.8663 12.4879C45.9265 12.6224 46.0147 12.7447 46.1259 12.8477C46.2371 12.9506 46.3691 13.0323 46.5144 13.088C46.6597 13.1438 46.8155 13.1724 46.9727 13.1724C47.13 13.1724 47.2857 13.1438 47.431 13.088C47.5763 13.0323 47.7083 12.9506 47.8195 12.8477L51.2125 9.70599C51.4268 9.49612 51.5443 9.21712 51.5399 8.9283C51.5356 8.63948 51.4097 8.36363 51.1892 8.15938C50.9686 7.95514 50.6707 7.83861 50.3587 7.83458C50.0468 7.83055 49.7455 7.93933 49.5189 8.13779Z" fill="#F18822"/>
<path d="M12.1816 42.7098L8.7887 45.8515C8.67234 45.9533 8.57923 46.0758 8.51486 46.2116C8.45049 46.3474 8.41617 46.4937 8.41394 46.642C8.4117 46.7902 8.44159 46.9374 8.50184 47.0748C8.56209 47.2122 8.65148 47.337 8.76472 47.4419C8.87796 47.5467 9.01275 47.6295 9.16113 47.6853C9.30951 47.7411 9.46846 47.7687 9.62859 47.7667C9.78872 47.7646 9.94677 47.7328 10.0934 47.6732C10.2401 47.6136 10.3723 47.5274 10.4823 47.4197L13.8753 44.278C13.9865 44.175 14.0747 44.0528 14.1349 43.9182C14.1951 43.7837 14.226 43.6395 14.226 43.4939C14.226 43.3483 14.1951 43.2041 14.1349 43.0695C14.0747 42.935 13.9865 42.8128 13.8753 42.7098C13.7641 42.6068 13.632 42.5251 13.4868 42.4694C13.3415 42.4137 13.1857 42.385 13.0285 42.385C12.8712 42.385 12.7155 42.4137 12.5702 42.4694C12.4249 42.5251 12.2928 42.6068 12.1816 42.7098Z" fill="#F18822"/>
<path d="M47.8183 42.7098C47.5937 42.5018 47.2891 42.385 46.9715 42.385C46.6539 42.385 46.3493 42.5018 46.1247 42.7098C45.9001 42.9177 45.7739 43.1998 45.7739 43.4939C45.7739 43.788 45.9001 44.07 46.1247 44.278L49.5176 47.4197C49.6288 47.5226 49.7609 47.6043 49.9062 47.66C50.0515 47.7158 50.2072 47.7444 50.3644 47.7444C50.5217 47.7444 50.6774 47.7158 50.8227 47.66C50.968 47.6043 51.1001 47.5226 51.2113 47.4197C51.3225 47.3167 51.4107 47.1944 51.4709 47.0599C51.5311 46.9254 51.562 46.7812 51.562 46.6356C51.562 46.4899 51.5311 46.3457 51.4709 46.2112C51.4107 46.0767 51.3225 45.9544 51.2113 45.8515L47.8183 42.7098Z" fill="#F18822"/>
<path d="M12.1817 12.8477C12.2929 12.9506 12.4249 13.0323 12.5702 13.088C12.7155 13.1438 12.8713 13.1724 13.0285 13.1724C13.1858 13.1724 13.3415 13.1438 13.4868 13.088C13.6321 13.0323 13.7641 12.9506 13.8753 12.8477C13.9865 12.7447 14.0748 12.6224 14.1349 12.4879C14.1951 12.3534 14.2261 12.2092 14.2261 12.0636C14.2261 11.9179 14.1951 11.7737 14.1349 11.6392C14.0748 11.5047 13.9865 11.3824 13.8753 11.2795L10.4824 8.13779C10.2557 7.93933 9.95442 7.83055 9.6425 7.83458C9.33058 7.83861 9.03266 7.95514 8.81208 8.15938C8.5915 8.36363 8.46565 8.63948 8.4613 8.9283C8.45694 9.21712 8.57442 9.49612 8.78876 9.70599L12.1817 12.8477Z" fill="#F18822"/>
<path d="M30.0001 14.4421C22.0605 14.4421 15.5974 20.4266 15.5974 27.7782C15.5974 28.0732 15.724 28.3562 15.9493 28.5648C16.1746 28.7734 16.4802 28.8906 16.7989 28.8906C17.1175 28.8906 17.4231 28.7734 17.6484 28.5648C17.8737 28.3562 18.0003 28.0732 18.0003 27.7782C18.0045 24.8325 19.2701 22.0086 21.5196 19.9258C23.7691 17.8429 26.8188 16.671 30.0001 16.6671C30.3187 16.6671 30.6243 16.5499 30.8497 16.3413C31.075 16.1326 31.2016 15.8497 31.2016 15.5546C31.2016 15.2596 31.075 14.9766 30.8497 14.768C30.6243 14.5593 30.3187 14.4421 30.0001 14.4421Z" fill="#F18822"/>
</svg>
