<svg width="60" height="60" viewBox="0 0 60 60" fill="none" xmlns="http://www.w3.org/2000/svg">
<g clip-path="url(#clip0_2001_360)">
<path d="M60 60H0V53.2636H3.67628V1.88328C3.67628 1.81084 3.6916 1.76255 3.6916 1.70219C3.70692 1.64183 3.70692 1.56939 3.72224 1.50903C3.73755 1.44867 3.75287 1.3883 3.78351 1.32794C3.81414 1.21929 3.8601 1.13478 3.89073 1.07442C3.92137 1.02613 3.952 0.989915 3.96732 0.96577V0.953698C3.99796 0.905408 4.04391 0.845046 4.07455 0.796756L4.13582 0.724321C4.19709 0.663959 4.27368 0.603597 4.33495 0.543235C4.41154 0.482872 4.48813 0.422511 4.58003 0.374221C4.67194 0.325931 4.74853 0.277641 4.85576 0.229351C4.90171 0.205207 4.96298 0.181061 5.00893 0.156917L5.05489 0.144844C5.13148 0.120699 5.22339 0.0965548 5.29998 0.0724099C5.37656 0.0482651 5.46847 0.0361924 5.54506 0.02412L5.60633 0.0120477C5.68292 -2.46851e-05 5.80546 -0.0241699 5.95864 -0.0241699H54.0414C54.1179 -0.0241699 54.1945 -0.0120974 54.2711 -2.49612e-05L54.3477 0.0120477C54.4243 0.0241202 54.5162 0.0361923 54.5928 0.0603372C54.6694 0.0724096 54.746 0.0965545 54.8226 0.120699L54.8838 0.144844C54.9298 0.168989 54.9911 0.193134 55.037 0.217279C55.1289 0.253496 55.2208 0.301786 55.3127 0.362148C55.3893 0.410438 55.4812 0.4708 55.5578 0.531162C55.6344 0.591525 55.6957 0.651887 55.7723 0.712249L55.8335 0.784683C55.8642 0.820901 55.9255 0.893335 55.9714 0.96577C55.9867 0.989915 56.002 1.00199 56.0174 1.02613C56.094 1.12271 56.1399 1.23136 56.1705 1.34002C56.1859 1.38831 56.2012 1.43659 56.2165 1.48488C56.2471 1.59354 56.2624 1.70219 56.2624 1.81084V1.8712V53.2394H59.9694V60H60ZM50.1506 58.1891H57.687V55.0744H53.9801L53.9648 1.85913C53.9648 1.85913 53.9648 1.85913 53.9648 1.84706L53.9188 1.83499H53.9035H6.08118H6.06587L6.01991 1.84706V1.85913L6.00459 1.90742C6.00459 1.94364 6.0046 1.96778 5.98928 1.99193V55.0865H2.313V58.2012H9.83406V4.92553H50.1813V58.1891H50.1506ZM12.1164 58.1529H47.8529V6.73639H12.1011V58.1529H12.1164Z" fill="#F18822"/>
<path d="M17.2632 31.0745H10.2017V8.1731H17.2632V31.0745ZM11.7334 29.8673H15.7314V9.38034H11.7334V29.8673Z" fill="#F18822"/>
<path d="M35.66 31.0745H19.4077V8.1731H35.66V31.0745ZM20.9395 29.8673H34.1435V9.38034H20.9395V29.8673Z" fill="#F18822"/>
<path d="M17.2632 56.7163H10.2017V33.8149H17.2632V56.7163ZM11.7334 55.5091H15.7314V35.0222H11.7334V55.5091Z" fill="#F18822"/>
<path d="M35.66 56.7163H19.4077V33.8149H35.66V56.7163ZM20.9395 55.5091H34.1435V35.0222H20.9395V55.5091Z" fill="#F18822"/>
</g>
<defs>
<clipPath id="clip0_2001_360">
<rect width="60" height="60" fill="white"/>
</clipPath>
</defs>
</svg>
