<svg width="49" height="48" viewBox="0 0 49 48" fill="none" xmlns="http://www.w3.org/2000/svg">
<path d="M18.8447 3.94852L20.7917 7.43732C22.5488 10.5858 21.8435 14.716 19.076 17.4834C19.076 17.4834 15.7196 20.8404 21.8054 26.9266C27.8894 33.0106 31.2485 29.656 31.2485 29.656C34.016 26.8885 38.1461 26.1832 41.2946 27.9403L44.7833 29.8873C49.5377 32.5405 50.099 39.2077 45.9203 43.3867C43.4093 45.8977 40.3331 47.8516 36.9326 47.9803C31.2083 48.1975 21.4868 46.7488 11.735 36.997C1.98333 27.2452 0.53457 17.5237 0.75159 11.7993C0.8805 8.39882 2.83434 5.3227 5.34537 2.8117C9.52421 -1.36716 16.1914 -0.805681 18.8447 3.94852Z" fill="#F18822"/>
<path d="M29.02 2.32598C29.1594 1.46515 29.9733 0.881204 30.8344 1.02055C30.8877 1.03076 31.0593 1.06281 31.149 1.08281C31.3289 1.12283 31.5795 1.18441 31.892 1.27542C32.517 1.4574 33.3902 1.75722 34.4381 2.2375C36.5362 3.19911 39.3282 4.88124 42.2255 7.77771C45.1228 10.6742 46.8054 13.4654 47.7672 15.5629C48.2477 16.6105 48.5476 17.4834 48.7296 18.1082C48.8206 18.4206 48.8823 18.6712 48.9223 18.8508C48.9423 18.9407 48.957 19.0128 48.9671 19.0661L48.9793 19.1318C49.1185 19.9925 48.5398 20.8401 47.6787 20.9795C46.8202 21.1184 46.0113 20.5372 45.8685 19.6805C45.8641 19.6574 45.8519 19.5957 45.839 19.5373C45.8129 19.4207 45.768 19.2358 45.6969 18.9913C45.5543 18.5022 45.3069 17.7751 44.8958 16.8789C44.0749 15.0888 42.5987 12.6168 39.9918 10.0107C37.3851 7.40465 34.9123 5.92886 33.1217 5.10815C32.2252 4.69728 31.498 4.44985 31.0086 4.30736C30.7641 4.23614 30.4566 4.16559 30.34 4.13963C29.4829 3.99683 28.881 3.18436 29.02 2.32598Z" fill="#F18822"/>
<path fill-rule="evenodd" clip-rule="evenodd" d="M29.0607 10.137C29.2985 9.30481 30.1658 8.82293 30.998 9.0607L30.5676 10.5675C30.998 9.0607 30.998 9.0607 30.998 9.0607L31.0012 9.06157L31.0043 9.06249L31.0112 9.06452L31.0275 9.06937L31.0689 9.08224C31.1002 9.09231 31.1397 9.10543 31.1865 9.12209C31.2803 9.15539 31.4044 9.20274 31.5565 9.26793C31.861 9.3984 32.2768 9.59987 32.7879 9.90224C33.8105 10.5075 35.2066 11.513 36.8469 13.1531C38.4871 14.7934 39.4924 16.1895 40.0977 17.2123C40.4 17.7232 40.6014 18.1391 40.732 18.4435C40.7972 18.5956 40.8447 18.7197 40.8779 18.8135C40.8946 18.8604 40.9075 18.8998 40.9178 18.9313L40.9305 18.9726L40.9353 18.9888L40.9374 18.9958L40.9383 18.999C40.9383 18.999 40.9393 19.002 39.4324 19.4325L40.9393 19.002C41.1771 19.8342 40.695 20.7015 39.863 20.9393C39.0379 21.175 38.1781 20.7034 37.9317 19.8842L37.924 19.8617C37.9129 19.8302 37.8899 19.7684 37.8513 19.6782C37.774 19.4978 37.6338 19.2027 37.4006 18.8086C36.9346 18.0214 36.0932 16.832 34.6306 15.3694C33.1681 13.9069 31.9786 13.0654 31.1915 12.5995C30.7974 12.3663 30.5024 12.2261 30.3219 12.1488C30.2316 12.1101 30.1698 12.087 30.1384 12.0759L30.1159 12.0682C29.2968 11.8219 28.825 10.9621 29.0607 10.137Z" fill="#F18822"/>
</svg>
