<svg width="24" height="24" viewBox="0 0 24 24" fill="none" xmlns="http://www.w3.org/2000/svg">
<path d="M14.3825 12.7876C14.1249 12.6332 13.7896 12.4611 13.4862 12.5855C13.2533 12.6809 13.1049 13.0452 12.9539 13.2314C12.8765 13.3268 12.7841 13.342 12.665 13.2939C11.791 12.9458 11.1211 12.3621 10.6388 11.5583C10.5572 11.4332 10.5716 11.3349 10.6703 11.219C10.8161 11.0476 10.999 10.8528 11.0385 10.6215C11.078 10.3902 10.9694 10.12 10.8737 9.91407C10.7516 9.65084 10.6151 9.27574 10.3515 9.12701C10.109 8.99013 9.79016 9.0668 9.57431 9.2425C9.20184 9.54587 9.02219 10.021 9.02746 10.4922C9.02877 10.6261 9.04555 10.7597 9.07681 10.8887C9.15183 11.1996 9.29562 11.4895 9.45718 11.7656C9.57892 11.9735 9.71153 12.1755 9.85433 12.3697C10.3219 13.0047 10.9036 13.5565 11.5768 13.9691C11.9134 14.1751 12.2757 14.3561 12.6511 14.4801C13.072 14.6193 13.4471 14.7641 13.9018 14.6775C14.3776 14.5871 14.8468 14.2926 15.0357 13.8342C15.0916 13.6983 15.1196 13.5473 15.0883 13.4038C15.0238 13.1074 14.6224 12.931 14.3825 12.7876Z" fill="url(#paint0_linear_566_2185)"/>
<path d="M12.0552 5.65735C8.6036 5.65735 5.79559 8.46536 5.79559 11.917C5.79559 12.9725 6.06639 14.0129 6.58068 14.9408L5.67188 18.3309L9.07939 17.4181C9.99543 17.915 11.0187 18.1766 12.0549 18.1766C15.5065 18.1766 18.3145 15.3686 18.3145 11.917C18.3148 8.46536 15.5068 5.65735 12.0552 5.65735ZM12.0552 16.9934C11.1477 16.9934 10.2514 16.7453 9.4637 16.2757L9.24917 16.1477L7.34569 16.6577L7.85274 14.7648L7.72112 14.5486C7.23546 13.751 6.97881 12.8409 6.97881 11.9166C6.97881 9.11751 9.25608 6.84024 12.0552 6.84024C14.8543 6.84024 17.1316 9.11751 17.1316 11.9166C17.1316 14.7158 14.8543 16.9934 12.0552 16.9934Z" fill="url(#paint1_linear_566_2185)"/>
<path d="M12 24C5.38305 24 0 18.6169 0 12C0 5.38305 5.38305 0 12 0C18.6166 0 24 5.38305 24 12C24 18.6169 18.6169 24 12 24ZM12 0.923279C5.89208 0.923279 0.92295 5.89241 0.92295 12.0003C0.92295 18.1083 5.89208 23.077 12 23.077C18.1079 23.077 23.077 18.1079 23.077 12.0003C23.077 5.89241 18.1079 0.923279 12 0.923279Z" fill="url(#paint2_linear_566_2185)"/>
<defs>
<linearGradient id="paint0_linear_566_2185" x1="12.0643" y1="9.05686" x2="12.0643" y2="14.7037" gradientUnits="userSpaceOnUse">
<stop stop-color="#80FF00"/>
<stop offset="1" stop-color="#69891F"/>
</linearGradient>
<linearGradient id="paint1_linear_566_2185" x1="10.8491" y1="-0.0734966" x2="12.6588" y2="19.6688" gradientUnits="userSpaceOnUse">
<stop stop-color="#80FF00"/>
<stop offset="1" stop-color="#67891A"/>
</linearGradient>
<linearGradient id="paint2_linear_566_2185" x1="12" y1="9.87113e-05" x2="12" y2="24" gradientUnits="userSpaceOnUse">
<stop stop-color="#9FFF3E"/>
<stop offset="1" stop-color="#658028"/>
</linearGradient>
</defs>
</svg>
