<svg width="23" height="23" viewBox="0 0 23 23" fill="none" xmlns="http://www.w3.org/2000/svg">
<path d="M18.4678 22.9723C17.3046 22.9318 16.1578 22.6867 15.0801 22.2481C11.8639 20.9206 8.95498 18.9487 6.53342 16.4545C4.03387 14.0382 2.05736 11.1364 0.725936 7.92821C-0.241979 5.39833 -0.241979 3.32228 0.725936 2.37599L1.09374 1.94146C1.96487 1.02414 2.9715 0.0102539 4.24914 0.0102539C4.78976 0.0841886 5.3078 0.274466 5.7674 0.567909C6.22701 0.861352 6.61718 1.25095 6.91091 1.70972C9.53396 4.97346 8.3531 6.13219 6.97866 7.50335L6.73668 7.73509C6.51406 7.95718 6.08818 8.99038 10.0373 12.93C11.0322 13.9691 12.1281 14.9072 13.3088 15.7303C13.8605 16.0876 14.8478 16.6283 15.2447 16.2228L15.4866 15.9814C16.832 14.6199 18.0032 13.4322 21.2941 16.0586C21.754 16.3516 22.1445 16.7409 22.4387 17.1994C22.7328 17.6579 22.9235 18.1747 22.9976 18.714C23.0557 20.0079 22.0297 20.9928 21.0618 21.8619L20.6359 22.2771C20.0299 22.794 19.2436 23.0509 18.4484 22.9916L18.4678 22.9723ZM4.16203 0.782738C3.19412 0.782738 2.40043 1.66144 1.66481 2.43392L1.21957 2.90707C0.512995 3.61196 0.580749 5.47558 1.40348 7.64819C2.7047 10.7601 4.63562 13.5707 7.07545 15.9041C9.41288 18.3355 12.2265 20.2616 15.3414 21.5625C17.5193 22.3833 19.3873 22.4509 20.0939 21.746L20.5391 21.3115C21.3328 20.5583 22.233 19.6989 22.1943 18.7526C22.1175 18.3259 21.9521 17.9199 21.7088 17.5607C21.4654 17.2015 21.1494 16.8971 20.7811 16.6669C18.0516 14.4847 17.2966 15.2571 16.0287 16.5317L15.777 16.7828C15.1769 17.3815 14.1993 17.2559 12.8733 16.3869C11.6519 15.534 10.5173 14.5637 9.48556 13.4901C6.21401 10.1974 5.16866 8.19858 6.19465 7.17504L6.43663 6.93364C7.7046 5.6687 8.49829 4.91552 6.3108 2.19252C6.07919 1.82589 5.77376 1.51127 5.41387 1.26858C5.05397 1.0259 4.64746 0.860457 4.22011 0.782738H4.16203Z" fill="white"/>
<path d="M18.6031 9.50182H18.4579C18.3631 9.46325 18.2874 9.38876 18.2475 9.29465C18.2076 9.20053 18.2067 9.09448 18.245 8.99971C18.4871 8.39819 18.543 7.73812 18.4055 7.1046C18.2681 6.47108 17.9436 5.89315 17.4739 5.44532C17.0041 4.99749 16.4107 4.70029 15.7701 4.59203C15.1295 4.48378 14.4711 4.56943 13.8797 4.83795C13.8333 4.85888 13.7832 4.87048 13.7323 4.8721C13.6814 4.87371 13.6307 4.86532 13.5831 4.84738C13.5355 4.82945 13.4918 4.80233 13.4547 4.76758C13.4176 4.73283 13.3877 4.69112 13.3667 4.64483C13.3457 4.59855 13.3341 4.5486 13.3325 4.49783C13.3309 4.44706 13.3393 4.39647 13.3572 4.34895C13.3752 4.30143 13.4024 4.2579 13.4372 4.22086C13.4721 4.18382 13.5139 4.15399 13.5603 4.13306C14.2942 3.801 15.1111 3.69628 15.9054 3.83246C16.6996 3.96864 17.4346 4.33944 18.0153 4.89691C18.596 5.45437 18.9957 6.17284 19.1626 6.95937C19.3295 7.7459 19.256 8.5643 18.9516 9.3087C18.9227 9.3799 18.8732 9.4409 18.8094 9.4839C18.7456 9.5269 18.6704 9.54995 18.5934 9.5501L18.6031 9.50182Z" fill="white"/>
<path d="M22.0588 10.9022C22.0108 10.9111 21.9615 10.9111 21.9136 10.9022C21.8187 10.8636 21.743 10.7891 21.7031 10.695C21.6632 10.6009 21.6623 10.4949 21.7006 10.4001C22.2329 9.10809 22.3638 7.68637 22.0765 6.31923C21.7892 4.95209 21.0968 3.70258 20.0891 2.7327C19.0814 1.76281 17.8049 1.11727 16.4251 0.879764C15.0453 0.642255 13.6258 0.823731 12.3506 1.40067C12.2566 1.44051 12.1508 1.44267 12.0553 1.4067C11.9597 1.37073 11.8818 1.2994 11.8376 1.20754C11.8165 1.16127 11.8048 1.11131 11.8032 1.06052C11.8015 1.00974 11.8099 0.959124 11.8279 0.911583C11.8459 0.864042 11.8731 0.820508 11.908 0.783476C11.9429 0.746443 11.9847 0.71664 12.0312 0.695774C13.4416 0.0544226 15.0125 -0.149891 16.5406 0.109273C18.0687 0.368436 19.4836 1.07915 20.6023 2.14944C21.7211 3.21973 22.4921 4.60034 22.8156 6.11261C23.1391 7.62487 23.0002 9.19919 22.4169 10.6318C22.388 10.703 22.3385 10.764 22.2747 10.807C22.2109 10.85 22.1357 10.8731 22.0588 10.8732V10.9022Z" fill="white"/>
</svg>
