<svg width="23" height="16" viewBox="0 0 23 16" fill="none" xmlns="http://www.w3.org/2000/svg">
<g clip-path="url(#clip0_77_1179)">
<path d="M18.5405 15.1488H1.67006C1.46298 15.1568 1.25685 15.1166 1.06792 15.0314C0.878996 14.9463 0.712418 14.8184 0.581307 14.6579C0.450196 14.4974 0.358131 14.3087 0.31236 14.1065C0.266589 13.9044 0.268363 13.6944 0.317541 13.4931L2.59983 2.38069C2.70264 1.95493 2.94241 1.5747 3.28228 1.29843C3.62216 1.02216 4.04334 0.865125 4.48113 0.851458H21.3503C21.5571 0.846369 21.7625 0.88825 21.9508 0.97395C22.1392 1.05965 22.3056 1.18694 22.4377 1.34625C22.5661 1.50822 22.6562 1.69717 22.7012 1.89893C22.7461 2.10069 22.7448 2.31001 22.6973 2.51118L20.4164 13.6195C20.3141 14.0443 20.0754 14.4238 19.7369 14.7C19.3983 14.9762 18.9786 15.1339 18.5419 15.1488H18.5405ZM4.48113 1.50121C4.19317 1.51373 3.91691 1.61875 3.69335 1.80068C3.46979 1.98261 3.31084 2.23177 3.24007 2.51118L0.955061 13.6195C0.924763 13.7268 0.920681 13.8398 0.943159 13.949C0.965637 14.0582 1.01402 14.1604 1.08423 14.247C1.15444 14.3336 1.24442 14.402 1.34661 14.4466C1.44879 14.4912 1.56019 14.5105 1.67142 14.5031H18.5405C18.8283 14.4897 19.1041 14.3844 19.3275 14.2026C19.5509 14.0208 19.7101 13.7721 19.7816 13.4931L22.068 2.38477C22.0933 2.27678 22.0943 2.1645 22.0707 2.0561C22.0472 1.9477 21.9998 1.84591 21.932 1.75812C21.8594 1.6738 21.7686 1.6071 21.6664 1.56307C21.5641 1.51903 21.4533 1.49881 21.3421 1.50393L4.48113 1.50121Z" fill="white"/>
<path d="M11.3249 9.63537C11.0804 9.63817 10.8379 9.59144 10.612 9.498C10.3861 9.40455 10.1815 9.26632 10.0104 9.09164L3.60126 2.33448C3.5718 2.30383 3.54872 2.26763 3.53337 2.22799C3.51801 2.18835 3.5107 2.14605 3.51183 2.10355C3.51297 2.06105 3.52255 2.01921 3.54 1.98044C3.55745 1.94168 3.58243 1.90677 3.6135 1.87775C3.67584 1.8184 3.75912 1.7861 3.84518 1.78788C3.93124 1.78966 4.01311 1.82538 4.07294 1.88726L10.4835 8.64443C10.6805 8.83856 10.9388 8.95825 11.2142 8.98304C11.4897 9.00783 11.7652 8.93619 11.9937 8.78036L21.4178 1.84784C21.4871 1.79729 21.5736 1.7762 21.6584 1.78919C21.7432 1.80218 21.8195 1.84818 21.8705 1.91717C21.896 1.95129 21.9145 1.99017 21.9249 2.03153C21.9353 2.07289 21.9373 2.1159 21.9308 2.15804C21.9244 2.20019 21.9096 2.24062 21.8873 2.27698C21.865 2.31335 21.8358 2.34491 21.8012 2.36982L12.377 9.30234C12.0716 9.52351 11.7034 9.64116 11.3263 9.63809L11.3249 9.63537Z" fill="white"/>
</g>
<defs>
<clipPath id="clip0_77_1179">
<rect width="23" height="14.2973" fill="white" transform="translate(0 0.851349)"/>
</clipPath>
</defs>
</svg>
