<svg width="23" height="23" viewBox="0 0 23 23" fill="none" xmlns="http://www.w3.org/2000/svg">
<path d="M22.0576 20.1233H17.8699C17.7894 20.1181 17.7139 20.0829 17.6588 20.0247C17.6037 19.9666 17.573 19.8899 17.573 19.8102C17.573 19.7305 17.6037 19.6538 17.6588 19.5956C17.7139 19.5375 17.7894 19.5022 17.8699 19.4971H22.0576C22.1381 19.5022 22.2135 19.5375 22.2687 19.5956C22.3238 19.6538 22.3545 19.7305 22.3545 19.8102C22.3545 19.8899 22.3238 19.9666 22.2687 20.0247C22.2135 20.0829 22.1381 20.1181 22.0576 20.1233Z" fill="white"/>
<path d="M14.008 22.9998H7.48623C7.40169 22.9998 7.32062 22.9666 7.26084 22.9075C7.20106 22.8484 7.16748 22.7683 7.16748 22.6847C7.16748 22.6011 7.20106 22.521 7.26084 22.4619C7.32062 22.4028 7.40169 22.3696 7.48623 22.3696H14.008C14.0925 22.3696 14.1736 22.4028 14.2334 22.4619C14.2931 22.521 14.3267 22.6011 14.3267 22.6847C14.3267 22.7683 14.2931 22.8484 14.2334 22.9075C14.1736 22.9666 14.0925 22.9998 14.008 22.9998Z" fill="white"/>
<path d="M4.47632 18.8629H1.29814C1.21734 18.8577 1.14156 18.8224 1.08619 18.764C1.03082 18.7056 1 18.6285 1 18.5485C1 18.4684 1.03082 18.3914 1.08619 18.333C1.14156 18.2746 1.21734 18.2392 1.29814 18.2341H4.47632C4.51982 18.2313 4.56344 18.2373 4.60448 18.2519C4.64552 18.2664 4.6831 18.2891 4.71491 18.3186C4.74672 18.3481 4.77207 18.3837 4.7894 18.4232C4.80674 18.4628 4.81568 18.5054 4.81568 18.5485C4.81568 18.5916 4.80674 18.6342 4.7894 18.6738C4.77207 18.7133 4.74672 18.7489 4.71491 18.7784C4.6831 18.8078 4.64552 18.8306 4.60448 18.8451C4.56344 18.8596 4.51982 18.8657 4.47632 18.8629Z" fill="white"/>
<path d="M10.7244 12.9279C9.90353 12.9292 9.10075 12.6898 8.41758 12.24C7.73442 11.7902 7.20158 11.1501 6.88648 10.4009C6.57138 9.65167 6.48819 8.82687 6.64742 8.03088C6.80665 7.23489 7.20116 6.50347 7.78102 5.92917C8.36088 5.35487 9.10004 4.96349 9.90498 4.80455C10.7099 4.64561 11.5445 4.72626 12.303 5.03629C13.0616 5.34632 13.7101 5.8718 14.1664 6.54624C14.6228 7.22068 14.8665 8.01377 14.8668 8.82517C14.8661 9.9117 14.4297 10.9536 13.6532 11.7227C12.8767 12.4917 11.8235 12.9251 10.7244 12.9279ZM10.7244 5.44887C10.0485 5.44861 9.38765 5.64652 8.82554 6.01755C8.26343 6.38859 7.82527 6.91609 7.56649 7.53332C7.3077 8.15056 7.23992 8.82979 7.37172 9.48511C7.50352 10.1404 7.82898 10.7424 8.30692 11.2148C8.78487 11.6873 9.39382 12.009 10.0568 12.1393C10.7197 12.2696 11.4068 12.2026 12.0312 11.9468C12.6557 11.6909 13.1893 11.2578 13.5646 10.7022C13.94 10.1465 14.1402 9.49332 14.1399 8.82517C14.1385 7.93015 13.7782 7.07219 13.138 6.43931C12.4978 5.80643 11.6298 5.45027 10.7244 5.44887Z" fill="white"/>
<path d="M10.7243 20.4279C10.6711 20.4276 10.6186 20.4157 10.5706 20.3929C10.5226 20.3701 10.4804 20.337 10.4469 20.2961C10.0935 19.886 1.79663 13.579 1.79663 8.82506C1.79663 6.48451 2.73723 4.23982 4.41149 2.5848C6.08576 0.929781 8.35656 0 10.7243 0C13.0921 0 15.3629 0.929781 17.0372 2.5848C18.7114 4.23982 19.652 6.48451 19.652 8.82506C19.652 13.5804 11.3592 19.886 11.0057 20.3013C10.9712 20.342 10.9282 20.3749 10.8796 20.3976C10.831 20.4204 10.7781 20.4325 10.7243 20.4332V20.4279ZM10.7243 0.722458C8.55104 0.724552 6.46738 1.57889 4.93063 3.09797C3.39388 4.61705 2.52961 6.67676 2.52749 8.82506C2.52749 12.846 9.25594 17.7147 10.7243 19.5011C12.1914 17.7147 18.9225 12.846 18.9225 8.82506C18.9204 6.67653 18.0559 4.61662 16.5189 3.0975C14.9819 1.57839 12.8978 0.724203 10.7243 0.722458Z" fill="white"/>
</svg>
