<svg width="23" height="23" viewBox="0 0 23 23" fill="none" xmlns="http://www.w3.org/2000/svg">
<path d="M18.4927 23C17.3304 22.9594 16.1844 22.7139 15.1075 22.2746C11.8937 20.9449 8.98694 18.9697 6.56717 16.4714C4.06947 14.0511 2.09442 11.1445 0.763974 7.93103C-0.203226 5.39697 -0.203226 3.31749 0.763974 2.36964L1.13151 1.9344C2.00199 1.01556 3.00788 0 4.28458 0C4.82479 0.0740568 5.34245 0.264648 5.80172 0.558576C6.26098 0.852504 6.65086 1.24274 6.94438 1.70227C9.56549 4.9714 8.3855 6.13204 7.01208 7.50547L6.77028 7.73759C6.54783 7.96005 6.12226 8.99495 10.0684 12.9411C11.0627 13.9819 12.1577 14.9215 13.3376 15.746C13.8889 16.1039 14.8754 16.6455 15.272 16.2393L15.5138 15.9975C16.8582 14.6337 18.0285 13.4441 21.317 16.0749C21.7765 16.3684 22.1667 16.7583 22.4607 17.2175C22.7546 17.6768 22.9452 18.1944 23.0192 18.7347C23.0773 20.0307 22.052 21.0172 21.0848 21.8877L20.6593 22.3036C20.0537 22.8214 19.2679 23.0787 18.4734 23.0193L18.4927 23ZM4.19753 0.773759C3.23033 0.773759 2.43723 1.65391 1.70216 2.42767L1.25725 2.9016C0.55119 3.60765 0.618894 5.47435 1.44101 7.65055C2.74127 10.7676 4.67077 13.5828 7.1088 15.9201C9.4445 18.3556 12.256 20.2848 15.3687 21.5879C17.5449 22.41 19.4116 22.4777 20.1176 21.7717L20.5625 21.3364C21.3556 20.582 22.2551 19.7212 22.2165 18.7733C22.1397 18.3459 21.9745 17.9392 21.7313 17.5795C21.4881 17.2197 21.1724 16.9147 20.8043 16.6842C18.0768 14.4983 17.3224 15.2721 16.0554 16.5488L15.8039 16.8003C15.2043 17.3999 14.2274 17.2742 12.9023 16.4037C11.6819 15.5493 10.5481 14.5775 9.51713 13.5021C6.24799 10.204 5.20342 8.20185 6.22865 7.17662L6.47045 6.93482C7.73748 5.66779 8.53058 4.91337 6.34471 2.18587C6.11328 1.81864 5.80807 1.50349 5.44844 1.26041C5.08881 1.01733 4.6826 0.851608 4.25556 0.773759H4.19753Z" fill="#FF0000"/>
<path d="M18.628 9.50738H18.4829C18.3882 9.46874 18.3126 9.39412 18.2727 9.29986C18.2328 9.20559 18.2319 9.09936 18.2702 9.00443C18.5121 8.40192 18.5679 7.74076 18.4306 7.10619C18.2933 6.47163 17.969 5.89274 17.4996 5.44417C17.0302 4.9956 16.4373 4.69791 15.7971 4.58948C15.157 4.48104 14.499 4.56684 13.9081 4.8358C13.8617 4.85676 13.8117 4.86838 13.7608 4.87C13.71 4.87162 13.6593 4.86321 13.6117 4.84525C13.5641 4.82729 13.5205 4.80013 13.4834 4.76531C13.4463 4.7305 13.4164 4.68872 13.3955 4.64236C13.3745 4.596 13.3629 4.54597 13.3613 4.49512C13.3597 4.44427 13.3681 4.39359 13.386 4.34599C13.404 4.29839 13.4312 4.2548 13.466 4.21769C13.5008 4.18059 13.5426 4.15071 13.5889 4.12975C14.3223 3.79714 15.1386 3.69225 15.9323 3.82865C16.726 3.96505 17.4604 4.33647 18.0407 4.89485C18.6209 5.45324 19.0203 6.17289 19.1871 6.96072C19.3539 7.74856 19.2804 8.56831 18.9762 9.31394C18.9474 9.38525 18.8979 9.44635 18.8342 9.48942C18.7704 9.53249 18.6953 9.55558 18.6184 9.55574L18.628 9.50738Z" fill="#FF0000"/>
<path d="M22.081 10.91C22.033 10.9189 21.9838 10.9189 21.9359 10.91C21.8411 10.8713 21.7655 10.7967 21.7256 10.7024C21.6857 10.6082 21.6848 10.502 21.7231 10.407C22.255 9.11288 22.3858 7.68881 22.0987 6.31941C21.8116 4.95001 21.1197 3.69845 20.1128 2.72696C19.1058 1.75547 17.8303 1.10886 16.4515 0.870963C15.0727 0.633062 13.6542 0.814838 12.38 1.39272C12.286 1.43263 12.1803 1.4348 12.0849 1.39877C11.9894 1.36274 11.9115 1.29129 11.8673 1.19929C11.8463 1.15294 11.8346 1.10289 11.833 1.05202C11.8313 1.00115 11.8397 0.950455 11.8577 0.902835C11.8756 0.855215 11.9028 0.811609 11.9377 0.774516C11.9725 0.737422 12.0144 0.70757 12.0608 0.68667C13.4701 0.0442585 15.0399 -0.160392 16.5668 0.0991993C18.0938 0.358791 19.5077 1.07068 20.6256 2.14274C21.7435 3.2148 22.514 4.59768 22.8372 6.11245C23.1605 7.62721 23.0217 9.20413 22.4388 10.6391C22.41 10.7105 22.3605 10.7716 22.2968 10.8146C22.233 10.8577 22.1579 10.8808 22.081 10.8809V10.91Z" fill="#FF0000"/>
</svg>
