<svg width="60" height="60" viewBox="0 0 60 60" fill="none" xmlns="http://www.w3.org/2000/svg">
<g clip-path="url(#clip0_2001_556)">
<path d="M44.5358 23.3708C44.7195 23.3711 44.8987 23.315 45.0493 23.2102C45.1998 23.1054 45.3144 22.9569 45.3773 22.7849L47.4928 16.9161C47.5728 16.6936 47.561 16.4485 47.4598 16.2347C47.3587 16.0209 47.1765 15.8559 46.9534 15.7759L38.2093 12.6458C37.9862 12.566 37.7403 12.5779 37.5259 12.6787C37.3115 12.7796 37.146 12.9612 37.0658 13.1837L34.9503 19.0513C34.9105 19.1616 34.8929 19.2786 34.8985 19.3956C34.904 19.5127 34.9327 19.6275 34.9828 19.7335C35.0329 19.8395 35.1035 19.9346 35.1904 20.0134C35.2774 20.0922 35.3791 20.1531 35.4898 20.1927L44.2338 23.3204C44.3308 23.3544 44.433 23.3715 44.5358 23.3708ZM42.5602 16.0947L41.0523 20.2829L39.8771 19.8634L41.3861 15.674L42.5602 16.0947ZM38.4467 14.6204L39.7078 15.0716L38.1964 19.2611L36.9353 18.8099L38.4467 14.6204ZM42.7377 20.8865L44.2467 16.697L45.5078 17.1482L43.9987 21.3376L42.7377 20.8865Z" fill="#F18822"/>
<path d="M4.90666 50.3449C4.42352 50.8266 4.1521 51.48 4.1521 52.1613C4.1521 52.8426 4.42352 53.496 4.90666 53.9777C5.3898 54.4595 6.04507 54.7301 6.72833 54.7301C7.41159 54.7301 8.06687 54.4595 8.55001 53.9777C8.78923 53.7392 8.97899 53.456 9.10846 53.1443C9.23793 52.8327 9.30457 52.4987 9.30457 52.1613C9.30457 51.824 9.23793 51.4899 9.10846 51.1783C8.97899 50.8666 8.78923 50.5834 8.55001 50.3449C8.31078 50.1064 8.02678 49.9172 7.71422 49.7881C7.40165 49.659 7.06665 49.5925 6.72833 49.5925C6.39002 49.5925 6.05501 49.659 5.74245 49.7881C5.42989 49.9172 5.14589 50.1064 4.90666 50.3449ZM7.28659 52.7156C7.17657 52.8251 7.03647 52.8996 6.88399 52.9298C6.73151 52.9599 6.5735 52.9443 6.42991 52.8849C6.28633 52.8255 6.16362 52.725 6.07729 52.5961C5.99096 52.4672 5.94489 52.3157 5.94489 52.1607C5.94489 52.0057 5.99096 51.8542 6.07729 51.7253C6.16362 51.5964 6.28633 51.4959 6.42991 51.4366C6.5735 51.3772 6.73151 51.3616 6.88399 51.3917C7.03647 51.4218 7.17657 51.4964 7.28659 51.6058C7.43407 51.7531 7.51691 51.9526 7.51691 52.1607C7.51691 52.3688 7.43407 52.5684 7.28659 52.7156Z" fill="#F18822"/>
<path d="M29.3149 22.3102L31.3246 20.3063C32.5522 19.0856 33.3775 17.5207 33.6905 15.8204L34.8152 9.7524L52.0212 16.1028C52.2436 16.185 52.4896 16.1757 52.7052 16.077C52.9207 15.9784 53.0881 15.7984 53.1706 15.5766L56.5859 6.40201C57.852 8.37347 58.4049 10.7169 58.1534 13.0444C57.9018 15.3719 56.8608 17.544 55.2026 19.2012C54.6559 19.7688 54.0353 20.2607 53.3575 20.6637C53.0049 20.8629 49.0231 22.5762 49.0231 22.5762L40.4882 26.1563C39.534 26.5547 38.6672 27.1356 37.9367 27.8661L36.081 29.7106C35.9952 29.7928 35.9267 29.8912 35.8795 30.0001C35.8323 30.109 35.8074 30.2262 35.8062 30.3448C35.805 30.4634 35.8276 30.581 35.8726 30.6909C35.9175 30.8007 35.984 30.9004 36.0682 30.9843C36.1523 31.0682 36.2523 31.1345 36.3625 31.1793C36.4726 31.2242 36.5906 31.2467 36.7095 31.2455C36.8285 31.2443 36.946 31.2194 37.0552 31.1724C37.1644 31.1254 37.2631 31.0571 37.3456 30.9715L39.1966 29.1258C39.7632 28.5591 40.4355 28.1084 41.1758 27.7993L51.7121 23.3848L51.7379 23.3743C51.9342 23.2899 53.6748 22.5364 54.2424 22.2165C55.0629 21.7336 55.814 21.1423 56.4755 20.4586C58.6416 18.2899 59.8993 15.3807 59.9934 12.3213C60.0874 9.26195 59.0108 6.28143 56.982 3.98443C56.88 3.86873 56.7497 3.78136 56.6038 3.73081C56.4578 3.68027 56.3012 3.66828 56.1493 3.69601C55.9973 3.72374 55.8551 3.79025 55.7366 3.88906C55.6181 3.98787 55.5273 4.1156 55.473 4.25982L51.8026 14.12L38.8946 9.35513C39.3366 7.64885 40.213 6.08528 41.4389 4.81587C42.6649 3.54646 44.1988 2.61422 45.8921 2.10943L43.2501 9.28482C43.2096 9.39477 43.1912 9.51161 43.196 9.62866C43.2008 9.7457 43.2286 9.86067 43.2779 9.96698C43.3273 10.0733 43.3971 10.1689 43.4835 10.2483C43.5699 10.3277 43.6711 10.3893 43.7814 10.4297C43.8916 10.4701 44.0088 10.4885 44.1262 10.4837C44.2436 10.479 44.3589 10.4512 44.4655 10.402C44.5721 10.3528 44.668 10.2832 44.7476 10.1971C44.8272 10.1109 44.8891 10.01 44.9296 9.90005L48.1357 1.20005C48.1895 1.05503 48.2045 0.898557 48.1794 0.745992C48.1542 0.593428 48.0896 0.450013 47.9921 0.329821C47.8945 0.209629 47.7673 0.116791 47.6229 0.0604155C47.4786 0.00404029 47.3219 -0.0139344 47.1685 0.00825541C44.835 0.332567 42.648 1.33186 40.8781 2.88251C39.1083 4.43317 37.8331 6.46716 37.2104 8.73286L34.4356 7.70982C34.3133 7.66479 34.1826 7.64697 34.0527 7.6576C33.9227 7.66823 33.7967 7.70705 33.6834 7.77136C33.5701 7.83566 33.4722 7.92389 33.3967 8.02986C33.3212 8.13582 33.2698 8.25697 33.2462 8.38482L31.9287 15.4958C31.6814 16.8411 31.0287 18.0793 30.0577 19.0454L28.048 21.0493C27.8858 21.2176 27.7963 21.4426 27.7986 21.676C27.801 21.9094 27.895 22.1326 28.0605 22.2977C28.2261 22.4627 28.4499 22.5565 28.684 22.5588C28.9181 22.5612 29.1438 22.4719 29.3126 22.3102H29.3149Z" fill="#F18822"/>
<path d="M20.5861 27.3834C20.5037 27.2978 20.405 27.2295 20.2958 27.1825C20.1865 27.1355 20.069 27.1106 19.9501 27.1094C19.8311 27.1082 19.7131 27.1307 19.603 27.1756C19.4929 27.2204 19.3928 27.2867 19.3087 27.3706C19.2246 27.4545 19.1581 27.5542 19.1131 27.664C19.0681 27.7738 19.0456 27.8915 19.0468 28.0101C19.048 28.1287 19.0729 28.2459 19.12 28.3548C19.1672 28.4637 19.2357 28.5621 19.3215 28.6443L19.8774 29.1986L1.99798 47.0298C1.36014 47.6588 0.853284 48.4074 0.50655 49.2323C0.159816 50.0573 -0.0199574 50.9425 -0.022435 51.837C-0.0249125 52.7315 0.149955 53.6177 0.492113 54.4446C0.834272 55.2714 1.33697 56.0227 1.97132 56.6552C2.60566 57.2878 3.35913 57.789 4.18841 58.1302C5.01769 58.4713 5.90642 58.6457 6.80352 58.6432C7.70061 58.6408 8.58836 58.4615 9.41574 58.1158C10.2431 57.77 10.9938 57.2647 11.6246 56.6287L29.4993 38.7974L30.1363 39.4326C30.3052 39.5943 30.5308 39.6835 30.7649 39.6812C30.999 39.6789 31.2228 39.5851 31.3884 39.42C31.5539 39.255 31.6479 39.0318 31.6503 38.7984C31.6526 38.565 31.5631 38.34 31.4009 38.1716L20.5861 27.3834ZM10.3553 55.3677C9.40951 56.2827 8.14069 56.79 6.82292 56.78C5.50515 56.7701 4.24418 56.2437 3.31235 55.3146C2.38052 54.3854 1.85261 53.1281 1.84264 51.8141C1.83266 50.5002 2.34142 49.235 3.25904 48.2919L21.142 30.4595L28.2383 37.5353L10.3553 55.3677Z" fill="#F18822"/>
<path d="M56.2768 48.8438C56.108 48.6821 55.8823 48.5928 55.6482 48.5952C55.4141 48.5975 55.1903 48.6913 55.0248 48.8563C54.8592 49.0214 54.7652 49.2446 54.7629 49.478C54.7605 49.7114 54.85 49.9364 55.0122 50.1047L56.5224 51.6106C57.2503 52.3363 57.6591 53.3206 57.6591 54.3469C57.6591 55.3733 57.2503 56.3575 56.5224 57.0833C55.7946 57.809 54.8075 58.2167 53.7782 58.2167C52.7489 58.2167 51.7617 57.809 51.0339 57.0833L42.1324 48.2075C42.4552 47.6139 42.5771 46.9322 42.4797 46.2639C42.3824 45.5957 42.0711 44.9767 41.5922 44.4992C41.1134 44.0217 40.4926 43.7113 39.8224 43.6143C39.1522 43.5172 38.4685 43.6387 37.8732 43.9606L37.1387 43.2317L42.6272 37.759L43.3582 38.4879C43.0363 39.0816 42.9152 39.7629 43.0129 40.4307C43.1106 41.0985 43.4219 41.717 43.9005 42.1941C44.379 42.6713 44.9993 42.9817 45.669 43.0791C46.3387 43.1765 47.0221 43.0558 47.6174 42.7348L52.6264 47.7294C52.7088 47.8149 52.8075 47.8832 52.9167 47.9302C53.0259 47.9773 53.1435 48.0021 53.2624 48.0033C53.3814 48.0045 53.4994 47.982 53.6095 47.9371C53.7196 47.8923 53.8197 47.826 53.9038 47.7421C53.9879 47.6583 54.0544 47.5585 54.0994 47.4487C54.1444 47.3389 54.1669 47.2212 54.1657 47.1026C54.1645 46.984 54.1396 46.8668 54.0924 46.7579C54.0453 46.649 53.9768 46.5506 53.891 46.4684L48.3414 40.9348C48.1736 40.7677 47.9462 40.6737 47.7091 40.6737C47.4719 40.6737 47.2445 40.7677 47.0768 40.9348C46.9509 41.0599 46.8016 41.159 46.6373 41.2264C46.473 41.2939 46.297 41.3285 46.1194 41.3282C45.9417 41.3279 45.7658 41.2926 45.6018 41.2245C45.4378 41.1564 45.2888 41.0568 45.1634 40.9313C45.038 40.8058 44.9386 40.6569 44.871 40.4931C44.8033 40.3293 44.7686 40.1538 44.7689 39.9767C44.7693 39.7995 44.8046 39.6242 44.8729 39.4606C44.9412 39.2971 45.0411 39.1485 45.167 39.0235C45.3346 38.8563 45.4288 38.6295 45.4288 38.393C45.4288 38.1566 45.3346 37.9298 45.167 37.7626L43.2618 35.8676C43.0941 35.7005 42.8667 35.6066 42.6295 35.6066C42.3924 35.6066 42.165 35.7005 41.9972 35.8676L41.8539 36.0106L39.8876 34.0501C39.7199 33.8829 39.4925 33.789 39.2553 33.789C39.0182 33.789 38.7908 33.8829 38.623 34.0501L38.1612 34.5106L14.6463 11.0637L14.1268 7.3899C14.1066 7.24666 14.0518 7.11047 13.967 6.99308C13.8822 6.87569 13.7701 6.78062 13.6403 6.71607L7.22564 3.5274C7.05775 3.44388 6.86777 3.41512 6.68258 3.44519C6.49739 3.47527 6.32638 3.56265 6.19375 3.69498L2.9782 6.90123C2.84549 7.03348 2.75786 7.20399 2.7277 7.38864C2.69754 7.57329 2.72638 7.76273 2.81014 7.93013L6.00923 14.3262C6.07397 14.4557 6.16931 14.5675 6.28704 14.652C6.40477 14.7365 6.54136 14.7912 6.68501 14.8114L10.3683 15.3294L13.0456 17.9954C13.2144 18.1571 13.4401 18.2463 13.6742 18.244C13.9083 18.2417 14.1321 18.1479 14.2976 17.9828C14.4632 17.8178 14.5572 17.5946 14.5595 17.3612C14.5619 17.1278 14.4724 16.9028 14.3102 16.7344L11.4214 13.8575C11.284 13.7208 11.1058 13.6324 10.9136 13.6055L7.40428 13.111L4.70115 7.70865L7.00351 5.40943L12.4215 8.10474L12.9175 11.6086C12.9444 11.8003 13.0331 11.9779 13.1702 12.1149L36.8966 35.7715L35.1478 37.5153L16.1871 18.6083C16.0167 18.4544 15.7935 18.3718 15.5637 18.3777C15.334 18.3836 15.1153 18.4774 14.9531 18.6398C14.7908 18.8021 14.6975 19.0206 14.6925 19.2497C14.6874 19.4788 14.7711 19.7011 14.926 19.8704L33.8832 38.7762L33.4213 39.2368C33.2536 39.404 33.1594 39.6308 33.1594 39.8672C33.1594 40.1037 33.2536 40.3305 33.4213 40.4977L35.3875 42.4583L35.2441 42.6012C35.0765 42.7685 34.9823 42.9952 34.9823 43.2317C34.9823 43.4682 35.0765 43.6949 35.2441 43.8622L37.1492 45.7618C37.317 45.9289 37.5444 46.0228 37.7815 46.0228C38.0187 46.0228 38.2461 45.9289 38.4138 45.7618C38.5379 45.6302 38.6873 45.5249 38.853 45.452C39.0187 45.379 39.1974 45.34 39.3785 45.3373C39.5596 45.3345 39.7394 45.3681 39.9073 45.4359C40.0751 45.5037 40.2276 45.6045 40.3557 45.7322C40.4837 45.8599 40.5848 46.0119 40.6528 46.1793C40.7209 46.3467 40.7545 46.526 40.7517 46.7066C40.749 46.8871 40.7099 47.0653 40.6367 47.2305C40.5636 47.3958 40.4579 47.5447 40.326 47.6684C40.1584 47.8356 40.0642 48.0624 40.0642 48.2989C40.0642 48.5353 40.1584 48.7621 40.326 48.9294L49.7681 58.3442C50.8339 59.3921 52.272 59.9773 53.7688 59.9721C55.2656 59.9669 56.6996 59.3717 57.758 58.3164C58.8164 57.2611 59.4133 55.8312 59.4185 54.3388C59.4237 52.8463 58.8368 51.4123 57.7859 50.3497L56.2768 48.8438ZM35.3182 39.8672L39.2542 35.9415L40.5893 37.2657L36.6509 41.1926L35.3182 39.8672Z" fill="#F18822"/>
</g>
<defs>
<clipPath id="clip0_2001_556">
<rect width="60" height="60" fill="white"/>
</clipPath>
</defs>
</svg>
