<svg width="24" height="24" viewBox="0 0 24 24" fill="none" xmlns="http://www.w3.org/2000/svg">
<g clip-path="url(#clip0_566_3472)">
<mask id="mask0_566_3472" style="mask-type:luminance" maskUnits="userSpaceOnUse" x="0" y="0" width="24" height="24">
<path d="M24 0H0V24H24V0Z" fill="white"/>
</mask>
<g mask="url(#mask0_566_3472)">
<path d="M12 24C5.38306 24 0 18.6169 0 12C0 5.38305 5.38306 0 12 0C18.6169 0 24 5.38305 24 12C24 18.6169 18.6166 24 12 24ZM12 0.92328C5.89208 0.92328 0.922948 5.8924 0.922948 12.0003C0.922948 18.1083 5.89208 23.0774 12 23.0774C18.1079 23.0774 23.0771 18.1083 23.0771 12.0003C23.0767 5.8924 18.1079 0.92328 12 0.92328Z" fill="url(#paint0_linear_566_3472)"/>
<path d="M18.8877 8.51283C18.874 8.488 18.8588 8.46408 18.8421 8.4412L14.6323 11.9152L18.8063 16.7305C18.9317 16.5639 18.9996 16.3611 19 16.1526V8.96376C19.0001 8.80651 18.9615 8.65165 18.8877 8.51283Z" fill="url(#paint1_linear_566_3472)"/>
<path d="M5.16279 8.4412C5.14608 8.46408 5.13086 8.488 5.11721 8.51283C5.04166 8.65122 5.0014 8.8061 5 8.96376V16.1526C5.00035 16.3611 5.06833 16.5639 5.19372 16.7305L9.36767 11.9152L5.16279 8.4412Z" fill="url(#paint2_linear_566_3472)"/>
<path d="M11.9999 13.1003C12.2788 13.0996 12.5488 13.0017 12.7634 12.8235L18.4773 8.1026C18.3405 8.03379 18.1893 7.99863 18.0362 8.00004H5.96362C5.80997 8.00065 5.6587 8.03805 5.52246 8.10911L11.2364 12.83C11.452 13.0057 11.7218 13.1011 11.9999 13.1003Z" fill="url(#paint3_linear_566_3472)"/>
<path d="M13.0743 13.2093C12.7723 13.4598 12.3922 13.5968 11.9999 13.5968C11.6075 13.5968 11.2275 13.4598 10.9255 13.2093L9.74361 12.2326L5.57617 17.0349C5.69827 17.0887 5.83022 17.1164 5.96361 17.1163H18.0362C18.1696 17.1164 18.3015 17.0887 18.4236 17.0349L14.2562 12.2326L13.0743 13.2093Z" fill="url(#paint4_linear_566_3472)"/>
</g>
</g>
<defs>
<linearGradient id="paint0_linear_566_3472" x1="9.8281" y1="-10.8526" x2="13.2469" y2="26.5351" gradientUnits="userSpaceOnUse">
<stop stop-color="#80FF00"/>
<stop offset="1" stop-color="#67891A"/>
</linearGradient>
<linearGradient id="paint1_linear_566_3472" x1="16.4209" y1="4.69286" x2="18.6146" y2="17.3333" gradientUnits="userSpaceOnUse">
<stop stop-color="#80FF00"/>
<stop offset="1" stop-color="#67891A"/>
</linearGradient>
<linearGradient id="paint2_linear_566_3472" x1="6.78858" y1="4.69286" x2="8.9823" y2="17.3333" gradientUnits="userSpaceOnUse">
<stop stop-color="#80FF00"/>
<stop offset="1" stop-color="#67891A"/>
</linearGradient>
<linearGradient id="paint3_linear_566_3472" x1="10.8275" y1="5.69371" x2="11.1156" y2="13.6951" gradientUnits="userSpaceOnUse">
<stop stop-color="#80FF00"/>
<stop offset="1" stop-color="#67891A"/>
</linearGradient>
<linearGradient id="paint4_linear_566_3472" x1="10.8373" y1="10.0242" x2="11.1036" y2="17.6865" gradientUnits="userSpaceOnUse">
<stop stop-color="#80FF00"/>
<stop offset="1" stop-color="#67891A"/>
</linearGradient>
<clipPath id="clip0_566_3472">
<rect width="24" height="24" fill="white"/>
</clipPath>
</defs>
</svg>
