<svg width="50" height="50" viewBox="0 0 50 50" fill="none" xmlns="http://www.w3.org/2000/svg">
<path d="M25.2901 0.279274C11.6547 0.279274 0.565911 11.3641 0.561061 24.9889C0.554346 29.6414 1.8645 34.2008 4.34006 38.14L4.9282 39.075L2.43055 48.1933L11.7865 45.7401L12.6899 46.2753C16.4843 48.5271 20.8349 49.718 25.2715 49.7204H25.2808C38.9057 49.7204 49.9945 38.6344 49.9997 25.0087C50.01 21.7611 49.376 18.5437 48.1344 15.5428C46.8928 12.5418 45.0682 9.81701 42.7663 7.52603C40.4772 5.22253 37.7539 3.39595 34.7541 2.15204C31.7543 0.908126 28.5376 0.271588 25.2901 0.279274Z" fill="url(#paint0_linear_3_65)"/>
<path fill-rule="evenodd" clip-rule="evenodd" d="M17.8477 12.5577C17.2907 11.3204 16.7046 11.2953 16.1755 11.2739L14.751 11.2565C14.2555 11.2565 13.4503 11.4425 12.7696 12.1862C12.0889 12.93 10.1685 14.7275 10.1685 18.3836C10.1685 22.0398 12.8314 25.5726 13.2025 26.069C13.5736 26.5654 18.3433 34.3073 25.8969 37.2859C32.1739 39.7613 33.4512 39.269 34.8142 39.1453C36.1772 39.0216 39.2109 37.3478 39.8297 35.6125C40.4486 33.8772 40.449 32.3905 40.2634 32.0796C40.0779 31.7688 39.5823 31.5841 38.8386 31.2122C38.0948 30.8403 34.4419 29.0428 33.7608 28.7946C33.0797 28.5464 32.5846 28.4231 32.0886 29.1669C31.5926 29.9106 30.1702 31.5837 29.7365 32.0796C29.3028 32.5756 28.8699 32.6379 28.1261 32.2664C27.3823 31.8949 24.9894 31.1099 22.1502 28.5783C19.9412 26.6086 18.45 24.176 18.0159 23.4327C17.5818 22.6893 17.9698 22.2867 18.3425 21.9165C18.676 21.5834 19.0854 21.0486 19.4577 20.6149C19.83 20.1812 19.9525 19.8712 20.1999 19.376C20.4472 18.8808 20.3239 18.4459 20.138 18.0744C19.9521 17.7029 18.5082 14.0274 17.8477 12.5577Z" fill="white"/>
<defs>
<linearGradient id="paint0_linear_3_65" x1="24.7772" y1="3.24621" x2="25.0278" y2="45.4967" gradientUnits="userSpaceOnUse">
<stop stop-color="#57D163"/>
<stop offset="1" stop-color="#23B33A"/>
</linearGradient>
</defs>
</svg>
