<svg width="23" height="15" viewBox="0 0 23 15" fill="none" xmlns="http://www.w3.org/2000/svg">
<g clip-path="url(#clip0_23_174)">
<path d="M18.5401 14.6488H1.66957C1.46249 14.6568 1.25637 14.6167 1.06744 14.5315C0.878508 14.4463 0.71193 14.3184 0.580819 14.1579C0.449708 13.9974 0.357642 13.8087 0.311872 13.6066C0.266101 13.4044 0.267874 13.1945 0.317052 12.9931L2.59935 1.88072C2.70216 1.45496 2.94192 1.07473 3.28179 0.798461C3.62167 0.522189 4.04286 0.365156 4.48064 0.351488H21.3498C21.5566 0.346399 21.762 0.38828 21.9503 0.473981C22.1387 0.559682 22.3052 0.686972 22.4372 0.84628C22.5656 1.00825 22.6557 1.1972 22.7007 1.39896C22.7457 1.60072 22.7443 1.81004 22.6969 2.01121L20.4159 13.1196C20.3136 13.5443 20.0749 13.9239 19.7364 14.2001C19.3978 14.4763 18.9781 14.6339 18.5414 14.6488H18.5401ZM4.48064 1.00124C4.19268 1.01376 3.91642 1.11878 3.69286 1.30071C3.4693 1.48264 3.31035 1.7318 3.23958 2.01121L0.954573 13.1196C0.924275 13.2268 0.920193 13.3398 0.942671 13.449C0.965148 13.5582 1.01353 13.6604 1.08374 13.747C1.15395 13.8336 1.24393 13.9021 1.34612 13.9466C1.4483 13.9912 1.5597 14.0106 1.67093 14.0031H18.5401C18.8278 13.9897 19.1036 13.8844 19.327 13.7026C19.5504 13.5208 19.7096 13.2721 19.7811 12.9931L22.0675 1.8848C22.0928 1.77681 22.0938 1.66453 22.0703 1.55613C22.0467 1.44773 21.9994 1.34594 21.9316 1.25815C21.8589 1.17383 21.7681 1.10713 21.6659 1.0631C21.5637 1.01906 21.4528 0.998837 21.3416 1.00396L4.48064 1.00124Z" fill="white"/>
<path d="M11.3249 9.13557C11.0804 9.13837 10.8379 9.09164 10.612 8.99819C10.3861 8.90475 10.1815 8.76652 10.0104 8.59184L3.60126 1.83467C3.5718 1.80403 3.54872 1.76783 3.53337 1.72819C3.51801 1.68855 3.5107 1.64625 3.51183 1.60375C3.51297 1.56125 3.52255 1.51941 3.54 1.48064C3.55745 1.44188 3.58243 1.40697 3.6135 1.37794C3.67584 1.3186 3.75912 1.28629 3.84518 1.28808C3.93124 1.28986 4.01311 1.32558 4.07294 1.38746L10.4835 8.14463C10.6805 8.33876 10.9388 8.45845 11.2142 8.48324C11.4897 8.50803 11.7652 8.43639 11.9937 8.28056L21.4178 1.34804C21.4871 1.29749 21.5736 1.2764 21.6584 1.28939C21.7432 1.30238 21.8195 1.34838 21.8705 1.41736C21.896 1.45149 21.9145 1.49037 21.9249 1.53173C21.9353 1.57309 21.9373 1.61609 21.9308 1.65824C21.9244 1.70038 21.9096 1.74082 21.8873 1.77718C21.865 1.81354 21.8358 1.8451 21.8012 1.87002L12.377 8.80253C12.0716 9.0237 11.7034 9.14136 11.3263 9.13829L11.3249 9.13557Z" fill="white"/>
</g>
<defs>
<clipPath id="clip0_23_174">
<rect width="23" height="14.2973" fill="white" transform="translate(0 0.351562)"/>
</clipPath>
</defs>
</svg>
