<svg width="50" height="50" viewBox="0 0 50 50" fill="none" xmlns="http://www.w3.org/2000/svg">
<path d="M25.2319 49.5C38.7629 49.5 49.7319 38.531 49.7319 25C49.7319 11.469 38.7629 0.5 25.2319 0.5C11.701 0.5 0.731934 11.469 0.731934 25C0.731934 38.531 11.701 49.5 25.2319 49.5Z" fill="url(#paint0_linear_3_64)"/>
<path d="M16.4639 25.941L19.5005 34.2249C19.5005 34.2249 19.8802 35 20.2867 35C20.6932 35 26.7398 28.8002 26.7398 28.8002L33.4639 16L16.5722 23.8027L16.4639 25.941Z" fill="#C8DAEA"/>
<path d="M21.0153 28L20.4734 34.161C20.4734 34.161 20.2465 36.0488 22.0108 34.161C23.7751 32.2732 25.4639 30.8175 25.4639 30.8175" fill="#A9C6D8"/>
<path d="M17.6104 26.8235L11.9645 24.861C11.9645 24.861 11.2897 24.569 11.507 23.9067C11.5517 23.7702 11.6419 23.654 11.9118 23.4543C13.1628 22.524 35.0667 14.1252 35.0667 14.1252C35.0667 14.1252 35.6852 13.9029 36.05 14.0508C36.1402 14.0806 36.2214 14.1354 36.2852 14.2096C36.3491 14.2839 36.3933 14.3749 36.4134 14.4734C36.4528 14.6473 36.4693 14.8263 36.4623 15.005C36.4606 15.1597 36.443 15.3031 36.4297 15.5279C36.2963 17.8241 32.3041 34.9619 32.3041 34.9619C32.3041 34.9619 32.0652 35.9648 31.2094 35.9991C30.9991 36.0064 30.7896 35.9684 30.5934 35.8874C30.3971 35.8064 30.2182 35.6841 30.0672 35.5277C28.3878 33.9867 22.5834 29.8252 21.3008 28.91C21.2718 28.889 21.2475 28.8616 21.2293 28.8296C21.2111 28.7977 21.1996 28.762 21.1955 28.7249C21.1776 28.6284 21.2759 28.5089 21.2759 28.5089C21.2759 28.5089 31.383 18.9249 31.6519 17.9187C31.6727 17.8408 31.5941 17.8023 31.4884 17.8365C30.8171 18.0999 19.1801 25.9397 17.8958 26.805C17.8033 26.8348 17.7056 26.8412 17.6104 26.8235Z" fill="white"/>
<defs>
<linearGradient id="paint0_linear_3_64" x1="25.2319" y1="49.5" x2="25.2319" y2="0.5" gradientUnits="userSpaceOnUse">
<stop stop-color="#1D93D2"/>
<stop offset="1" stop-color="#38B0E3"/>
</linearGradient>
</defs>
</svg>
