<svg width="23" height="23" viewBox="0 0 23 23" fill="none" xmlns="http://www.w3.org/2000/svg">
<g clip-path="url(#clip0_23_160)">
<path d="M23.261 20.1233H19.0732C18.9928 20.1181 18.9173 20.0829 18.8622 20.0247C18.807 19.9666 18.7764 19.8899 18.7764 19.8102C18.7764 19.7305 18.807 19.6538 18.8622 19.5956C18.9173 19.5375 18.9928 19.5022 19.0732 19.4971H23.261C23.3415 19.5022 23.4169 19.5375 23.472 19.5956C23.5272 19.6538 23.5579 19.7305 23.5579 19.8102C23.5579 19.8899 23.5272 19.9666 23.472 20.0247C23.4169 20.0829 23.3415 20.1181 23.261 20.1233Z" fill="white"/>
<path d="M15.2113 22.9998H8.6896C8.60506 22.9998 8.52399 22.9666 8.46421 22.9075C8.40443 22.8484 8.37085 22.7683 8.37085 22.6847C8.37085 22.6011 8.40443 22.521 8.46421 22.4619C8.52399 22.4028 8.60506 22.3696 8.6896 22.3696H15.2113C15.2959 22.3696 15.3769 22.4028 15.4367 22.4619C15.4965 22.521 15.5301 22.6011 15.5301 22.6847C15.5301 22.7683 15.4965 22.8484 15.4367 22.9075C15.3769 22.9666 15.2959 22.9998 15.2113 22.9998Z" fill="white"/>
<path d="M5.67969 18.8629H2.50151C2.42071 18.8577 2.34493 18.8224 2.28956 18.764C2.23418 18.7056 2.20337 18.6285 2.20337 18.5485C2.20337 18.4684 2.23418 18.3914 2.28956 18.333C2.34493 18.2746 2.42071 18.2392 2.50151 18.2341H5.67969C5.72319 18.2313 5.76681 18.2373 5.80785 18.2519C5.84889 18.2664 5.88647 18.2891 5.91828 18.3186C5.95009 18.3481 5.97544 18.3837 5.99277 18.4232C6.01011 18.4628 6.01905 18.5054 6.01905 18.5485C6.01905 18.5916 6.01011 18.6342 5.99277 18.6738C5.97544 18.7133 5.95009 18.7489 5.91828 18.7784C5.88647 18.8078 5.84889 18.8306 5.80785 18.8451C5.76681 18.8596 5.72319 18.8657 5.67969 18.8629Z" fill="white"/>
<path d="M11.9277 12.9279C11.1069 12.9292 10.3041 12.6898 9.62095 12.24C8.93779 11.7902 8.40495 11.1501 8.08985 10.4009C7.77475 9.65167 7.69156 8.82687 7.85079 8.03088C8.01002 7.23489 8.40453 6.50347 8.98439 5.92917C9.56425 5.35487 10.3034 4.96349 11.1084 4.80455C11.9133 4.64561 12.7478 4.72626 13.5064 5.03629C14.265 5.34632 14.9134 5.8718 15.3698 6.54624C15.8262 7.22068 16.0699 8.01377 16.0702 8.82517C16.0695 9.9117 15.6331 10.9536 14.8566 11.7227C14.0801 12.4917 13.0269 12.9251 11.9277 12.9279ZM11.9277 5.44887C11.2518 5.44861 10.591 5.64652 10.0289 6.01755C9.4668 6.38859 9.02864 6.91609 8.76986 7.53332C8.51107 8.15056 8.44329 8.82979 8.57509 9.48511C8.70689 10.1404 9.03235 10.7424 9.51029 11.2148C9.98824 11.6873 10.5972 12.009 11.2601 12.1393C11.9231 12.2696 12.6102 12.2026 13.2346 11.9468C13.859 11.6909 14.3927 11.2578 14.768 10.7022C15.1434 10.1465 15.3436 9.49332 15.3433 8.82517C15.3419 7.93015 14.9816 7.07219 14.3414 6.43931C13.7011 5.80643 12.8332 5.45027 11.9277 5.44887Z" fill="white"/>
<path d="M11.9277 20.4279C11.8745 20.4276 11.8219 20.4157 11.774 20.3929C11.726 20.3701 11.6837 20.337 11.6503 20.2961C11.2969 19.886 3 13.579 3 8.82506C3 6.48451 3.94059 4.23982 5.61486 2.5848C7.28913 0.929781 9.55993 0 11.9277 0C14.2955 0 16.5663 0.929781 18.2405 2.5848C19.9148 4.23982 20.8554 6.48451 20.8554 8.82506C20.8554 13.5804 12.5625 19.886 12.2091 20.3013C12.1746 20.342 12.1315 20.3749 12.083 20.3976C12.0344 20.4204 11.9814 20.4325 11.9277 20.4332V20.4279ZM11.9277 0.722458C9.75441 0.724552 7.67074 1.57889 6.134 3.09797C4.59725 4.61705 3.73298 6.67676 3.73086 8.82506C3.73086 12.846 10.4593 17.7147 11.9277 19.5011C13.3948 17.7147 20.1259 12.846 20.1259 8.82506C20.1238 6.67653 19.2593 4.61662 17.7223 3.0975C16.1852 1.57839 14.1012 0.724203 11.9277 0.722458Z" fill="white"/>
</g>
<defs>
<clipPath id="clip0_23_160">
<rect width="23" height="23" fill="white"/>
</clipPath>
</defs>
</svg>
