<svg width="80" height="80" viewBox="0 0 80 80" fill="none" xmlns="http://www.w3.org/2000/svg">
<g filter="url(#filter0_d_643_560)">
<path d="M10 36C10 19.4315 23.4315 6 40 6C56.5685 6 70 19.4315 70 36C70 52.5685 56.5685 66 40 66H13.75C11.6789 66 10 64.3211 10 62.25L10 36Z" fill="#D1BE99"/>
</g>
<path d="M16 36C16 22.7452 26.7452 12 40 12C53.2548 12 64 22.7452 64 36C64 49.2548 53.2548 60 40 60H19C17.3431 60 16 58.6569 16 57L16 36Z" fill="white"/>
<path d="M26.1999 49.1995H27.4899V22.1995C27.4899 22.0075 27.5799 21.8275 27.7359 21.7135C27.8919 21.6055 28.0899 21.5695 28.2699 21.6295L43.5699 26.5915C43.8219 26.6755 43.9899 26.9035 43.9899 27.1615V49.1995H45.1899V35.6875L52.3119 42.1555C52.4379 42.2695 52.5099 42.4315 52.5099 42.5995V49.1995H53.7999C54.1299 49.1995 54.3999 49.4695 54.3999 49.7995C54.3999 50.1355 54.1299 50.3995 53.7999 50.3995H51.9099H45.0819H43.3899H28.0899H26.1999C25.8699 50.3995 25.5999 50.1355 25.5999 49.7995C25.5999 49.4695 25.8699 49.1995 26.1999 49.1995ZM32.6679 30.5095C32.6679 30.3655 32.5479 30.2515 32.4039 30.2515H30.4419C30.2979 30.2515 30.1839 30.3655 30.1839 30.5095V32.4715C30.1839 32.6155 30.2979 32.7355 30.4419 32.7355H32.4039C32.5479 32.7355 32.6679 32.6155 32.6679 32.4715V30.5095ZM32.6679 35.4175C32.6679 35.2735 32.5479 35.1535 32.4039 35.1535H30.4419C30.2979 35.1535 30.1839 35.2735 30.1839 35.4175V37.3735C30.1839 37.5175 30.2979 37.6375 30.4419 37.6375H32.4039C32.5479 37.6375 32.6679 37.5175 32.6679 37.3735V35.4175ZM32.6679 40.3195C32.6679 40.1755 32.5479 40.0555 32.4039 40.0555H30.4419C30.2979 40.0555 30.1839 40.1755 30.1839 40.3195V42.2815C30.1839 42.4255 30.2979 42.5395 30.4419 42.5395H32.4039C32.5479 42.5395 32.6679 42.4255 32.6679 42.2815V40.3195ZM32.6679 45.2215C32.6679 45.0775 32.5479 44.9635 32.4039 44.9635H30.4419C30.2979 44.9635 30.1839 45.0775 30.1839 45.2215V47.1835C30.1839 47.3275 30.2979 47.4475 30.4419 47.4475H32.4039C32.5479 47.4475 32.6679 47.3275 32.6679 47.1835V45.2215ZM36.9819 30.5095C36.9819 30.3655 36.8619 30.2515 36.7179 30.2515H34.7559C34.6119 30.2515 34.4979 30.3655 34.4979 30.5095V32.4715C34.4979 32.6155 34.6119 32.7355 34.7559 32.7355H36.7179C36.8619 32.7355 36.9819 32.6155 36.9819 32.4715V30.5095ZM36.9819 35.4175C36.9819 35.2735 36.8619 35.1535 36.7179 35.1535H34.7559C34.6119 35.1535 34.4979 35.2735 34.4979 35.4175V37.3735C34.4979 37.5175 34.6119 37.6375 34.7559 37.6375H36.7179C36.8619 37.6375 36.9819 37.5175 36.9819 37.3735V35.4175ZM36.9819 40.3195C36.9819 40.1755 36.8619 40.0555 36.7179 40.0555H34.7559C34.6119 40.0555 34.4979 40.1755 34.4979 40.3195V42.2815C34.4979 42.4255 34.6119 42.5395 34.7559 42.5395H36.7179C36.8619 42.5395 36.9819 42.4255 36.9819 42.2815V40.3195ZM36.9819 45.2215C36.9819 45.0775 36.8619 44.9635 36.7179 44.9635H34.7559C34.6119 44.9635 34.4979 45.0775 34.4979 45.2215V47.1835C34.4979 47.3275 34.6119 47.4475 34.7559 47.4475H36.7179C36.8619 47.4475 36.9819 47.3275 36.9819 47.1835V45.2215ZM41.2959 30.5095C41.2959 30.3655 41.1759 30.2515 41.0319 30.2515H39.0699C38.9259 30.2515 38.8119 30.3655 38.8119 30.5095V32.4715C38.8119 32.6155 38.9259 32.7355 39.0699 32.7355H41.0319C41.1759 32.7355 41.2959 32.6155 41.2959 32.4715V30.5095ZM41.2959 35.4175C41.2959 35.2735 41.1759 35.1535 41.0319 35.1535H39.0699C38.9259 35.1535 38.8119 35.2735 38.8119 35.4175V37.3735C38.8119 37.5175 38.9259 37.6375 39.0699 37.6375H41.0319C41.1759 37.6375 41.2959 37.5175 41.2959 37.3735V35.4175ZM41.2959 40.3195C41.2959 40.1755 41.1759 40.0555 41.0319 40.0555H39.0699C38.9259 40.0555 38.8119 40.1755 38.8119 40.3195V42.2815C38.8119 42.4255 38.9259 42.5395 39.0699 42.5395H41.0319C41.1759 42.5395 41.2959 42.4255 41.2959 42.2815V40.3195ZM41.2959 45.2215C41.2959 45.0775 41.1759 44.9635 41.0319 44.9635H39.0699C38.9259 44.9635 38.8119 45.0775 38.8119 45.2215V47.1835C38.8119 47.3275 38.9259 47.4475 39.0699 47.4475H41.0319C41.1759 47.4475 41.2959 47.3275 41.2959 47.1835V45.2215Z" fill="#474350"/>
<defs>
<filter id="filter0_d_643_560" x="0" y="0" width="80" height="80" filterUnits="userSpaceOnUse" color-interpolation-filters="sRGB">
<feFlood flood-opacity="0" result="BackgroundImageFix"/>
<feColorMatrix in="SourceAlpha" type="matrix" values="0 0 0 0 0 0 0 0 0 0 0 0 0 0 0 0 0 0 127 0" result="hardAlpha"/>
<feOffset dy="4"/>
<feGaussianBlur stdDeviation="5"/>
<feComposite in2="hardAlpha" operator="out"/>
<feColorMatrix type="matrix" values="0 0 0 0 0.392157 0 0 0 0 0.368627 0 0 0 0 0.439216 0 0 0 0.3 0"/>
<feBlend mode="normal" in2="BackgroundImageFix" result="effect1_dropShadow_643_560"/>
<feBlend mode="normal" in="SourceGraphic" in2="effect1_dropShadow_643_560" result="shape"/>
</filter>
</defs>
</svg>
