<svg width="86" height="33" viewBox="0 0 86 33" fill="none" xmlns="http://www.w3.org/2000/svg">
<g filter="url(#filter0_i_619_5224)">
<path fill-rule="evenodd" clip-rule="evenodd" d="M47.7851 21.2469V18.7763H54.6416V21.6269L66.435 23.1473V32.0793H55.1903L54.2759 31.1291L53.3435 32.0793H50.0706V21.2469H47.7851ZM61.8639 29.6087H54.6416V24.0025L61.8639 24.9527V29.6087Z" fill="#A2D729"/>
<path fill-rule="evenodd" clip-rule="evenodd" d="M28.7862 24.4776V22.007H47.2536V27.0432L35.6427 28.7536V29.6087H42.6822V28.7536L47.2536 28.2785V32.0793H31.0717V24.4776H28.7862ZM42.6822 25.3328L35.6427 26.302V24.4776H42.6822V25.3328Z" fill="#A2D729"/>
<path fill-rule="evenodd" clip-rule="evenodd" d="M0.662854 1.1703V3.86891H3.38711V14.4733H20.5748V9.47515L15.8025 10.1593V11.7747H8.15948V1.1703H0.662854ZM21.3043 4.40103V6.87158H23.5898V14.4733H28.1608V4.40103H21.3043ZM23.5898 0.410131V3.07073H28.1608V0.410131H23.5898ZM29.8038 4.40103V6.87158H32.0893V12.1928L36.5693 14.4733H44.7974V12.0028H37.7576L36.6607 11.4326V6.87158H41.1403V4.40103H36.6607V1.1703H32.0893V4.40103H29.8038ZM43.3029 4.40103V6.87158H45.5885V12.1928L50.0681 14.4733H58.2962V12.0028H51.2568L50.1595 11.4326V6.87158H54.6391V4.40103H50.1595V1.1703H45.5885V4.40103H43.3029ZM60.3049 1.1703V14.4733H67.1614V12.0028H64.8759V1.1703H60.3049ZM67.1585 4.40103V6.87158H69.444V14.4733H85.626V10.6724L81.0549 11.1476V12.0028H74.0151V11.1476L85.626 9.43715V4.40103H67.1585ZM81.0549 7.72677L74.0151 8.69602V6.87158H81.0549V7.72677Z" fill="#6E46E5"/>
<path d="M0.47998 24.1295V20.0186H6.82584L10.2256 27.6893L13.0413 20.0186H18.3808L21.1965 27.8224L24.177 20.0186H28.4716L24.177 32.0793H18.3808L15.711 24.5727L13.0413 32.0793H7.2451L4.02463 24.1295H0.47998Z" fill="#A2D729"/>
</g>
<defs>
<filter id="filter0_i_619_5224" x="0.47998" y="-0.589869" width="85.146" height="32.6692" filterUnits="userSpaceOnUse" color-interpolation-filters="sRGB">
<feFlood flood-opacity="0" result="BackgroundImageFix"/>
<feBlend mode="normal" in="SourceGraphic" in2="BackgroundImageFix" result="shape"/>
<feColorMatrix in="SourceAlpha" type="matrix" values="0 0 0 0 0 0 0 0 0 0 0 0 0 0 0 0 0 0 127 0" result="hardAlpha"/>
<feOffset dy="-1"/>
<feGaussianBlur stdDeviation="2"/>
<feComposite in2="hardAlpha" operator="arithmetic" k2="-1" k3="1"/>
<feColorMatrix type="matrix" values="0 0 0 0 0 0 0 0 0 0 0 0 0 0 0 0 0 0 0.4 0"/>
<feBlend mode="normal" in2="shape" result="effect1_innerShadow_619_5224"/>
</filter>
</defs>
</svg>
