<svg width="51" height="39" viewBox="0 0 51 39" fill="none" xmlns="http://www.w3.org/2000/svg">
<g filter="url(#filter0_i_619_5220)">
<path fill-rule="evenodd" clip-rule="evenodd" d="M31.2095 28.6957H35.4296C35.4296 28.6957 34.9871 32.0008 37.2729 32.6412C38.6028 33.0138 39.3281 32.8042 39.8586 32.6509C39.8699 32.6476 39.8811 32.6444 39.8923 32.6412C42.8505 31.7884 41.9781 25.178 41.9781 25.178C41.9781 25.178 28.8307 25.178 26.0118 24.18C20.2393 22.1362 21.023 11.44 21.023 11.44V1.45744L36.8848 1.41013C36.8848 1.41013 39.4072 1.5052 40.9109 2.40839C42.3731 3.28664 43.9669 4.64259 44.7915 5.9736C44.8367 6.0466 44.888 6.12417 44.9433 6.20783C45.3458 6.81647 45.9615 7.74752 46.0041 9.58636C46.0526 11.678 46.1012 20.8997 46.1012 20.8997H49.7392V25.178H46.1012C46.1012 25.178 46.493 30.1988 44.7915 32.6412C43.1825 34.9506 41.481 36.353 38.6311 36.4916C35.396 36.649 32.7074 35.2252 31.5491 32.2609C31.0388 30.955 31.2095 28.6957 31.2095 28.6957ZM25.5342 15.9087L25.0419 4.83274H36.8848C36.8848 4.83274 39.4184 4.98709 40.5156 5.9736C41.6568 6.99975 41.9781 9.58636 41.9781 9.58636V20.8997H30.7657C28.3889 20.8997 25.5342 19.5214 25.5342 15.9087Z" fill="#A2D729"/>
<path d="M30.7657 20.8997C28.3889 20.8997 25.5342 19.5214 25.5342 15.9087L25.0419 4.83274H36.8848C36.8848 4.83274 39.4184 4.98709 40.5156 5.9736C41.6568 6.99975 41.9781 9.58636 41.9781 9.58636V20.8997M30.7657 20.8997C33.1425 20.8997 41.9781 20.8997 41.9781 20.8997M30.7657 20.8997H41.9781M31.2095 28.6957H35.4296C35.4296 28.6957 34.9871 32.0008 37.2729 32.6412C38.6028 33.0138 39.3281 32.8042 39.8586 32.6509C39.8699 32.6476 39.8811 32.6444 39.8923 32.6412C42.8505 31.7884 41.9781 25.178 41.9781 25.178C41.9781 25.178 28.8307 25.178 26.0118 24.18C20.2393 22.1362 21.023 11.44 21.023 11.44V1.45744L36.8848 1.41013C36.8848 1.41013 39.4072 1.5052 40.9109 2.40839C42.3731 3.28664 43.9668 4.64259 44.7915 5.9736C44.8367 6.0466 44.888 6.12417 44.9433 6.20783C45.3458 6.81647 45.9615 7.74752 46.0041 9.58636C46.0526 11.678 46.1012 20.8997 46.1012 20.8997H49.7392V25.178H46.1012C46.1012 25.178 46.493 30.1988 44.7915 32.6412C43.1825 34.9506 41.481 36.353 38.6311 36.4916C35.396 36.649 32.7074 35.2252 31.5491 32.2609C31.0388 30.955 31.2095 28.6957 31.2095 28.6957Z" stroke="#A2D729"/>
<path d="M32.092 13.1058C32.1176 12.2266 32.7956 11.5155 33.6928 11.4896C34.6167 11.463 35.3641 12.2004 35.3905 13.1058C35.4177 14.0376 34.6435 14.8445 33.6928 14.8172C32.768 14.7905 32.0656 14.0121 32.092 13.1058Z" fill="#A2D729"/>
<path d="M19.6461 5.70713C19.6461 5.70713 16.976 5.53182 15.2805 5.70713C13.0279 5.94004 11.7452 6.23371 9.65367 7.08568C7.34337 8.02676 5.98396 8.67357 4.22089 10.4132C2.02301 12.5819 1.17083 14.3352 0.437344 17.306C0.0565645 18.8482 0.000780632 21.3465 0.000780632 21.3465V37.8891C0.000780632 37.8891 -0.0152305 38.3094 0.0977715 38.4596C0.198341 38.5932 0.437344 38.5547 0.437344 38.5547H14.1648C14.7237 38.5445 14.8663 38.4038 14.7954 37.8891V35.4648C14.7954 35.4648 14.9409 33.1831 18.4819 33.1831C20.0266 33.1831 21.7804 33.5158 22.5565 34.7042C22.916 35.2546 22.9446 37.699 22.9446 37.699C22.9589 38.253 23.0408 38.4043 23.2841 38.4596C23.2841 38.4596 30.5117 38.5547 34.9258 38.5547C35.8959 38.5547 36.2355 38.6138 36.2355 38.0793V37.3662C36.2355 37.3662 34.271 37.2126 33.228 36.6057C32.3067 36.0695 30.9967 34.7042 30.9967 34.7042H26.1945C26.1945 34.7042 25.758 31.7745 22.5565 30.1883C21.0886 29.461 20.1263 29.1012 18.4819 29.1425C16.9836 29.1801 16.1479 29.5553 14.7954 30.1883C11.5454 31.7094 11.5454 35.4648 11.5454 35.4648H4.22089V21.3465C4.22089 21.3465 4.44264 18.8169 4.99698 17.306C5.55349 15.7891 5.94249 14.8989 7.03427 13.6932C8.19925 12.4067 9.15481 11.9506 10.7208 11.1738C12.3937 10.344 13.427 9.97775 15.2805 9.70018C16.9658 9.44779 19.6461 9.70018 19.6461 9.70018V5.70713Z" fill="#A2D729"/>
</g>
<defs>
<filter id="filter0_i_619_5220" x="0" y="0.910103" width="50.2393" height="41.6497" filterUnits="userSpaceOnUse" color-interpolation-filters="sRGB">
<feFlood flood-opacity="0" result="BackgroundImageFix"/>
<feBlend mode="normal" in="SourceGraphic" in2="BackgroundImageFix" result="shape"/>
<feColorMatrix in="SourceAlpha" type="matrix" values="0 0 0 0 0 0 0 0 0 0 0 0 0 0 0 0 0 0 127 0" result="hardAlpha"/>
<feOffset dy="6"/>
<feGaussianBlur stdDeviation="2"/>
<feComposite in2="hardAlpha" operator="arithmetic" k2="-1" k3="1"/>
<feColorMatrix type="matrix" values="0 0 0 0 0 0 0 0 0 0 0 0 0 0 0 0 0 0 0.25 0"/>
<feBlend mode="normal" in2="shape" result="effect1_innerShadow_619_5220"/>
</filter>
</defs>
</svg>
