<svg width="215" height="78" viewBox="0 0 215 78" fill="none" xmlns="http://www.w3.org/2000/svg">
<g clip-path="url(#clip0_1_18)">
<path fill-rule="evenodd" clip-rule="evenodd" d="M0.109253 42.7742V78H215V77.8906V70.8892V67.6073H208.008V70.8892H7.10112V49.7756H208.008V53.1669H215V49.7756V42.7742H0.109253Z" fill="#F18822"/>
<path d="M177.419 56.8864H18.7906V63.8878H177.419V56.8864Z" fill="#F18822"/>
<path d="M7.10112 35.7728H0.109253V0.656372H13.1098C18.7907 0.656372 22.2866 5.25104 22.2866 10.9397C22.2866 16.7377 18.6814 21.5512 13.0005 21.5512H7.10112V35.7728ZM7.10112 16.3001H10.4878C13.8745 16.3001 15.5132 14.4404 15.5132 11.0491C15.5132 7.76717 13.8745 5.90742 10.4878 5.90742H7.10112V16.3001Z" fill="#F18822"/>
<path d="M46.5397 0.656372V6.01682H34.4131V14.2216H45.4472V19.582H34.4131V30.5217H46.5397V35.8822H27.749V0.656372H46.5397Z" fill="#F18822"/>
<path d="M60.6326 0.656372L70.3557 26.1459C69.5909 22.2076 69.4817 17.0659 69.4817 13.0182V0.656372H75.7088V35.7728H68.4985L58.8846 10.2833C59.6494 13.6746 59.7586 19.8008 59.7586 23.3015V35.7728H53.5315V0.656372H60.6326Z" fill="#F18822"/>
<path d="M89.5833 0.656372H98.5417L106.298 35.7728H99.0879L97.4492 26.5834H89.9111L87.8354 35.7728H80.7343L89.5833 0.656372ZM96.5752 21.4418L93.9533 5.03225L90.6758 21.4418H96.5752Z" fill="#F18822"/>
<path d="M117.66 30.4123H129.787V35.7728H110.996V0.656372H117.66V30.4123Z" fill="#F18822"/>
<path d="M135.249 0.656372H147.485C153.603 0.656372 156.115 4.70406 156.115 9.18933C156.115 12.5806 154.367 16.3001 151.418 16.8471C154.914 18.2693 156.662 20.7854 156.662 25.2707C156.662 31.3969 154.04 35.6634 148.687 35.6634H135.249V0.656372ZM141.804 14.878H145.3C148.25 14.878 149.451 13.1276 149.451 10.0645C149.451 7.11079 148.468 5.57923 145.409 5.57923H141.804V14.878ZM141.804 30.7405H146.065C148.577 30.7405 149.779 29.209 149.779 25.2707C149.779 21.77 148.577 19.9102 146.065 19.9102H141.804V30.7405Z" fill="#F18822"/>
<path d="M173.923 0C180.696 0 185.175 3.06311 185.175 12.0337V24.8331C185.175 33.8036 180.696 36.648 173.923 36.648C167.259 36.648 162.452 33.6942 162.452 24.8331V12.0337C162.452 3.17251 167.259 0 173.923 0ZM169.334 11.2679V25.5989C169.334 29.209 170.755 31.2875 173.923 31.2875C176.763 31.2875 178.402 29.3184 178.402 25.5989V11.3773C178.402 7.65778 176.763 5.36045 173.923 5.36045C170.755 5.36045 169.334 7.43899 169.334 11.2679Z" fill="#F18822"/>
<path d="M198.067 0.656372L202.546 12.143L207.353 0.656372H214.782L206.151 17.7223L215.109 35.7728H207.68L202.546 22.8639L197.302 35.7728H190.092L198.504 17.7223L190.419 0.656372H198.067Z" fill="#F18822"/>
<path d="M186.377 63.8878H185.722C185.612 63.8878 185.503 63.8878 185.394 63.7784C185.285 63.669 185.175 63.5596 185.175 63.4502L183.646 58.1991V63.4502C183.646 63.5596 183.646 63.669 183.537 63.7784C183.427 63.8878 183.318 63.8878 183.209 63.8878H182.444C182.335 63.8878 182.226 63.8878 182.116 63.7784C182.007 63.669 182.007 63.5596 182.007 63.4502V56.777C182.007 56.6676 182.007 56.5582 182.116 56.4488C182.226 56.3394 182.335 56.3394 182.444 56.3394H184.192C184.301 56.3394 184.411 56.3394 184.52 56.4488C184.629 56.5582 184.738 56.6676 184.738 56.777L186.049 61.3716L187.36 56.777C187.36 56.6676 187.469 56.5582 187.579 56.4488C187.688 56.3394 187.797 56.3394 187.906 56.3394H189.654C189.764 56.3394 189.873 56.3394 189.982 56.4488C190.091 56.5582 190.091 56.6676 190.091 56.777V63.4502C190.091 63.5596 190.091 63.669 189.982 63.7784C189.873 63.8878 189.764 63.8878 189.654 63.8878H188.89C188.78 63.8878 188.671 63.8878 188.562 63.7784C188.453 63.669 188.453 63.5596 188.453 63.4502V58.1991L186.814 63.4502C186.814 63.5596 186.705 63.669 186.595 63.7784C186.486 63.8878 186.486 63.8878 186.377 63.8878Z" fill="#F18822"/>
<path d="M191.949 63.0126C191.402 62.3562 191.184 61.3717 191.184 60.0589C191.184 58.7461 191.402 57.7616 191.949 57.1052C192.495 56.4488 193.26 56.1206 194.352 56.1206H195.335C195.991 56.1206 196.537 56.3394 197.083 56.777C197.629 57.2146 197.848 57.7616 197.848 58.5273C197.848 58.7461 197.848 58.8555 197.739 58.9649C197.629 59.0743 197.52 59.0743 197.411 59.0743H196.865C196.646 59.0743 196.428 58.8555 196.209 58.5273C195.991 57.9804 195.663 57.6522 195.117 57.6522H194.352C193.697 57.6522 193.26 57.871 193.041 58.1991C192.823 58.5273 192.713 59.1837 192.713 60.0589C192.713 60.9341 192.823 61.5905 193.041 61.9186C193.26 62.2468 193.697 62.4656 194.352 62.4656H195.226C195.663 62.4656 196.1 62.1374 196.318 61.5905C196.428 61.1529 196.646 61.0435 196.974 61.0435H197.52C197.52 61.0435 197.629 61.0435 197.739 61.0435C197.848 61.0435 197.848 61.1529 197.957 61.2623C198.066 61.3717 198.066 61.4811 198.066 61.5905C198.066 62.3562 197.848 62.9032 197.302 63.3408C196.755 63.7784 196.209 63.9972 195.554 63.9972H194.461C193.26 63.9972 192.495 63.669 191.949 63.0126Z" fill="#F18822"/>
<path d="M200.252 63.8878H199.487C199.378 63.8878 199.268 63.8878 199.159 63.7784C199.05 63.669 199.05 63.5596 199.05 63.4502V56.777C199.05 56.6676 199.05 56.5582 199.159 56.4488C199.268 56.3394 199.378 56.3394 199.487 56.3394H200.252C200.361 56.3394 200.47 56.3394 200.579 56.4488C200.689 56.5582 200.689 56.6676 200.689 56.777V59.2931H201.563C201.781 59.2931 202 59.1837 202.218 59.0743C202.437 58.8555 202.546 58.6367 202.764 58.1992L203.42 56.777C203.529 56.4488 203.747 56.23 204.075 56.23H205.058C205.168 56.23 205.277 56.23 205.277 56.3394C205.277 56.4488 205.277 56.5582 205.168 56.6676L204.294 58.7461C204.184 59.0743 203.966 59.2931 203.857 59.5119C203.638 59.7307 203.42 59.8401 203.201 59.9495C203.42 59.9495 203.529 60.1683 203.747 60.3871C203.966 60.6059 204.075 60.9341 204.294 61.1529L205.386 63.2314C205.495 63.3408 205.495 63.4502 205.495 63.5596C205.495 63.669 205.386 63.669 205.277 63.669H204.294C204.184 63.669 204.075 63.669 203.966 63.5596C203.857 63.4502 203.747 63.3408 203.638 63.2314L202.873 61.6999C202.655 61.3717 202.546 61.0435 202.327 60.8247C202.109 60.6059 201.89 60.6059 201.672 60.6059H200.798V63.4502C200.798 63.5596 200.798 63.669 200.689 63.7784C200.579 63.8878 200.361 63.8878 200.252 63.8878Z" fill="#F18822"/>
</g>
<defs>
<clipPath id="clip0_1_18">
<rect width="215" height="78" fill="white"/>
</clipPath>
</defs>
</svg>
