<svg width="50" height="50" viewBox="0 0 50 50" fill="none" xmlns="http://www.w3.org/2000/svg">
<path d="M43.2001 12.2C43.7001 12.7 44.3001 12.7 44.7001 12.3C45.1001 11.9 45.1001 11.3 44.7001 10.9L43.1001 9.3C42.7001 8.9 42.1001 8.9 41.7001 9.3C41.3001 9.7 41.3001 10.3 41.7001 10.7L41.8001 10.8L40.2001 12.4C37.0001 9.2 32.8001 7 28.0001 6.4V3H29.3001C29.9001 3 30.3001 2.6 30.3001 2C30.3001 1.4 29.9001 1 29.3001 1H20.8001C20.2001 1 19.8001 1.4 19.8001 2C19.8001 2.6 20.2001 3 20.8001 3H22.0001V6.4C17.3001 7.1 13.0001 9.3 9.8001 12.5L8.1001 10.8L8.2001 10.7C8.6001 10.3 8.6001 9.7 8.2001 9.3C7.8001 8.9 7.2001 8.9 6.8001 9.3L5.2001 10.9C4.8001 11.3 4.8001 11.9 5.2001 12.3C5.6001 12.7 6.2001 12.7 6.6001 12.3L6.7001 12.2L8.5001 14C5.4001 17.7 3.6001 22.5 3.6001 27.6C3.6001 39.4 13.2001 49 25.0001 49C36.8001 49 46.4001 39.4 46.4001 27.6C46.4001 22.4 44.5001 17.7 41.5001 13.9L43.2001 12.2ZM24.0001 3H26.0001V6.2C25.7001 6.2 25.4001 6.2 25.0001 6.2C24.7001 6.2 24.4001 6.2 24.0001 6.2V3ZM44.4001 27.6C44.4001 38.3 35.7001 47 25.0001 47C14.3001 47 5.6001 38.3 5.6001 27.6C5.6001 16.9 14.3001 8.2 25.0001 8.2C35.7001 8.2 44.4001 16.9 44.4001 27.6Z" fill="url(#paint0_linear_566_2239)"/>
<path d="M24.9999 13C16.9999 13 10.3999 19.5 10.3999 27.6C10.3999 35.6 16.8999 42.2 24.9999 42.2C33.0999 42.2 39.5999 35.7 39.5999 27.6C39.5999 19.6 32.9999 13 24.9999 13ZM34.1999 28.6H37.4999C36.9999 34.7 32.0999 39.6 25.9999 40.1V36.8C25.9999 36.2 25.5999 35.8 24.9999 35.8C24.3999 35.8 23.9999 36.2 23.9999 36.8V40.1C17.8999 39.6 12.9999 34.7 12.4999 28.6H15.7999C16.3999 28.6 16.7999 28.2 16.7999 27.6C16.7999 27 16.3999 26.6 15.7999 26.6H12.4999C12.9999 20.5 17.8999 15.6 23.9999 15.1V18.4C23.9999 19 24.3999 19.4 24.9999 19.4C25.5999 19.4 25.9999 19 25.9999 18.4V15.1C32.0999 15.6 36.9999 20.5 37.4999 26.6H34.1999C33.5999 26.6 33.1999 27 33.1999 27.6C33.1999 28.2 33.6999 28.6 34.1999 28.6Z" fill="url(#paint1_linear_566_2239)"/>
<path d="M26 27.2V23.7C26 23.1 25.6 22.7 25 22.7C24.4 22.7 24 23.1 24 23.7V27.7C24 28 24.1 28.2 24.3 28.4L27.5 31.6C27.7 31.8 28 31.9 28.2 31.9C28.4 31.9 28.7 31.8 28.9 31.6C29.3 31.2 29.3 30.6 28.9 30.2L26 27.2Z" fill="url(#paint2_linear_566_2239)"/>
<defs>
<linearGradient id="paint0_linear_566_2239" x1="39.115" y1="57.5" x2="19.0554" y2="-13.5935" gradientUnits="userSpaceOnUse">
<stop stop-color="#4531C6"/>
<stop offset="0.694206" stop-color="#A2D729"/>
</linearGradient>
<linearGradient id="paint1_linear_566_2239" x1="34.6297" y1="47.3708" x2="23.5818" y2="3.4587" gradientUnits="userSpaceOnUse">
<stop stop-color="#4531C6"/>
<stop offset="0.694206" stop-color="#A2D729"/>
</linearGradient>
<linearGradient id="paint2_linear_566_2239" x1="28.3149" y1="33.5292" x2="22.8495" y2="21.2509" gradientUnits="userSpaceOnUse">
<stop stop-color="#4531C6"/>
<stop offset="0.694206" stop-color="#A2D729"/>
</linearGradient>
</defs>
</svg>
