<svg width="50" height="50" viewBox="0 0 50 50" fill="none" xmlns="http://www.w3.org/2000/svg">
<path d="M26.0002 31.5C28.2002 30.8 29.1002 28.5 28.2002 26.5C27.6002 25.2 26.3002 24.4 24.9002 24.4C22.7002 23.9 23.4002 21.2 25.1002 21.2H25.3002C25.7002 21.2 26.1002 21.4 26.4002 21.8C26.8002 22.2 27.4002 22.2 27.8002 21.9C28.2002 21.5 28.2002 20.9 27.9002 20.5C27.4002 19.9 26.8002 19.6 26.1002 19.4C26.0002 19 26.5002 17.1 25.1002 17.1C24.5002 17.1 24.1002 17.5 24.1002 18.1V19.5C23.6002 19.7 23.2002 19.9 22.8002 20.3C21.5002 21.5 21.0002 23.7 22.6002 25.4C24.2002 27.2 25.8002 25.9 26.5002 27.5C27.0002 28.6 26.4002 29.8 25.0002 29.8C24.5002 29.8 24.1002 29.6 23.8002 29.3C23.4002 28.9 22.8002 28.9 22.4002 29.2C21.4002 30.1 22.8002 31.3 24.1002 31.7C24.2002 32.1 23.7002 34 25.1002 34C26.4002 33.9 25.9002 32 26.0002 31.5Z" fill="url(#paint0_linear_566_2267)"/>
<path d="M3.5 25.5C3.5 24.9 3.1 24.5 2.5 24.5C1.9 24.5 1.5 24.9 1.5 25.5C1.5 38.4 12 49 25 49C38 49 48.5 38.4 48.5 25.5C48.5 12.6 38 2 25 2C18.9 2 13.1 4.3 8.7 8.5V2C8.7 1.5 8.2 1 7.7 1C7.1 1 6.7 1.5 6.7 2L6.8 11C6.8 11.5 7.3 12 7.8 12L16.8 11.9C17.4 11.9 17.8 11.4 17.8 10.9C17.8 10.4 17.3 9.9 16.8 9.9L10.1 10C14.1 6.2 19.4 4 25 4C36.9 4 46.5 13.7 46.5 25.5C46.5 37.3 36.9 47 25 47C13.1 47 3.5 37.3 3.5 25.5Z" fill="url(#paint1_linear_566_2267)"/>
<path d="M38.9001 25.5C38.9001 17.8 32.7001 11.6 25.0001 11.6C17.3001 11.6 11.1001 17.8 11.1001 25.5C11.1001 33.2 17.3001 39.4 25.0001 39.4C32.7001 39.4 38.9001 33.1 38.9001 25.5ZM13.1001 25.5C13.1001 19 18.4001 13.6 25.0001 13.6C31.6001 13.6 36.9001 18.9 36.9001 25.5C36.9001 32.1 31.5001 37.4 25.0001 37.4C18.5001 37.4 13.1001 32 13.1001 25.5Z" fill="url(#paint2_linear_566_2267)"/>
<defs>
<linearGradient id="paint0_linear_566_2267" x1="27.3632" y1="36.9927" x2="15.3323" y2="17.3307" gradientUnits="userSpaceOnUse">
<stop stop-color="#4531C6"/>
<stop offset="0.694206" stop-color="#A2D729"/>
</linearGradient>
<linearGradient id="paint1_linear_566_2267" x1="40.5" y1="57.5" x2="22" y2="-14.5" gradientUnits="userSpaceOnUse">
<stop stop-color="#4531C6"/>
<stop offset="0.694206" stop-color="#A2D729"/>
</linearGradient>
<linearGradient id="paint2_linear_566_2267" x1="34.1682" y1="44.3229" x2="23.65" y2="2.51613" gradientUnits="userSpaceOnUse">
<stop stop-color="#4531C6"/>
<stop offset="0.694206" stop-color="#A2D729"/>
</linearGradient>
</defs>
</svg>
