<svg width="50" height="50" viewBox="0 0 50 50" fill="none" xmlns="http://www.w3.org/2000/svg">
<g clip-path="url(#clip0_597_1384)">
<path d="M18.1442 38.5H16.2051C15.9419 38.5 15.7285 38.2867 15.7285 38.0234C15.7285 37.7602 15.9419 37.5469 16.2051 37.5469H18.1442C18.4075 37.5469 18.6208 37.7602 18.6208 38.0234C18.6208 38.2867 18.4075 38.5 18.1442 38.5Z" fill="black" stroke="url(#paint0_linear_597_1384)"/>
<path d="M7.37578 38.5H5.43652C5.17331 38.5 4.95996 38.2867 4.95996 38.0234C4.95996 37.7602 5.17331 37.5469 5.43652 37.5469H7.37578C7.63899 37.5469 7.85234 37.7602 7.85234 38.0234C7.85234 38.2867 7.63899 38.5 7.37578 38.5Z" fill="black" stroke="url(#paint1_linear_597_1384)"/>
<path d="M11.3628 38.192L11.3628 38.1921C11.4303 38.372 11.6147 38.5 11.8087 38.5C12.0342 38.5 12.2399 38.3267 12.2785 38.0989L12.2785 38.0989C12.3104 37.9114 12.2145 37.7081 12.0473 37.6122L12.0472 37.6121C11.8727 37.512 11.6451 37.5342 11.4925 37.6668L11.3628 38.192ZM11.3628 38.192C11.2941 38.0086 11.3496 37.7911 11.4925 37.6668L11.3628 38.192Z" fill="black" stroke="url(#paint2_linear_597_1384)"/>
<path d="M44.5638 17.604H31.856C31.5927 17.604 31.3794 17.3907 31.3794 17.1274C31.3794 16.8642 31.5927 16.6509 31.856 16.6509H44.5637C44.8269 16.6509 45.0402 16.8642 45.0402 17.1274C45.0402 17.3907 44.8269 17.604 44.5638 17.604Z" fill="black" stroke="url(#paint3_linear_597_1384)"/>
<path d="M44.5638 12.4531H31.856C31.5927 12.4531 31.3794 12.2398 31.3794 11.9766C31.3794 11.7133 31.5927 11.5 31.856 11.5H44.5637C44.8269 11.5 45.0402 11.7133 45.0402 11.9766C45.0402 12.2398 44.8269 12.4531 44.5638 12.4531Z" fill="black" stroke="url(#paint4_linear_597_1384)"/>
<path d="M44.5638 7.30225H31.856C31.5927 7.30225 31.3794 7.0889 31.3794 6.82568C31.3794 6.56247 31.5927 6.34912 31.856 6.34912H44.5637C44.8269 6.34912 45.0402 6.56247 45.0402 6.82568C45.0402 7.08893 44.8269 7.30225 44.5638 7.30225Z" fill="black" stroke="url(#paint5_linear_597_1384)"/>
<path d="M34.6394 23.8981L34.4929 23.7517H34.2858H27.396C27.1328 23.7517 26.9194 23.5383 26.9194 23.2751V0.976562C26.9194 0.713349 27.1328 0.5 27.396 0.5H49.0234C49.2866 0.5 49.5 0.71335 49.5 0.976562V23.2751C49.5 23.5383 49.2866 23.7517 49.0234 23.7517H42.1336H41.9265L41.78 23.8981L38.5467 27.1314C38.4536 27.2245 38.3325 27.271 38.2098 27.271C38.087 27.271 37.966 27.2246 37.8728 27.1314L37.5192 27.485L37.8728 27.1314L34.6394 23.8981ZM27.8727 22.2985V22.7985H28.3727H34.6904C34.8168 22.7985 34.9381 22.8488 35.0274 22.9381L35.381 22.5846L35.0274 22.9381L37.8563 25.7669L38.2099 26.1205L38.5634 25.7669L41.3922 22.9381C41.4816 22.8488 41.6028 22.7985 41.7292 22.7985H48.0469H48.5469V22.2985V1.95312V1.45312H48.0469H28.3727H27.8727V1.95312V22.2985Z" fill="black" stroke="url(#paint6_linear_597_1384)"/>
<path d="M35.8667 38.7293C35.6035 38.7293 35.3901 38.516 35.3901 38.2528V37.3069C35.3901 37.0437 35.6035 36.8303 35.8667 36.8303C36.1299 36.8303 36.3433 37.0437 36.3433 37.3069V38.2528C36.3433 38.516 36.1299 38.7293 35.8667 38.7293Z" fill="black" stroke="url(#paint7_linear_597_1384)"/>
<path d="M40.5527 38.7293C40.2895 38.7293 40.0762 38.516 40.0762 38.2528V37.3069C40.0762 37.0437 40.2895 36.8303 40.5527 36.8303C40.8159 36.8303 41.0293 37.0437 41.0293 37.3069V38.2528C41.0293 38.516 40.8159 38.7293 40.5527 38.7293Z" fill="black" stroke="url(#paint8_linear_597_1384)"/>
<path d="M40.4608 42.6573C40.4608 42.6573 40.4607 42.6574 40.4607 42.6574C40.3676 42.7505 40.2465 42.7969 40.1238 42.7969C40.001 42.7969 39.8799 42.7505 39.7869 42.6574L39.7869 42.6573L35.6053 43.0109C35.224 42.6295 35.224 42.0112 35.6053 41.6297C37.0416 40.1937 39.3783 40.1938 40.8143 41.6297C41.1957 42.0111 41.1957 42.6294 40.8143 43.0109L40.4608 42.6573ZM40.4608 42.6573C40.6469 42.4711 40.6468 42.1693 40.4608 41.9833C39.22 40.7426 37.1999 40.7425 35.9589 41.9832M40.4608 42.6573L35.9589 41.9832M35.9589 41.9832L35.6054 41.6298L35.9589 41.9833C35.7728 42.1695 35.7729 42.4712 35.9589 42.6573M35.9589 42.6573C35.9589 42.6573 35.9589 42.6573 35.9589 42.6573C35.9589 42.6573 35.9589 42.6573 35.9589 42.6573Z" fill="black" stroke="url(#paint9_linear_597_1384)"/>
<path d="M38.2098 49.5C32.7165 49.5 28.2466 45.0302 28.2466 39.5368C28.2466 34.0434 32.7165 29.5735 38.2098 29.5735C43.7032 29.5735 48.173 34.0434 48.173 39.5368C48.173 45.0302 43.7031 49.5 38.2098 49.5ZM38.2098 30.5267C33.2411 30.5267 29.1997 34.5681 29.1997 39.5369C29.1997 44.5056 33.2411 48.5469 38.2098 48.5469C43.1784 48.5469 47.2199 44.5055 47.2199 39.5368C47.2199 34.568 43.1784 30.5267 38.2098 30.5267Z" fill="black" stroke="url(#paint10_linear_597_1384)"/>
<path d="M18.1443 33.3491H5.43652C5.17331 33.3491 4.95996 33.1358 4.95996 32.8726C4.95996 32.6093 5.17331 32.396 5.43652 32.396H18.1442C18.4075 32.396 18.6208 32.6093 18.6208 32.8726C18.6208 33.1358 18.4075 33.3491 18.1443 33.3491Z" fill="black" stroke="url(#paint11_linear_597_1384)"/>
<path d="M18.1443 43.6509H5.43652C5.17331 43.6509 4.95996 43.4375 4.95996 43.1743C4.95996 42.9111 5.17331 42.6978 5.43652 42.6978H18.1442C18.4075 42.6978 18.6208 42.9111 18.6208 43.1743C18.6208 43.4376 18.4075 43.6509 18.1443 43.6509Z" fill="black" stroke="url(#paint12_linear_597_1384)"/>
<path d="M7.86641 26.2483H8.07351L8.21996 26.1018L11.4533 22.8685C11.6392 22.6825 11.941 22.6824 12.1272 22.8685C12.1272 22.8686 12.1272 22.8686 12.1273 22.8686L15.3606 26.1018L15.5071 26.2483H15.7142H22.604C22.8672 26.2483 23.0806 26.4616 23.0806 26.7248V49.0233C23.0806 49.0233 23.0806 49.0233 23.0806 49.0234C23.0805 49.2866 22.8671 49.4999 22.6039 49.4999H0.976562C0.713349 49.4999 0.5 49.2866 0.5 49.0234V26.7248C0.5 26.4616 0.713349 26.2483 0.976562 26.2483H7.86641ZM1.45312 48.0468V48.5468H1.95312H21.6273H22.1273V48.0468V27.7014V27.2014H21.6273H15.3096C15.1832 27.2014 15.0619 27.1512 14.9726 27.0618L14.9726 27.0618L12.1437 24.233L11.7901 23.8795L11.4366 24.233L8.60777 27.0618C8.51841 27.1512 8.39723 27.2014 8.2708 27.2014H1.95312H1.45312V27.7014V48.0468Z" fill="black" stroke="url(#paint13_linear_597_1384)"/>
<path d="M9.44727 9.65586C9.18405 9.65586 8.9707 9.44251 8.9707 9.1793V8.2334C8.9707 7.97019 9.18405 7.75684 9.44727 7.75684C9.71048 7.75684 9.92383 7.97019 9.92383 8.2334V9.1793C9.92383 9.44251 9.71048 9.65586 9.44727 9.65586Z" fill="black" stroke="url(#paint14_linear_597_1384)"/>
<path d="M14.1333 9.65586C13.8701 9.65586 13.6567 9.44251 13.6567 9.1793V8.2334C13.6567 7.97019 13.8701 7.75684 14.1333 7.75684C14.3965 7.75684 14.6099 7.97019 14.6099 8.2334V9.1793C14.6099 9.44251 14.3965 9.65586 14.1333 9.65586Z" fill="black" stroke="url(#paint15_linear_597_1384)"/>
<path d="M9.53947 13.5837C10.1597 14.2038 10.9739 14.5143 11.7904 14.5143C12.6069 14.5143 13.421 14.2038 14.0414 13.5837C14.0414 13.5837 14.0415 13.5836 14.0415 13.5836M9.53947 13.5837L14.0415 13.5836M9.53947 13.5837C9.53946 13.5837 9.53945 13.5836 9.53944 13.5836C9.35341 13.3976 9.35335 13.0958 9.53951 12.9096C9.72548 12.7236 10.0272 12.7234 10.2135 12.9096C10.2135 12.9096 10.2135 12.9096 10.2136 12.9097L9.53947 13.5837ZM14.0415 13.5836C14.2276 13.3974 14.2275 13.0957 14.0415 12.9097M14.0415 13.5836L14.0415 12.9097M14.0415 12.9097C13.8553 12.7235 13.5535 12.7236 13.3674 12.9096L14.0415 12.9097Z" fill="black" stroke="url(#paint16_linear_597_1384)"/>
<path d="M11.7904 20.4265C6.29714 20.4265 1.82715 15.9566 1.82715 10.4632C1.82715 4.9698 6.29713 0.5 11.7904 0.5C17.2837 0.5 21.7537 4.9699 21.7537 10.4633C21.7537 15.9567 17.2837 20.4265 11.7904 20.4265ZM11.7904 1.45313C6.82181 1.45313 2.78027 5.49456 2.78027 10.4633C2.78027 15.432 6.82171 19.4734 11.7904 19.4734C16.7592 19.4734 20.8006 15.432 20.8006 10.4633C20.8006 5.49456 16.759 1.45313 11.7904 1.45313Z" fill="black" stroke="url(#paint17_linear_597_1384)"/>
</g>
<defs>
<linearGradient id="paint0_linear_597_1384" x1="18.4583" y1="39.3459" x2="18.0702" y2="36.2718" gradientUnits="userSpaceOnUse">
<stop stop-color="#4531C6"/>
<stop offset="0.694206" stop-color="#A2D729"/>
</linearGradient>
<linearGradient id="paint1_linear_597_1384" x1="7.68981" y1="39.3459" x2="7.30172" y2="36.2718" gradientUnits="userSpaceOnUse">
<stop stop-color="#4531C6"/>
<stop offset="0.694206" stop-color="#A2D729"/>
</linearGradient>
<linearGradient id="paint2_linear_597_1384" x1="12.4525" y1="39.3454" x2="11.715" y2="36.4124" gradientUnits="userSpaceOnUse">
<stop stop-color="#4531C6"/>
<stop offset="0.694206" stop-color="#A2D729"/>
</linearGradient>
<linearGradient id="paint3_linear_597_1384" x1="43.0448" y1="18.4499" x2="42.9402" y2="15.3303" gradientUnits="userSpaceOnUse">
<stop stop-color="#4531C6"/>
<stop offset="0.694206" stop-color="#A2D729"/>
</linearGradient>
<linearGradient id="paint4_linear_597_1384" x1="43.0448" y1="13.299" x2="42.9402" y2="10.1794" gradientUnits="userSpaceOnUse">
<stop stop-color="#4531C6"/>
<stop offset="0.694206" stop-color="#A2D729"/>
</linearGradient>
<linearGradient id="paint5_linear_597_1384" x1="43.0448" y1="8.14811" x2="42.9402" y2="5.02851" gradientUnits="userSpaceOnUse">
<stop stop-color="#4531C6"/>
<stop offset="0.694206" stop-color="#A2D729"/>
</linearGradient>
<linearGradient id="paint6_linear_597_1384" x1="45.9863" y1="32.6888" x2="33.8905" y2="-8.1339" gradientUnits="userSpaceOnUse">
<stop stop-color="#4531C6"/>
<stop offset="0.694206" stop-color="#A2D729"/>
</linearGradient>
<linearGradient id="paint7_linear_597_1384" x1="36.5108" y1="39.7427" x2="34.9916" y2="35.6744" gradientUnits="userSpaceOnUse">
<stop stop-color="#4531C6"/>
<stop offset="0.694206" stop-color="#A2D729"/>
</linearGradient>
<linearGradient id="paint8_linear_597_1384" x1="41.1969" y1="39.7427" x2="39.6776" y2="35.6744" gradientUnits="userSpaceOnUse">
<stop stop-color="#4531C6"/>
<stop offset="0.694206" stop-color="#A2D729"/>
</linearGradient>
<linearGradient id="paint9_linear_597_1384" x1="40.1163" y1="43.7829" x2="39.5997" y2="39.4565" gradientUnits="userSpaceOnUse">
<stop stop-color="#4531C6"/>
<stop offset="0.694206" stop-color="#A2D729"/>
</linearGradient>
<linearGradient id="paint10_linear_597_1384" x1="45.1111" y1="53.7058" x2="37.1934" y2="22.2356" gradientUnits="userSpaceOnUse">
<stop stop-color="#4531C6"/>
<stop offset="0.694206" stop-color="#A2D729"/>
</linearGradient>
<linearGradient id="paint11_linear_597_1384" x1="16.6253" y1="34.195" x2="16.5208" y2="31.0754" gradientUnits="userSpaceOnUse">
<stop stop-color="#4531C6"/>
<stop offset="0.694206" stop-color="#A2D729"/>
</linearGradient>
<linearGradient id="paint12_linear_597_1384" x1="16.6253" y1="44.4967" x2="16.5208" y2="41.3771" gradientUnits="userSpaceOnUse">
<stop stop-color="#4531C6"/>
<stop offset="0.694206" stop-color="#A2D729"/>
</linearGradient>
<linearGradient id="paint13_linear_597_1384" x1="19.5669" y1="54.9177" x2="7.47111" y2="14.0951" gradientUnits="userSpaceOnUse">
<stop stop-color="#4531C6"/>
<stop offset="0.694206" stop-color="#A2D729"/>
</linearGradient>
<linearGradient id="paint14_linear_597_1384" x1="10.0914" y1="10.6692" x2="8.57213" y2="6.60094" gradientUnits="userSpaceOnUse">
<stop stop-color="#4531C6"/>
<stop offset="0.694206" stop-color="#A2D729"/>
</linearGradient>
<linearGradient id="paint15_linear_597_1384" x1="14.7774" y1="10.6692" x2="13.2582" y2="6.60094" gradientUnits="userSpaceOnUse">
<stop stop-color="#4531C6"/>
<stop offset="0.694206" stop-color="#A2D729"/>
</linearGradient>
<linearGradient id="paint16_linear_597_1384" x1="13.697" y1="15.5002" x2="13.1803" y2="11.1738" gradientUnits="userSpaceOnUse">
<stop stop-color="#4531C6"/>
<stop offset="0.694206" stop-color="#A2D729"/>
</linearGradient>
<linearGradient id="paint17_linear_597_1384" x1="18.6917" y1="24.6322" x2="10.7742" y2="-6.83788" gradientUnits="userSpaceOnUse">
<stop stop-color="#4531C6"/>
<stop offset="0.694206" stop-color="#A2D729"/>
</linearGradient>
<clipPath id="clip0_597_1384">
<rect width="50" height="50" fill="white"/>
</clipPath>
</defs>
</svg>
