<svg width="50" height="50" viewBox="0 0 50 50" fill="none" xmlns="http://www.w3.org/2000/svg">
<g clip-path="url(#clip0_597_1365)">
<path d="M49.0241 37.4023C48.6272 37.4023 48.2624 37.1525 48.1168 36.784C47.9674 36.4055 48.0732 35.9604 48.3801 35.6918C48.6915 35.4193 49.1536 35.3733 49.5121 35.5803C49.8703 35.7871 50.0619 36.2108 49.9811 36.6162C49.8914 37.0667 49.4841 37.4023 49.0241 37.4023Z" fill="url(#paint0_linear_597_1365)"/>
<path d="M48.6308 39.9168C48.1229 39.7348 47.564 39.9984 47.3816 40.506C46.8392 42.0172 45.9871 43.3872 44.882 44.5385C44.2803 42.7537 42.812 41.3641 40.98 40.8722C42.1351 39.7463 42.8533 38.1742 42.8533 36.4376C42.8533 33.0217 40.0743 30.2427 36.6584 30.2427C33.2426 30.2427 30.4636 33.0217 30.4636 36.4376C30.4636 38.1742 31.1818 39.7462 32.3369 40.8721C30.5043 41.3641 29.0357 42.7544 28.4344 44.5399C26.4054 42.4324 25.2687 39.6396 25.2687 36.657C25.2687 30.3763 30.3781 25.2663 36.6584 25.2663C41.3219 25.2663 45.4671 28.0592 47.2188 32.3813C47.4214 32.8812 47.9909 33.1223 48.4906 32.9196C48.9905 32.7171 49.2314 32.1477 49.0289 31.6479C48.0426 29.2143 46.3731 27.1397 44.201 25.6484C43.2675 25.0075 42.2665 24.4935 41.2191 24.1125V17.756C43.9339 17.2907 46.0063 14.9203 46.0063 12.075C46.0063 8.89678 43.4207 6.31123 40.2426 6.31123C37.3972 6.31123 35.0268 8.38369 34.5616 11.0984H26.4973C25.4266 4.80596 19.9356 0 13.3434 0C5.98604 0 0.000488281 5.98603 0.000488281 13.3439C0.000488281 17.5148 1.89756 21.369 5.20518 23.9183C5.20674 23.9194 5.2082 23.9205 5.20977 23.9217C6.30947 24.7684 7.51055 25.4281 8.78193 25.8905V32.2438C6.06719 32.7091 3.99473 35.0795 3.99473 37.9248C3.99473 41.103 6.58037 43.6886 9.7585 43.6886C12.6039 43.6886 14.9743 41.6161 15.4395 38.9014H23.502C24.0545 42.1903 25.8158 45.1472 28.5203 47.2314C28.5223 47.2329 28.5242 47.2344 28.5262 47.2358C30.8756 49.0442 33.6875 50 36.6584 50C39.6306 50 42.4436 49.0435 44.7936 47.2337C44.7945 47.2329 44.7955 47.2322 44.7965 47.2314C46.8277 45.666 48.3573 43.5686 49.2199 41.1659C49.4021 40.6583 49.1384 40.099 48.6308 39.9168ZM40.2425 8.26445C42.3438 8.26445 44.0531 9.97393 44.0531 12.0751C44.0531 14.1763 42.3437 15.8857 40.2425 15.8857C38.1413 15.8857 36.4318 14.1763 36.4318 12.0751C36.4318 9.97393 38.1413 8.26445 40.2425 8.26445ZM1.95361 13.3439C1.95361 7.06299 7.06309 1.95312 13.3434 1.95312C19.6236 1.95312 24.733 7.06299 24.733 13.3439C24.733 16.3264 23.5964 19.1193 21.5674 21.2269C20.966 19.4413 19.4974 18.051 17.6647 17.559C18.8198 16.4331 19.5382 14.861 19.5382 13.1244C19.5382 9.7085 16.7592 6.92949 13.3433 6.92949C9.92734 6.92949 7.14834 9.7085 7.14834 13.1244C7.14834 14.861 7.8667 16.4331 9.02178 17.559C7.18916 18.0509 5.72051 19.4413 5.11914 21.2269C3.09023 19.1192 1.95361 16.3264 1.95361 13.3439ZM13.3434 17.3661C11.0045 17.3661 9.10156 15.4633 9.10156 13.1243C9.10156 10.7854 11.0044 8.88252 13.3434 8.88252C15.6823 8.88252 17.5852 10.7854 17.5852 13.1243C17.5852 15.4633 15.6822 17.3661 13.3434 17.3661ZM10.4895 19.3193H16.1973C18.1203 19.3193 19.7065 20.7895 19.8908 22.6649C17.9688 24.02 15.7157 24.7336 13.3434 24.7336C10.971 24.7336 8.71787 24.02 6.7959 22.6649C6.98008 20.7895 8.56631 19.3193 10.4895 19.3193ZM9.7585 41.7355C7.65723 41.7355 5.94785 40.0261 5.94785 37.9249C5.94785 35.8237 7.65732 34.1143 9.7585 34.1143C11.8597 34.1143 13.5691 35.8237 13.5691 37.9249C13.5691 40.0261 11.8597 41.7355 9.7585 41.7355ZM15.4395 36.9483C15.0286 34.5512 13.1322 32.6548 10.7351 32.2439V26.4343C11.585 26.6017 12.457 26.6867 13.3433 26.6867C16.3144 26.6867 19.1263 25.731 21.4755 23.9227C21.4774 23.9212 21.4794 23.9197 21.4813 23.9183C24.7891 21.369 26.686 17.5148 26.686 13.3439C26.686 13.2463 26.685 13.1489 26.6828 13.0518H34.5614C34.9723 15.4489 36.8687 17.3453 39.2658 17.7562V23.5679C38.4139 23.3992 37.5414 23.3134 36.6583 23.3134C29.3011 23.3134 23.3155 29.2994 23.3155 36.6572C23.3155 36.7545 23.3166 36.8516 23.3187 36.9483H15.4395ZM36.6584 32.196C38.9973 32.196 40.9002 34.0988 40.9002 36.4378C40.9002 38.7768 38.9974 40.6796 36.6584 40.6796C34.3194 40.6796 32.4167 38.7768 32.4167 36.4378C32.4167 34.0988 34.3195 32.196 36.6584 32.196ZM36.6584 48.0469C34.2861 48.0469 32.033 47.3333 30.1109 45.9781C30.2953 44.1026 31.8814 42.6325 33.8045 42.6325H39.5123C41.4354 42.6325 43.0216 44.1026 43.206 45.9781C41.2839 47.3333 39.0308 48.0469 36.6584 48.0469Z" fill="url(#paint1_linear_597_1365)"/>
</g>
<defs>
<linearGradient id="paint0_linear_597_1365" x1="49.6676" y1="37.7478" x2="48.929" y2="34.8142" gradientUnits="userSpaceOnUse">
<stop stop-color="#4531C6"/>
<stop offset="0.694206" stop-color="#A2D729"/>
</linearGradient>
<linearGradient id="paint1_linear_597_1365" x1="40.89" y1="58.8542" x2="21.7286" y2="-16.2058" gradientUnits="userSpaceOnUse">
<stop stop-color="#4531C6"/>
<stop offset="0.694206" stop-color="#A2D729"/>
</linearGradient>
<clipPath id="clip0_597_1365">
<rect width="50" height="50" fill="white"/>
</clipPath>
</defs>
</svg>
