
<svg
  xmlns="http://www.w3.org/2000/svg"
  xmlns:xlink="http://www.w3.org/1999/xlink"
>
  <defs>
    <lineargradient
      id="a"
      x1="8.19"
      y1="-9.044"
      x2="11.039"
      y2="22.113"
      gradientunits="userSpaceOnUse"
    >
      <stop stop-color="#80FF00">
      </stop>
      <stop
        offset="1"
        stop-color="#67891A"
      >
      </stop>
    </lineargradient>
    <clippath id="a">
      <path
        transform="translate(0 .352)"
        d="M0 0h23v14.297H0z"
      >
      </path>
    </clippath>
    <clippath id="a">
      <path d="M0 0h22v22H0z">
      </path>
    </clippath>
  </defs>
  <symbol id="icon-burger">
    <path
      d="M19.5 5h-18M19.5 1h-18M19.5 9h-18M19.5 13h-18"
      stroke-width="2"
      stroke-linecap="round"
      stroke-linejoin="round"
    >
    </path>
  </symbol>
  <symbol id="icon-close">
    <path d="M.553.553a1.89 1.89 0 0 0 0 2.673L7.328 10 .553 16.774a1.89 1.89 0 1 0 2.673 2.673L10 12.672l6.774 6.775a1.89 1.89 0 0 0 2.673-2.673L12.672 10l6.775-6.774A1.89 1.89 0 0 0 16.774.553L10 7.328 3.226.553a1.89 1.89 0 0 0-2.673 0Z">
    </path>
  </symbol>
  <symbol id="icon-mail">
    <g clip-path="url(#a)">
      <path d="M18.54 14.649H1.67a1.339 1.339 0 0 1-1.353-1.656L2.6 1.881A2 2 0 0 1 4.481.35H21.35a1.369 1.369 0 0 1 1.087.495 1.37 1.37 0 0 1 .26 1.165L20.416 13.12a1.999 1.999 0 0 1-1.875 1.529ZM4.48 1a1.34 1.34 0 0 0-1.24 1.01L.955 13.12a.696.696 0 0 0 .716.883h16.87a1.346 1.346 0 0 0 1.24-1.01l2.287-11.108a.747.747 0 0 0-.136-.627.735.735 0 0 0-.59-.254L4.48 1.001Z">
      </path>
      <path d="M11.325 9.136a1.81 1.81 0 0 1-1.315-.544L3.601 1.835a.32.32 0 0 1 .013-.457.326.326 0 0 1 .459.01l6.41 6.757a1.194 1.194 0 0 0 1.51.136l9.425-6.933a.325.325 0 0 1 .47.43.321.321 0 0 1-.087.092l-9.424 6.933a1.767 1.767 0 0 1-1.05.335l-.002-.002Z">
      </path>
    </g>
  </symbol>
  <symbol id="icon-map-pin">
    <path d="M23.261 20.123h-4.188a.319.319 0 0 1-.21-.098.311.311 0 0 1 0-.43.319.319 0 0 1 .21-.098h4.188c.08.005.156.04.211.099a.312.312 0 0 1-.211.527ZM15.211 23H8.69a.32.32 0 0 1-.226-.093.313.313 0 0 1 0-.445.32.32 0 0 1 .226-.092h6.521a.32.32 0 0 1 .226.092.313.313 0 0 1 0 .445.32.32 0 0 1-.226.093ZM5.68 18.863H2.502a.32.32 0 0 1-.212-.099.313.313 0 0 1 .212-.53H5.68a.32.32 0 0 1 .313.19.312.312 0 0 1-.185.421.323.323 0 0 1-.128.018ZM11.928 12.928a4.184 4.184 0 0 1-2.307-.688A4.112 4.112 0 0 1 8.09 10.4a4.058 4.058 0 0 1-.24-2.37 4.087 4.087 0 0 1 1.134-2.1 4.164 4.164 0 0 1 2.124-1.125 4.194 4.194 0 0 1 2.398.231 4.14 4.14 0 0 1 1.864 1.51c.456.675.7 1.468.7 2.28a4.082 4.082 0 0 1-1.213 2.897 4.178 4.178 0 0 1-2.93 1.205Zm0-7.48c-.676 0-1.337.199-1.9.57-.561.37-1 .898-1.258 1.515a3.342 3.342 0 0 0-.195 1.952c.132.655.457 1.257.935 1.73a3.43 3.43 0 0 0 1.75.924c.663.13 1.35.064 1.975-.192a3.41 3.41 0 0 0 1.533-1.245 3.35 3.35 0 0 0 .575-1.877 3.362 3.362 0 0 0-1.002-2.386 3.441 3.441 0 0 0-2.413-.99Z">
    </path>
    <path d="M11.928 20.428a.363.363 0 0 1-.278-.132C11.297 19.886 3 13.58 3 8.826c0-2.341.94-4.586 2.615-6.241A8.98 8.98 0 0 1 11.928 0a8.98 8.98 0 0 1 6.313 2.585 8.774 8.774 0 0 1 2.614 6.24c0 4.755-8.293 11.061-8.646 11.476a.372.372 0 0 1-.281.132v-.005Zm0-19.706a8.253 8.253 0 0 0-5.794 2.376 8.064 8.064 0 0 0-2.403 5.727c0 4.021 6.728 8.89 8.197 10.676 1.467-1.786 8.198-6.655 8.198-10.676a8.064 8.064 0 0 0-2.404-5.727A8.254 8.254 0 0 0 11.928.722Z">
    </path>
  </symbol>
  <symbol id="icon-phone">
    <path d="M18.493 23a9.875 9.875 0 0 1-3.385-.725 25.419 25.419 0 0 1-8.54-5.804 25.447 25.447 0 0 1-5.804-8.54c-.967-2.534-.967-4.614 0-5.561l.368-.436C2.002 1.016 3.008 0 4.285 0a3.762 3.762 0 0 1 2.66 1.702c2.62 3.27 1.44 4.43.067 5.803l-.242.233c-.222.222-.648 1.257 3.298 5.203.995 1.04 2.09 1.98 3.27 2.805.55.358 1.537.9 1.934.493l.242-.242c1.344-1.363 2.515-2.553 5.803.078a3.764 3.764 0 0 1 1.702 2.66c.058 1.296-.967 2.282-1.934 3.153l-.426.416a3.018 3.018 0 0 1-2.186.715l.02-.019ZM4.198.774c-.968 0-1.76.88-2.496 1.654l-.445.474c-.706.706-.638 2.572.184 4.749a24.548 24.548 0 0 0 5.668 8.27 24.614 24.614 0 0 0 8.26 5.667c2.176.822 4.043.89 4.749.184l.445-.436c.793-.754 1.692-1.615 1.654-2.563a3.115 3.115 0 0 0-1.413-2.089c-2.727-2.186-3.482-1.412-4.749-.135l-.251.251c-.6.6-1.577.474-2.902-.396a22.82 22.82 0 0 1-3.385-2.902c-3.269-3.298-4.314-5.3-3.288-6.325l.241-.242c1.267-1.267 2.06-2.022-.125-4.75A3.134 3.134 0 0 0 4.255.775h-.057ZM18.628 9.507h-.145a.387.387 0 0 1-.213-.503 3.25 3.25 0 0 0-4.362-4.168.388.388 0 0 1-.32-.706 4.024 4.024 0 0 1 5.388 5.184.387.387 0 0 1-.358.242l.01-.049Z">
    </path>
    <path d="M22.081 10.91a.398.398 0 0 1-.145 0 .387.387 0 0 1-.213-.503 6.983 6.983 0 0 0-9.343-9.014.397.397 0 0 1-.513-.194.386.386 0 0 1 .194-.512 7.737 7.737 0 0 1 10.378 9.952.386.386 0 0 1-.358.242v.029Z">
    </path>
  </symbol>
  <symbol id="icon-plane">
    <g
      clip-path="url(#a)"
      stroke-linecap="round"
      stroke-linejoin="round"
    >
      <path d="M21 1 10 12M21 1l-7 20-4-9-9-4 20-7Z">
      </path>
    </g>
  </symbol>
  <symbol id="icon-test">
    <path d="M23.831 33.646a5.034 5.034 0 0 0 5.028 5.028 5.034 5.034 0 0 0 5.028-5.028 5.034 5.034 0 0 0-5.028-5.028 5.034 5.034 0 0 0-5.028 5.028Zm7.15 0c0 1.17-.952 2.122-2.122 2.122a2.124 2.124 0 0 1-2.122-2.122c0-1.17.952-2.122 2.122-2.122s2.122.952 2.122 2.122Z">
    </path>
    <path d="M73.427 18.05a1.454 1.454 0 0 0-1.393 2.551c9.984 5.449 15.944 14.242 15.944 23.52 0 8.55-3.417 14.864-11.079 20.47a1.47 1.47 0 0 0-.56.858L73.473 78.35h-5.36l-1.708-6.575a1.457 1.457 0 0 0-.734-.923 1.459 1.459 0 0 0-1.178-.074c-4.756 1.767-8.36 2.334-14.835 2.334-6.147 0-10.54-.432-16.143-2.708a1.454 1.454 0 0 0-1.96 1.01l-1.648 6.937h-5.314l-2.822-13.92a1.454 1.454 0 0 0-.612-.915C9.062 55.367 2.93 48.335 2.93 42.615v-5.487c0-2.355 1.666-4.271 3.714-4.271h6.453l.126-.001c.057-.001.11-.004.165 0a1.458 1.458 0 0 0 1.385-.7c2.09-3.49 5.12-6.634 9.002-9.346.39-.272.621-.717.621-1.191V9.538c5.183.54 8.835 3.92 10.238 7.274a1.454 1.454 0 0 0 2.681-1.121c-1.9-4.546-7.082-9.134-14.372-9.134-.803 0-1.453.65-1.453 1.453v12.86c-3.668 2.663-6.613 5.712-8.769 9.08H6.644c-3.65 0-6.62 3.22-6.62 7.178v5.487c0 9.84 13.758 19.425 19.017 22.978l2.94 14.5a1.452 1.452 0 0 0 1.424 1.164h7.651c.673 0 1.258-.462 1.414-1.117L34 73.703c5.31 1.929 9.721 2.315 15.66 2.315 5.475 0 9.364-.322 14.331-1.98l1.592 6.13a1.452 1.452 0 0 0 1.406 1.089h7.651c.681 0 1.271-.474 1.42-1.138l3-13.51c8.063-6.057 11.825-13.216 11.825-22.487 0-10.36-6.527-20.106-17.458-26.072Z">
    </path>
    <path d="M44.67 22.172c.44.024.85-.153 1.14-.473 1.972-2.163 5.134-3.454 8.457-3.454 3.296 0 6.356 1.287 8.396 3.531a1.45 1.45 0 0 0 1.075.476h.06c.43-.018.83-.225 1.092-.566a13.268 13.268 0 0 0 2.777-8.17c0-7.39-6.012-13.4-13.4-13.4-7.388 0-13.4 6.01-13.4 13.4 0 2.944.938 5.74 2.712 8.082.26.343.66.554 1.091.574ZM54.267 3.02c5.786 0 10.494 4.708 10.494 10.495a10.38 10.38 0 0 1-1.28 5.035c-2.492-2.058-5.757-3.21-9.213-3.21-3.505 0-6.784 1.123-9.255 3.13a10.411 10.411 0 0 1-1.239-4.956c0-5.786 4.706-10.494 10.493-10.494Z">
    </path>
  </symbol>
  <symbol id="icon-zoom-in">
    <path d="M14 8H8v6H6V8H0V6h6V0h2v6h6v2Z">
    </path>
  </symbol>
  <symbol id="icon-zoom-out">
    <path d="M14 2H0V0h14v2Z">
    </path>
  </symbol>
</svg>
