<svg xmlns="http://www.w3.org/2000/svg" xmlns:xlink="http://www.w3.org/1999/xlink"><defs><lineargradient id="a" x1="8.19" y1="-9.044" x2="11.039" y2="22.113" gradientunits="userSpaceOnUse"><stop stop-color="#80FF00"/><stop offset="1" stop-color="#67891A"/></lineargradient><clippath id="a"><path transform="translate(0 .851)" d="M0 0h23v14.297H0z"/></clippath><clippath id="a"><path d="M0 0h22v22H0z"/></clippath></defs><symbol id="icon-arrow-down"><path fill-rule="evenodd" clip-rule="evenodd" d="M7.398 7.202a.562.562 0 0 1-.796 0L.867 1.468a.562.562 0 0 1 0-.796l.266-.265c.22-.22.575-.22.795 0L7 5.479 12.072.407c.22-.22.576-.22.795 0l.266.265c.22.22.22.576 0 .796L7.398 7.202Z"/></symbol><symbol id="icon-burger"><path d="M19.5 5h-18M19.5 1h-18M19.5 9h-18M19.5 13h-18" stroke-width="2" stroke-linecap="round" stroke-linejoin="round"/></symbol><symbol id="icon-close"><path d="M.553.553a1.89 1.89 0 0 0 0 2.673L7.328 10 .553 16.774a1.89 1.89 0 1 0 2.673 2.673L10 12.672l6.774 6.775a1.89 1.89 0 0 0 2.673-2.673L12.672 10l6.775-6.774A1.89 1.89 0 0 0 16.774.553L10 7.328 3.226.553a1.89 1.89 0 0 0-2.673 0Z"/></symbol><symbol id="icon-mail"><g clip-path="url(#a)"><path d="M18.54 15.149H1.67a1.339 1.339 0 0 1-1.352-1.656L2.6 2.381A2 2 0 0 1 4.48.85h16.87a1.369 1.369 0 0 1 1.087.495 1.37 1.37 0 0 1 .26 1.165L20.415 13.62a1.998 1.998 0 0 1-1.874 1.529h-.002ZM4.482 1.5a1.34 1.34 0 0 0-1.24 1.01L.954 13.62a.696.696 0 0 0 .716.883h16.87a1.346 1.346 0 0 0 1.24-1.01l2.287-11.108a.746.746 0 0 0-.136-.627.733.733 0 0 0-.59-.254L4.482 1.5Z"/><path d="M11.325 9.635a1.81 1.81 0 0 1-1.315-.543L3.601 2.334a.32.32 0 0 1 .013-.456.326.326 0 0 1 .459.01l6.41 6.756a1.194 1.194 0 0 0 1.51.136l9.425-6.932a.325.325 0 0 1 .47.429.321.321 0 0 1-.087.093l-9.424 6.932a1.767 1.767 0 0 1-1.05.336l-.002-.003Z"/></g></symbol><symbol id="icon-map-pin"><path d="M23.261 20.123h-4.188a.319.319 0 0 1-.21-.098.311.311 0 0 1 0-.43.319.319 0 0 1 .21-.098h4.188c.08.005.156.04.211.099a.312.312 0 0 1-.211.527ZM15.211 23H8.69a.32.32 0 0 1-.226-.093.313.313 0 0 1 0-.445.32.32 0 0 1 .226-.092h6.521a.32.32 0 0 1 .226.092.313.313 0 0 1 0 .445.32.32 0 0 1-.226.093ZM5.68 18.863H2.502a.32.32 0 0 1-.212-.099.313.313 0 0 1 .212-.53H5.68a.32.32 0 0 1 .313.19.312.312 0 0 1-.185.421.323.323 0 0 1-.128.018ZM11.928 12.928a4.184 4.184 0 0 1-2.307-.688A4.112 4.112 0 0 1 8.09 10.4a4.058 4.058 0 0 1-.24-2.37 4.087 4.087 0 0 1 1.134-2.1 4.164 4.164 0 0 1 2.124-1.125 4.194 4.194 0 0 1 2.398.231 4.14 4.14 0 0 1 1.864 1.51c.456.675.7 1.468.7 2.28a4.082 4.082 0 0 1-1.213 2.897 4.178 4.178 0 0 1-2.93 1.205Zm0-7.48c-.676 0-1.337.199-1.9.57-.561.37-1 .898-1.258 1.515a3.342 3.342 0 0 0-.195 1.952c.132.655.457 1.257.935 1.73a3.43 3.43 0 0 0 1.75.924c.663.13 1.35.064 1.975-.192a3.41 3.41 0 0 0 1.533-1.245 3.35 3.35 0 0 0 .575-1.877 3.362 3.362 0 0 0-1.002-2.386 3.441 3.441 0 0 0-2.413-.99Z"/><path d="M11.928 20.428a.363.363 0 0 1-.278-.132C11.297 19.886 3 13.58 3 8.826c0-2.341.94-4.586 2.615-6.241A8.98 8.98 0 0 1 11.928 0a8.98 8.98 0 0 1 6.313 2.585 8.774 8.774 0 0 1 2.614 6.24c0 4.755-8.293 11.061-8.646 11.476a.372.372 0 0 1-.281.132v-.005Zm0-19.706a8.253 8.253 0 0 0-5.794 2.376 8.064 8.064 0 0 0-2.403 5.727c0 4.021 6.728 8.89 8.197 10.676 1.467-1.786 8.198-6.655 8.198-10.676a8.064 8.064 0 0 0-2.404-5.727A8.254 8.254 0 0 0 11.928.722Z"/></symbol><symbol id="icon-phone"><path d="M18.468 22.972a9.9 9.9 0 0 1-3.388-.724 25.44 25.44 0 0 1-8.547-5.794A25.402 25.402 0 0 1 .726 7.928c-.968-2.53-.968-4.606 0-5.552l.368-.435c.87-.917 1.877-1.93 3.155-1.93A3.77 3.77 0 0 1 6.911 1.71c2.623 3.263 1.442 4.422.068 5.793l-.242.232c-.223.222-.649 1.255 3.3 5.195a21.75 21.75 0 0 0 3.272 2.8c.552.358 1.539.898 1.936.493l.242-.242c1.345-1.361 2.516-2.549 5.807.078a3.761 3.761 0 0 1 1.704 2.655c.058 1.294-.968 2.279-1.936 3.148l-.426.415a3.024 3.024 0 0 1-2.188.715l.02-.02ZM4.162.782c-.968 0-1.762.88-2.497 1.652l-.445.473c-.707.705-.64 2.569.183 4.741a24.505 24.505 0 0 0 5.672 8.256 24.635 24.635 0 0 0 8.266 5.659c2.178.82 4.046.888 4.753.183l.445-.434c.794-.754 1.694-1.613 1.655-2.56a3.107 3.107 0 0 0-1.413-2.085c-2.73-2.182-3.484-1.41-4.752-.135l-.252.25c-.6.6-1.578.474-2.904-.395a22.813 22.813 0 0 1-3.387-2.897C6.214 10.197 5.169 8.2 6.195 7.175l.242-.241c1.268-1.265 2.061-2.018-.126-4.741A3.132 3.132 0 0 0 4.22.783h-.059ZM18.603 9.502h-.145A.387.387 0 0 1 18.245 9a3.237 3.237 0 0 0-.771-3.555 3.256 3.256 0 0 0-3.594-.607.389.389 0 0 1-.523-.489.388.388 0 0 1 .203-.216 4.035 4.035 0 0 1 4.455.764 4.014 4.014 0 0 1 .937 4.412.387.387 0 0 1-.359.241l.01-.048Z"/><path d="M22.059 10.902a.398.398 0 0 1-.145 0 .387.387 0 0 1-.213-.502 6.956 6.956 0 0 0-1.612-7.667A6.995 6.995 0 0 0 12.351 1.4a.398.398 0 0 1-.513-.193.383.383 0 0 1 .193-.512 7.76 7.76 0 0 1 8.571 1.453 7.707 7.707 0 0 1 1.815 8.482.387.387 0 0 1-.358.242v.03Z"/></symbol><symbol id="icon-pin"><path d="M22.058 20.123H17.87a.319.319 0 0 1-.211-.098.312.312 0 0 1 .21-.528h4.189c.08.005.155.04.21.099a.312.312 0 0 1-.21.527ZM14.008 23H7.486a.32.32 0 0 1-.225-.093.313.313 0 0 1 0-.445.32.32 0 0 1 .225-.092h6.522a.32.32 0 0 1 .225.092.313.313 0 0 1-.225.538ZM4.476 18.863H1.298a.32.32 0 0 1-.212-.099.313.313 0 0 1 .212-.53h3.178a.32.32 0 0 1 .313.19.312.312 0 0 1-.185.421.323.323 0 0 1-.128.018ZM10.724 12.928a4.184 4.184 0 0 1-2.306-.688 4.112 4.112 0 0 1-1.532-1.84 4.058 4.058 0 0 1-.239-2.37 4.087 4.087 0 0 1 1.134-2.1 4.164 4.164 0 0 1 2.124-1.125 4.194 4.194 0 0 1 2.398.231c.759.31 1.407.836 1.863 1.51.457.675.7 1.468.7 2.28a4.082 4.082 0 0 1-1.213 2.897 4.178 4.178 0 0 1-2.929 1.205Zm0-7.48c-.675 0-1.336.199-1.898.57-.563.37-1 .898-1.26 1.515a3.342 3.342 0 0 0-.194 1.952c.132.655.457 1.257.935 1.73a3.453 3.453 0 0 0 3.724.732 3.409 3.409 0 0 0 1.534-1.245 3.35 3.35 0 0 0 .575-1.877 3.362 3.362 0 0 0-1.002-2.386 3.441 3.441 0 0 0-2.414-.99Z"/><path d="M10.724 20.428a.363.363 0 0 1-.277-.132c-.353-.41-8.65-6.717-8.65-11.47 0-2.341.94-4.586 2.614-6.241A8.98 8.98 0 0 1 10.724 0a8.98 8.98 0 0 1 6.313 2.585 8.774 8.774 0 0 1 2.615 6.24c0 4.755-8.293 11.061-8.646 11.476a.371.371 0 0 1-.282.132v-.005Zm0-19.706a8.253 8.253 0 0 0-5.793 2.376 8.064 8.064 0 0 0-2.404 5.727c0 4.021 6.729 8.89 8.197 10.676 1.467-1.786 8.198-6.655 8.198-10.676a8.064 8.064 0 0 0-2.403-5.727A8.254 8.254 0 0 0 10.724.722Z"/></symbol><symbol id="icon-plane"><g clip-path="url(#a)" stroke-linecap="round" stroke-linejoin="round"><path d="M21 1 10 12M21 1l-7 20-4-9-9-4 20-7Z"/></g></symbol><symbol id="icon-zoom-in"><path d="M14 8H8v6H6V8H0V6h6V0h2v6h6v2Z"/></symbol><symbol id="icon-zoom-out"><path d="M14 2H0V0h14v2Z"/></symbol></svg>